<svg width="31" height="42" viewBox="0 0 31 42" fill="none" xmlns="http://www.w3.org/2000/svg">
<path d="M30.6766 21.7087C30.7412 19.026 30.3429 16.3523 29.4991 13.8049C29.3752 13.4623 29.2117 13.1353 29.0119 12.8305C28.9307 12.3974 28.8224 11.9508 28.7412 11.4771C27.4826 5.33275 22.3668 -0.0537309 15.4645 0.000404574C7.34417 0.0680739 4.51559 7.5117 2.74266 13.9674C-2.67089 24.5644 -0.573141 39.6005 13.5697 41.4411C20.4856 42.3343 27.6585 38.7343 29.9863 32.3734C31.0399 28.9201 31.2762 25.2691 30.6766 21.7087Z" fill="#ACD384"/>
<mask id="mask0_5_47" style="mask-type:alpha" maskUnits="userSpaceOnUse" x="0" y="0" width="31" height="42">
<path d="M30.7036 22.0877C30.7807 19.4084 30.4008 16.7356 29.5803 14.1839C29.4564 13.8412 29.2929 13.5142 29.0931 13.2095C29.0119 12.7764 28.9171 12.3298 28.8359 11.8561C27.5773 5.76584 22.5292 0.338756 15.6269 0.35229C7.50657 0.35229 4.62386 7.79592 2.82385 14.238C-2.58969 24.808 -0.654348 39.8576 13.4209 41.7795C20.3367 42.7674 27.5773 39.2216 29.8916 32.82C30.995 29.3548 31.273 25.6795 30.7036 22.0877Z" fill="white"/>
</mask>
<g mask="url(#mask0_5_47)">
<g clip-path="url(#clip0_5_47)">
<path d="M30.6538 1.93791C30.697 1.92751 30.7396 1.90616 30.7784 1.87559C30.8172 1.84501 30.851 1.80604 30.8771 1.76178C30.9033 1.71753 30.921 1.66921 30.929 1.62068C30.937 1.57215 30.935 1.52475 30.9231 1.48225C30.9112 1.43976 30.8898 1.40335 30.8606 1.37592C30.8313 1.34849 30.7951 1.33081 30.7547 1.32427C30.7144 1.31773 30.671 1.32253 30.6281 1.33828C30.5851 1.35402 30.5439 1.38028 30.5075 1.41496C30.4572 1.46292 30.4187 1.52477 30.3976 1.59133C30.3765 1.65788 30.374 1.72557 30.3904 1.78433C30.4068 1.84309 30.4413 1.88978 30.4888 1.91745C30.5363 1.94512 30.5941 1.9523 30.6538 1.93791Z" fill="#599F34" fill-opacity="0.6"/>
</g>
<g clip-path="url(#clip1_5_47)">
<path d="M26.4816 1.99475C26.5224 1.98776 26.5634 1.97021 26.6012 1.9435C26.639 1.91679 26.6726 1.88166 26.6994 1.8409C26.7261 1.80014 26.7453 1.75488 26.7553 1.70873C26.7653 1.66258 26.7659 1.61681 26.757 1.57508C26.7482 1.53334 26.7301 1.49679 26.7043 1.46834C26.6784 1.43989 26.6455 1.42032 26.6082 1.4112C26.5709 1.40207 26.5301 1.40365 26.4892 1.41579C26.4483 1.42793 26.4084 1.45031 26.3727 1.48113C26.3232 1.52376 26.2839 1.58059 26.2607 1.64317C26.2375 1.70574 26.2316 1.77072 26.2438 1.82843C26.2561 1.88614 26.2858 1.9335 26.3287 1.96347C26.3715 1.99344 26.4251 2.0044 26.4816 1.99475Z" fill="#599F34" fill-opacity="0.6"/>
</g>
<g clip-path="url(#clip2_5_47)">
<path d="M22.2525 6.73541C22.2939 6.73031 22.3358 6.71439 22.3748 6.68891C22.4139 6.66343 22.4491 6.6291 22.4775 6.58865C22.506 6.54819 22.527 6.50275 22.5388 6.45592C22.5506 6.40909 22.553 6.36219 22.5456 6.31893C22.5383 6.27568 22.5215 6.23728 22.4966 6.20679C22.4716 6.1763 22.4393 6.15457 22.402 6.14332C22.3648 6.13207 22.3237 6.13162 22.2821 6.14201C22.2405 6.15239 22.1994 6.17332 22.1623 6.20313C22.1109 6.24434 22.0692 6.30064 22.0435 6.36365C22.0177 6.42665 22.0093 6.49299 22.0195 6.5528C22.0296 6.61261 22.0578 6.66269 22.0998 6.69559C22.1417 6.7285 22.1953 6.74246 22.2525 6.73541Z" fill="#599F34" fill-opacity="0.6"/>
</g>
<g clip-path="url(#clip3_5_47)">
<path d="M21.0892 12.2605C21.1324 12.2555 21.1763 12.2392 21.2174 12.2129C21.2585 12.1865 21.2957 12.1508 21.3259 12.1085C21.3561 12.0663 21.3786 12.0188 21.3916 11.9697C21.4046 11.9206 21.4076 11.8713 21.4005 11.8258C21.3935 11.7803 21.3764 11.7397 21.3508 11.7074C21.3252 11.6752 21.2917 11.652 21.253 11.6398C21.2143 11.6276 21.1714 11.6267 21.1279 11.6372C21.0843 11.6476 21.0412 11.6692 21.002 11.7002C20.9478 11.7429 20.9036 11.8017 20.8759 11.8676C20.8482 11.9336 20.8386 12.0032 20.8484 12.0662C20.8581 12.1291 20.8869 12.182 20.9303 12.217C20.9736 12.2521 21.0294 12.2673 21.0892 12.2605Z" fill="#599F34" fill-opacity="0.6"/>
</g>
<g clip-path="url(#clip4_5_47)">
<path d="M23.8728 13.5808C23.9194 13.5735 23.9662 13.554 24.0097 13.5239C24.0531 13.4939 24.0919 13.4541 24.123 13.4077C24.1542 13.3614 24.1767 13.3097 24.1889 13.2569C24.201 13.2041 24.2025 13.1515 24.1931 13.1035C24.1838 13.0554 24.1639 13.0132 24.135 12.9801C24.1061 12.947 24.069 12.924 24.0267 12.9129C23.9844 12.9018 23.938 12.903 23.8913 12.9163C23.8446 12.9296 23.7988 12.9546 23.7576 12.9894C23.7007 13.0376 23.6551 13.1022 23.6276 13.1736C23.6001 13.2451 23.5923 13.3196 23.6052 13.3861C23.6182 13.4525 23.6512 13.5074 23.6994 13.5425C23.7476 13.5776 23.8084 13.591 23.8728 13.5808Z" fill="#599F34" fill-opacity="0.6"/>
</g>
<g clip-path="url(#clip5_5_47)">
<path d="M27.6996 10.7089C27.7477 10.6978 27.7953 10.6744 27.8386 10.6407C27.8819 10.607 27.9198 10.5639 27.9492 10.5148C27.9786 10.4657 27.9987 10.412 28.0079 10.3579C28.0172 10.3038 28.0153 10.2509 28.0024 10.2033C27.9895 10.1558 27.9659 10.1149 27.9336 10.084C27.9014 10.0531 27.8612 10.0329 27.8164 10.0252C27.7716 10.0175 27.7233 10.0223 27.6755 10.0394C27.6277 10.0566 27.5816 10.0854 27.5409 10.1237C27.4846 10.1767 27.4413 10.2453 27.4174 10.3193C27.3934 10.3934 27.3901 10.4689 27.408 10.5347C27.4258 10.6004 27.4638 10.6529 27.5164 10.6843C27.5689 10.7157 27.6332 10.7243 27.6996 10.7089Z" fill="#599F34" fill-opacity="0.6"/>
</g>
<g clip-path="url(#clip6_5_47)">
<path d="M29.0482 8.40442C29.0972 8.39197 29.1456 8.36711 29.1895 8.33182C29.2334 8.29654 29.2716 8.2518 29.301 8.20118C29.3304 8.15055 29.3502 8.09544 29.3589 8.04024C29.3676 7.98503 29.3648 7.93126 29.3509 7.8832C29.337 7.83514 29.3123 7.79413 29.2788 7.76343C29.2452 7.73273 29.2038 7.71319 29.1578 7.70637C29.1117 7.69955 29.0624 7.70564 29.0136 7.72415C28.9649 7.74266 28.9181 7.77308 28.877 7.81299C28.8201 7.86817 28.7767 7.93896 28.7533 8.01481C28.7298 8.09067 28.7275 8.16754 28.7468 8.234C28.766 8.30045 28.8057 8.35294 28.86 8.38364C28.9143 8.41435 28.9803 8.42163 29.0482 8.40442Z" fill="#599F34" fill-opacity="0.6"/>
</g>
<g clip-path="url(#clip7_5_47)">
<path d="M28.5436 15.3673C28.5973 15.3554 28.6505 15.3299 28.6992 15.2926C28.7478 15.2554 28.7904 15.2075 28.8237 15.1527C28.857 15.0979 28.8799 15.0379 28.8907 14.9772C28.9016 14.9166 28.9 14.8571 28.886 14.8035C28.8721 14.7498 28.8463 14.7036 28.8106 14.6684C28.7749 14.6331 28.7304 14.6099 28.6805 14.6006C28.6306 14.5913 28.5768 14.5961 28.5233 14.6146C28.4698 14.6331 28.4181 14.6649 28.3724 14.7074C28.3092 14.7661 28.2602 14.8426 28.2328 14.9254C28.2054 15.0083 28.2009 15.0931 28.2202 15.1673C28.2394 15.2414 28.2813 15.3009 28.3396 15.337C28.3978 15.373 28.4694 15.3836 28.5436 15.3673Z" fill="#599F34" fill-opacity="0.6"/>
</g>
<g clip-path="url(#clip8_5_47)">
<path d="M27.6634 18.728C27.7143 18.7192 27.7654 18.6971 27.8125 18.6636C27.8596 18.6301 27.9015 18.5861 27.9348 18.5351C27.9681 18.4841 27.9919 18.4275 28.0043 18.3698C28.0167 18.3121 28.0174 18.2549 28.0062 18.2028C27.9951 18.1507 27.9725 18.1051 27.9402 18.0696C27.9079 18.0342 27.8668 18.0099 27.8202 17.9986C27.7736 17.9873 27.7228 17.9894 27.6718 18.0048C27.6208 18.0201 27.571 18.0482 27.5264 18.0868C27.4648 18.1402 27.4159 18.2114 27.3871 18.2896C27.3582 18.3679 27.351 18.4491 27.3663 18.5211C27.3817 18.5932 27.419 18.6522 27.4725 18.6895C27.526 18.7268 27.5929 18.7403 27.6634 18.728Z" fill="#599F34" fill-opacity="0.6"/>
</g>
<g clip-path="url(#clip9_5_47)">
<path d="M24.0103 19.7999C24.0583 19.7941 24.1069 19.7757 24.1522 19.7463C24.1976 19.7169 24.2385 19.6772 24.2716 19.6305C24.3047 19.5837 24.3292 19.5311 24.3431 19.477C24.357 19.4228 24.3598 19.3685 24.3515 19.3184C24.3431 19.2683 24.3238 19.2239 24.295 19.1885C24.2662 19.1532 24.2288 19.1279 24.1857 19.1148C24.1426 19.1017 24.095 19.1011 24.0467 19.1131C23.9984 19.125 23.9508 19.1491 23.9076 19.1836C23.8479 19.2312 23.7994 19.2962 23.7693 19.3691C23.7393 19.442 23.7293 19.5188 23.7408 19.588C23.7524 19.6573 23.7848 19.7153 23.8334 19.7535C23.8819 19.7916 23.944 19.8079 24.0103 19.7999Z" fill="#599F34" fill-opacity="0.6"/>
</g>
<g clip-path="url(#clip10_5_47)">
<path d="M21.4502 19.0155C21.4961 19.0112 21.5428 18.9948 21.5867 18.9676C21.6306 18.9405 21.6704 18.9033 21.703 18.8591C21.7357 18.8148 21.7602 18.7648 21.7746 18.7129C21.789 18.661 21.793 18.6086 21.7861 18.5601C21.7793 18.5115 21.7619 18.468 21.7353 18.4331C21.7086 18.3982 21.6735 18.3729 21.6327 18.3591C21.5919 18.3453 21.5466 18.3434 21.5003 18.3536C21.454 18.3638 21.4081 18.3858 21.3662 18.4178C21.3082 18.4622 21.2606 18.5237 21.2303 18.5932C21.2 18.6627 21.1888 18.7365 21.1982 18.8037C21.2077 18.8708 21.2373 18.9277 21.2827 18.9659C21.3281 19.0041 21.3869 19.0214 21.4502 19.0155Z" fill="#599F34" fill-opacity="0.6"/>
</g>
<g clip-path="url(#clip11_5_47)">
<path d="M24.1608 16.4668C24.2089 16.4594 24.2573 16.4395 24.3022 16.4086C24.3471 16.3778 24.3872 16.337 24.4194 16.2893C24.4516 16.2416 24.4749 16.1884 24.4875 16.134C24.5002 16.0796 24.5017 16.0255 24.4921 15.9759C24.4825 15.9263 24.462 15.8827 24.4322 15.8485C24.4024 15.8143 24.3641 15.7904 24.3204 15.7788C24.2768 15.7673 24.2289 15.7683 24.1807 15.7818C24.1324 15.7953 24.0851 15.8209 24.0425 15.8567C23.9836 15.9061 23.9365 15.9725 23.908 16.0461C23.8796 16.1197 23.8714 16.1964 23.8847 16.265C23.898 16.3335 23.9321 16.3902 23.9818 16.4266C24.0315 16.4629 24.0943 16.477 24.1608 16.4668Z" fill="#599F34" fill-opacity="0.6"/>
</g>
<g clip-path="url(#clip12_5_47)">
<path d="M31.1048 16.411C31.158 16.3987 31.2108 16.3729 31.2589 16.3355C31.307 16.2981 31.349 16.2503 31.3817 16.1958C31.4144 16.1413 31.4369 16.0816 31.4472 16.0216C31.4576 15.9615 31.4556 15.9027 31.4415 15.8498C31.4273 15.7969 31.4013 15.7515 31.3656 15.7171C31.33 15.6826 31.2855 15.6602 31.2359 15.6515C31.1863 15.6428 31.1328 15.6482 31.0798 15.6671C31.0267 15.686 30.9756 15.718 30.9304 15.7605C30.868 15.8192 30.8198 15.8954 30.7931 15.9776C30.7664 16.0598 30.7625 16.1437 30.7821 16.2168C30.8017 16.2899 30.8437 16.3483 30.9018 16.3833C30.9599 16.4183 31.0311 16.428 31.1048 16.411Z" fill="#599F34" fill-opacity="0.6"/>
</g>
<g clip-path="url(#clip13_5_47)">
<path d="M29.7795 4.43626C29.8241 4.42501 29.8681 4.40246 29.908 4.37041C29.9478 4.33837 29.9825 4.29771 30.0092 4.25169C30.0359 4.20566 30.054 4.15554 30.0618 4.10531C30.0697 4.05508 30.0672 4.00614 30.0546 3.96238C30.0419 3.91863 30.0195 3.88126 29.989 3.85327C29.9585 3.82528 29.9209 3.80743 29.879 3.80116C29.8372 3.79488 29.7923 3.80034 29.748 3.81711C29.7037 3.83388 29.6612 3.8615 29.6239 3.89775C29.5722 3.94788 29.5328 4.01224 29.5115 4.08123C29.4902 4.15023 29.4881 4.22019 29.5056 4.2807C29.5231 4.34121 29.5592 4.38904 29.6086 4.41706C29.6579 4.44509 29.7179 4.45183 29.7795 4.43626Z" fill="#599F34" fill-opacity="0.6"/>
</g>
<g clip-path="url(#clip14_5_47)">
<path d="M26.998 4.15963C27.0409 4.15114 27.0837 4.13164 27.1231 4.10267C27.1624 4.0737 27.1972 4.03607 27.2246 3.99278C27.252 3.94949 27.2713 3.90174 27.281 3.85332C27.2907 3.80491 27.2904 3.75718 27.2803 3.71392C27.2702 3.67067 27.2505 3.6331 27.2227 3.6042C27.1949 3.5753 27.1599 3.55587 27.1204 3.54746C27.0809 3.53905 27.038 3.54189 26.9951 3.55576C26.9523 3.56963 26.9106 3.59414 26.8735 3.62735C26.8222 3.67326 26.7819 3.73367 26.7587 3.7996C26.7354 3.86553 26.7304 3.93345 26.7444 3.99326C26.7584 4.05307 26.7906 4.10157 26.8363 4.13155C26.882 4.16152 26.9387 4.17137 26.998 4.15963Z" fill="#599F34" fill-opacity="0.6"/>
</g>
<g clip-path="url(#clip15_5_47)">
<path d="M25.9392 6.83934C25.9825 6.83099 26.0259 6.81151 26.0657 6.78246C26.1055 6.7534 26.1407 6.71557 26.1686 6.67198C26.1964 6.62839 26.216 6.58024 26.2259 6.53137C26.2358 6.48251 26.2357 6.43427 26.2256 6.39052C26.2155 6.34676 26.1956 6.30868 26.1676 6.27933C26.1397 6.24998 26.1043 6.23016 26.0644 6.22145C26.0245 6.21274 25.9811 6.21538 25.9377 6.22916C25.8944 6.24294 25.8522 6.26748 25.8146 6.30083C25.7627 6.34694 25.7218 6.40776 25.6981 6.47425C25.6744 6.54074 25.6692 6.60935 25.6832 6.66985C25.6971 6.73036 25.7296 6.77954 25.7757 6.81008C25.8219 6.84062 25.8792 6.85088 25.9392 6.83934Z" fill="#599F34" fill-opacity="0.6"/>
</g>
<g clip-path="url(#clip16_5_47)">
<path d="M31.0793 25.22C31.0606 25.1949 31.0334 25.1753 31.0002 25.1627C30.967 25.1502 30.9287 25.145 30.8886 25.1477C30.8485 25.1505 30.8078 25.161 30.7699 25.1784C30.732 25.1958 30.698 25.2195 30.671 25.2476C30.6439 25.2758 30.6245 25.3074 30.6144 25.3398C30.6043 25.3723 30.6039 25.4046 30.6131 25.434C30.6223 25.4633 30.6409 25.489 30.6673 25.5086C30.6937 25.5283 30.7271 25.5414 30.7647 25.5468C30.7834 25.5718 30.8105 25.5914 30.8437 25.604C30.8769 25.6166 30.9152 25.6217 30.9553 25.619C30.9955 25.6163 31.0362 25.6058 31.0741 25.5884C31.112 25.571 31.1459 25.5472 31.173 25.5191C31.2001 25.491 31.2195 25.4594 31.2296 25.4269C31.2396 25.3945 31.2401 25.3622 31.2309 25.3328C31.2217 25.3034 31.2031 25.2778 31.1767 25.2582C31.1503 25.2385 31.1169 25.2254 31.0793 25.22Z" fill="#EDF5DF"/>
</g>
<g clip-path="url(#clip17_5_47)">
<path d="M26.7777 28.7398C26.7588 28.7145 26.7314 28.6947 26.6978 28.682C26.6642 28.6693 26.6254 28.6641 26.5847 28.6669C26.544 28.6696 26.5026 28.6803 26.464 28.6979C26.4255 28.7156 26.391 28.7396 26.3634 28.7681C26.3358 28.7966 26.316 28.8286 26.3056 28.8614C26.2952 28.8942 26.2946 28.9269 26.3038 28.9566C26.313 28.9864 26.3317 29.0123 26.3584 29.0321C26.385 29.052 26.4189 29.0653 26.457 29.0707C26.4758 29.096 26.5033 29.1159 26.5369 29.1286C26.5705 29.1413 26.6093 29.1465 26.65 29.1437C26.6907 29.1409 26.7321 29.1303 26.7706 29.1126C26.8092 29.095 26.8437 29.0709 26.8713 29.0425C26.8989 29.014 26.9187 28.982 26.9291 28.9492C26.9395 28.9163 26.9401 28.8837 26.9309 28.8539C26.9217 28.8242 26.903 28.7983 26.8763 28.7784C26.8496 28.7586 26.8158 28.7453 26.7777 28.7398Z" fill="#EDF5DF"/>
</g>
<g clip-path="url(#clip18_5_47)">
<path d="M14.8939 31.1624C14.8752 31.1372 14.8479 31.1173 14.8145 31.1046C14.781 31.0919 14.7424 31.0866 14.7018 31.0893C14.6613 31.092 14.62 31.1025 14.5816 31.12C14.5431 31.1375 14.5086 31.1614 14.481 31.1897C14.4534 31.2179 14.4336 31.2498 14.4231 31.2825C14.4126 31.3151 14.4119 31.3477 14.4209 31.3773C14.43 31.4069 14.4486 31.4328 14.4751 31.4526C14.5016 31.4725 14.5352 31.4857 14.5731 31.4913C14.5919 31.5165 14.6191 31.5363 14.6526 31.5491C14.686 31.5618 14.7246 31.567 14.7652 31.5644C14.8058 31.5617 14.847 31.5512 14.8855 31.5337C14.9239 31.5162 14.9584 31.4923 14.986 31.464C15.0136 31.4357 15.0335 31.4039 15.0439 31.3712C15.0544 31.3385 15.0551 31.306 15.0461 31.2764C15.037 31.2467 15.0185 31.2209 14.992 31.2011C14.9655 31.1812 14.9318 31.1679 14.8939 31.1624Z" fill="#EDF5DF"/>
</g>
<g clip-path="url(#clip19_5_47)">
<path d="M15.0022 36.5759C14.9834 36.5507 14.9561 36.5309 14.9227 36.5182C14.8893 36.5054 14.8507 36.5002 14.8102 36.5029C14.7698 36.5055 14.7286 36.5161 14.6903 36.5335C14.6521 36.551 14.6177 36.5749 14.5903 36.6032C14.5629 36.6315 14.5432 36.6633 14.5329 36.696C14.5226 36.7287 14.522 36.7612 14.5311 36.7909C14.5403 36.8205 14.5589 36.8463 14.5854 36.8662C14.6119 36.886 14.6456 36.8993 14.6834 36.9048C14.7022 36.9301 14.7295 36.9499 14.7629 36.9626C14.7963 36.9753 14.8349 36.9806 14.8754 36.9779C14.9158 36.9752 14.957 36.9647 14.9953 36.9472C15.0336 36.9298 15.0679 36.9059 15.0953 36.8776C15.1227 36.8493 15.1424 36.8174 15.1527 36.7848C15.163 36.7521 15.1636 36.7195 15.1545 36.6899C15.1453 36.6603 15.1267 36.6344 15.1002 36.6146C15.0737 36.5948 15.04 36.5815 15.0022 36.5759Z" fill="#EDF5DF"/>
</g>
<g clip-path="url(#clip20_5_47)">
<path d="M31.0615 39.5399C31.0434 39.5149 31.017 39.4951 30.9845 39.4823C30.952 39.4695 30.9143 39.464 30.8746 39.4663C30.835 39.4685 30.7946 39.4785 30.7568 39.4954C30.7191 39.5122 30.6852 39.5354 30.6579 39.563C30.6307 39.5906 30.6109 39.6218 30.6004 39.6538C30.5898 39.6859 30.5888 39.7179 30.5973 39.7471C30.6058 39.7764 30.6237 39.802 30.6494 39.8217C30.675 39.8415 30.7078 39.8548 30.7448 39.8606C30.7628 39.8856 30.7892 39.9053 30.8217 39.9182C30.8543 39.931 30.892 39.9365 30.9316 39.9342C30.9712 39.9319 31.0116 39.9219 31.0494 39.9051C31.0871 39.8882 31.1211 39.865 31.1483 39.8374C31.1755 39.8098 31.1953 39.7787 31.2058 39.7466C31.2164 39.7146 31.2175 39.6825 31.2089 39.6533C31.2004 39.6241 31.1825 39.5985 31.1568 39.5787C31.1312 39.559 31.0984 39.5456 31.0615 39.5399Z" fill="#EDF5DF"/>
</g>
<g clip-path="url(#clip21_5_47)">
<path d="M10.2485 38.4707C10.2302 38.4456 10.2034 38.4259 10.1705 38.4131C10.1377 38.4003 10.0996 38.3948 10.0597 38.3972C10.0198 38.3996 9.97913 38.4097 9.94123 38.4267C9.90334 38.4437 9.86932 38.4671 9.84207 38.4949C9.81483 38.5226 9.79517 38.554 9.78478 38.5862C9.77438 38.6184 9.77356 38.6505 9.78238 38.6799C9.79119 38.7092 9.80939 38.7349 9.83542 38.7546C9.86144 38.7744 9.89452 38.7877 9.93184 38.7935C9.95019 38.8185 9.97695 38.8383 10.0098 38.8511C10.0427 38.8639 10.0807 38.8693 10.1207 38.8669C10.1606 38.8645 10.2012 38.8544 10.2391 38.8374C10.277 38.8204 10.311 38.797 10.3383 38.7693C10.3655 38.7415 10.3852 38.7102 10.3956 38.6779C10.406 38.6457 10.4068 38.6136 10.398 38.5843C10.3892 38.5549 10.371 38.5293 10.3449 38.5095C10.3189 38.4897 10.2858 38.4764 10.2485 38.4707Z" fill="#EDF5DF"/>
</g>
<g clip-path="url(#clip22_5_47)">
<path d="M12.5358 40.5403C12.5174 40.5153 12.4906 40.4957 12.4578 40.4831C12.4249 40.4705 12.3869 40.4653 12.3469 40.468C12.307 40.4706 12.2664 40.4809 12.2285 40.4982C12.1906 40.5154 12.1565 40.539 12.1293 40.567C12.1021 40.5949 12.0824 40.6264 12.072 40.6587C12.0616 40.6909 12.0608 40.7231 12.0696 40.7524C12.0784 40.7817 12.0966 40.8072 12.1226 40.8269C12.1487 40.8465 12.1818 40.8596 12.2191 40.8651C12.2374 40.8901 12.2642 40.9097 12.2971 40.9223C12.3299 40.9349 12.368 40.9401 12.4079 40.9375C12.4478 40.9348 12.4885 40.9245 12.5264 40.9072C12.5643 40.89 12.5983 40.8664 12.6255 40.8384C12.6528 40.8105 12.6724 40.779 12.6828 40.7467C12.6932 40.7145 12.694 40.6823 12.6852 40.653C12.6764 40.6237 12.6582 40.5982 12.6322 40.5786C12.6062 40.5589 12.5731 40.5458 12.5358 40.5403Z" fill="#EDF5DF"/>
</g>
<g clip-path="url(#clip23_5_47)">
<path d="M28.8327 32.5315C28.8143 32.5059 28.7872 32.4858 28.7539 32.4727C28.7206 32.4596 28.682 32.454 28.6414 32.4564C28.6008 32.4588 28.5593 32.4691 28.5207 32.4864C28.482 32.5037 28.4472 32.5275 28.4193 32.5558C28.3913 32.5841 28.3711 32.616 28.3602 32.6489C28.3493 32.6817 28.3482 32.7145 28.3569 32.7444C28.3656 32.7743 28.3839 32.8005 28.4102 32.8207C28.4365 32.8409 28.47 32.8545 28.5079 32.8604C28.5263 32.8859 28.5533 32.9061 28.5867 32.9192C28.62 32.9323 28.6586 32.9378 28.6992 32.9355C28.7398 32.9331 28.7812 32.9228 28.8199 32.9055C28.8586 32.8882 28.8934 32.8643 28.9213 32.8361C28.9493 32.8078 28.9695 32.7758 28.9804 32.743C28.9912 32.7102 28.9923 32.6774 28.9836 32.6475C28.9749 32.6175 28.9567 32.5914 28.9304 32.5712C28.9041 32.551 28.8706 32.5374 28.8327 32.5315Z" fill="#EDF5DF"/>
</g>
<g clip-path="url(#clip24_5_47)">
<path d="M20.0741 41.138C20.0559 41.1127 20.0292 41.0928 19.9962 41.0798C19.9633 41.0669 19.9252 41.0613 19.885 41.0635C19.8449 41.0657 19.804 41.0757 19.7658 41.0927C19.7276 41.1096 19.6932 41.1329 19.6656 41.1607C19.638 41.1885 19.618 41.2198 19.6073 41.2521C19.5966 41.2844 19.5955 41.3167 19.6042 41.3462C19.6128 41.3756 19.6308 41.4015 19.6568 41.4214C19.6828 41.4414 19.7159 41.4549 19.7534 41.4607C19.7716 41.486 19.7983 41.5059 19.8312 41.5189C19.8642 41.5318 19.9023 41.5374 19.9424 41.5352C19.9826 41.533 20.0235 41.523 20.0617 41.506C20.0999 41.4891 20.1343 41.4658 20.1619 41.438C20.1894 41.4102 20.2094 41.3789 20.2202 41.3466C20.2309 41.3143 20.2319 41.282 20.2233 41.2525C20.2147 41.2231 20.1966 41.1973 20.1707 41.1773C20.1447 41.1574 20.1116 41.1439 20.0741 41.138Z" fill="#EDF5DF"/>
</g>
<g clip-path="url(#clip25_5_47)">
<path d="M31.376 21.1035C31.3573 21.0789 31.3303 21.0597 31.2973 21.0474C31.2643 21.0351 31.2263 21.0302 31.1865 21.033C31.1468 21.0358 31.1064 21.0463 31.0689 21.0635C31.0314 21.0808 30.9978 21.1043 30.9711 21.1321C30.9444 21.1598 30.9253 21.191 30.9154 21.223C30.9056 21.255 30.9053 21.2868 30.9145 21.3157C30.9238 21.3446 30.9424 21.3697 30.9686 21.389C30.9949 21.4082 31.0281 21.421 31.0654 21.4263C31.0841 21.4508 31.1111 21.4701 31.1441 21.4823C31.177 21.4946 31.215 21.4995 31.2548 21.4967C31.2946 21.4939 31.335 21.4835 31.3725 21.4662C31.41 21.449 31.4435 21.4254 31.4702 21.3977C31.497 21.3699 31.5161 21.3387 31.5259 21.3067C31.5358 21.2748 31.5361 21.243 31.5268 21.2141C31.5176 21.1852 31.499 21.16 31.4727 21.1408C31.4465 21.1215 31.4133 21.1087 31.376 21.1035Z" fill="#EDF5DF"/>
</g>
<g clip-path="url(#clip26_5_47)">
<path d="M29.4396 36.0097C29.4214 35.9843 29.3947 35.9641 29.3617 35.951C29.3288 35.9379 29.2906 35.9322 29.2503 35.9344C29.2101 35.9366 29.1691 35.9466 29.1307 35.9636C29.0924 35.9806 29.0578 36.0041 29.03 36.032C29.0023 36.0599 28.9821 36.0915 28.9712 36.1241C28.9604 36.1566 28.9592 36.1891 28.9677 36.2188C28.9762 36.2485 28.9942 36.2746 29.0202 36.2947C29.0461 36.3149 29.0793 36.3285 29.1168 36.3345C29.1349 36.36 29.1616 36.3801 29.1946 36.3932C29.2275 36.4063 29.2657 36.412 29.306 36.4098C29.3462 36.4077 29.3872 36.3976 29.4256 36.3806C29.464 36.3636 29.4985 36.3402 29.5263 36.3122C29.554 36.2843 29.5742 36.2527 29.5851 36.2202C29.5959 36.1876 29.5972 36.1551 29.5886 36.1254C29.5801 36.0957 29.5621 36.0696 29.5361 36.0495C29.5102 36.0293 29.477 36.0157 29.4396 36.0097Z" fill="#EDF5DF"/>
</g>
<g clip-path="url(#clip27_5_47)">
<path d="M23.6211 37.5672C23.6028 37.5415 23.5759 37.5212 23.5428 37.5079C23.5097 37.4946 23.4712 37.4888 23.4307 37.491C23.3903 37.4931 23.349 37.5032 23.3104 37.5202C23.2718 37.5373 23.237 37.5609 23.2091 37.589C23.1812 37.6171 23.1608 37.6489 23.1499 37.6817C23.139 37.7145 23.1377 37.7472 23.1463 37.7772C23.1549 37.8071 23.173 37.8334 23.1991 37.8538C23.2252 37.8741 23.2585 37.8879 23.2963 37.894C23.3145 37.9197 23.3414 37.94 23.3745 37.9533C23.4077 37.9665 23.4461 37.9724 23.4866 37.9702C23.5271 37.9681 23.5683 37.958 23.6069 37.941C23.6455 37.9239 23.6803 37.9003 23.7082 37.8722C23.7362 37.844 23.7565 37.8122 23.7674 37.7795C23.7783 37.7467 23.7796 37.714 23.771 37.684C23.7625 37.654 23.7444 37.6278 23.7182 37.6074C23.6921 37.5871 23.6588 37.5733 23.6211 37.5672Z" fill="#EDF5DF"/>
</g>
<g clip-path="url(#clip28_5_47)">
<path d="M23.1236 30.9897C23.1049 30.9639 23.0775 30.9435 23.0438 30.9303C23.0101 30.9171 22.9711 30.9114 22.9301 30.9139C22.8891 30.9163 22.8474 30.9268 22.8084 30.9443C22.7694 30.9618 22.7343 30.986 22.7062 31.0146C22.6781 31.0432 22.6577 31.0756 22.6469 31.1088C22.636 31.142 22.635 31.1752 22.6439 31.2054C22.6528 31.2357 22.6713 31.2622 22.698 31.2826C22.7246 31.303 22.7585 31.3167 22.7967 31.3226C22.8154 31.3485 22.8428 31.3689 22.8765 31.3821C22.9102 31.3953 22.9492 31.4009 22.9902 31.3985C23.0312 31.396 23.0729 31.3856 23.1119 31.368C23.1509 31.3505 23.186 31.3264 23.2141 31.2977C23.2422 31.2691 23.2626 31.2368 23.2734 31.2036C23.2843 31.1703 23.2853 31.1372 23.2764 31.1069C23.2675 31.0766 23.2489 31.0502 23.2223 31.0298C23.1957 31.0094 23.1618 30.9956 23.1236 30.9897Z" fill="#EDF5DF"/>
</g>
<g clip-path="url(#clip29_5_47)">
<path d="M25.8542 23.6646C25.8357 23.6395 25.8088 23.6198 25.7757 23.607C25.7426 23.5942 25.7044 23.5888 25.6642 23.5913C25.624 23.5938 25.5832 23.604 25.545 23.6212C25.5069 23.6384 25.4727 23.6619 25.4452 23.6899C25.4178 23.7178 25.398 23.7493 25.3876 23.7817C25.3771 23.814 25.3763 23.8463 25.3851 23.8757C25.394 23.9052 25.4123 23.9309 25.4385 23.9507C25.4646 23.9705 25.4979 23.9838 25.5354 23.9895C25.5539 24.0146 25.5808 24.0344 25.6139 24.0471C25.647 24.0599 25.6852 24.0653 25.7254 24.0628C25.7656 24.0603 25.8065 24.0501 25.8446 24.0329C25.8827 24.0157 25.917 23.9922 25.9444 23.9642C25.9718 23.9363 25.9916 23.9048 26.002 23.8724C26.0125 23.8401 26.0134 23.8078 26.0045 23.7784C25.9956 23.7489 25.9773 23.7232 25.9512 23.7034C25.925 23.6836 25.8917 23.6703 25.8542 23.6646Z" fill="#EDF5DF"/>
</g>
<g clip-path="url(#clip30_5_47)">
<path d="M24.6247 26.8451C24.606 26.8198 24.5788 26.8 24.5453 26.7873C24.5119 26.7746 24.4732 26.7693 24.4327 26.772C24.3921 26.7747 24.3509 26.7852 24.3124 26.8027C24.274 26.8201 24.2395 26.844 24.2119 26.8723C24.1843 26.9006 24.1644 26.9325 24.154 26.9651C24.1435 26.9978 24.1428 27.0304 24.1518 27.06C24.1608 27.0896 24.1794 27.1155 24.2059 27.1353C24.2324 27.1552 24.2661 27.1684 24.304 27.174C24.3227 27.1992 24.35 27.219 24.3834 27.2317C24.4168 27.2445 24.4555 27.2497 24.4961 27.247C24.5366 27.2444 24.5779 27.2338 24.6163 27.2164C24.6548 27.1989 24.6893 27.175 24.7169 27.1467C24.7445 27.1184 24.7643 27.0866 24.7748 27.0539C24.7853 27.0212 24.786 26.9887 24.7769 26.959C24.7679 26.9294 24.7493 26.9036 24.7228 26.8837C24.6963 26.8639 24.6627 26.8506 24.6247 26.8451Z" fill="#EDF5DF"/>
</g>
<g clip-path="url(#clip31_5_47)">
<path d="M20.3886 25.4376C20.3699 25.4123 20.3426 25.3925 20.3092 25.3798C20.2758 25.3671 20.2372 25.3618 20.1967 25.3645C20.1563 25.3672 20.1151 25.3777 20.0768 25.3952C20.0385 25.4126 20.0042 25.4365 19.9768 25.4648C19.9494 25.4931 19.9297 25.525 19.9194 25.5576C19.9091 25.5903 19.9085 25.6229 19.9176 25.6525C19.9268 25.6821 19.9454 25.708 19.9719 25.7278C19.9984 25.7476 20.0321 25.7609 20.0699 25.7665C20.0887 25.7917 20.116 25.8115 20.1494 25.8242C20.1828 25.837 20.2214 25.8422 20.2619 25.8395C20.3023 25.8369 20.3435 25.8263 20.3817 25.8089C20.42 25.7914 20.4544 25.7675 20.4818 25.7392C20.5092 25.7109 20.5289 25.6791 20.5392 25.6464C20.5495 25.6137 20.5501 25.5812 20.541 25.5515C20.5318 25.5219 20.5132 25.4961 20.4867 25.4762C20.4601 25.4564 20.4265 25.4431 20.3886 25.4376Z" fill="#EDF5DF"/>
</g>
<g clip-path="url(#clip32_5_47)">
<path d="M18.8322 28.3349C18.8135 28.3095 18.7863 28.2895 18.7528 28.2766C18.7194 28.2637 18.6807 28.2583 18.6402 28.2608C18.5996 28.2634 18.5584 28.2738 18.5199 28.2912C18.4815 28.3086 18.447 28.3324 18.4194 28.3607C18.3918 28.389 18.3719 28.4209 18.3615 28.4536C18.351 28.4864 18.3503 28.5191 18.3593 28.5488C18.3684 28.5786 18.3869 28.6046 18.4134 28.6246C18.4399 28.6446 18.4736 28.6581 18.5115 28.6638C18.5302 28.6892 18.5575 28.7092 18.5909 28.7221C18.6244 28.735 18.663 28.7404 18.7036 28.7379C18.7441 28.7353 18.7854 28.7249 18.8238 28.7075C18.8623 28.6902 18.8968 28.6663 18.9244 28.638C18.952 28.6097 18.9718 28.5778 18.9823 28.5451C18.9928 28.5123 18.9935 28.4797 18.9844 28.4499C18.9754 28.4201 18.9568 28.3941 18.9303 28.3741C18.9038 28.3541 18.8702 28.3406 18.8322 28.3349Z" fill="#EDF5DF"/>
</g>
<g clip-path="url(#clip33_5_47)">
<path d="M9.53232 31.3373C9.51375 31.3123 9.48679 31.2927 9.45376 31.2801C9.42073 31.2675 9.3826 31.2623 9.34263 31.2649C9.30266 31.2675 9.26202 31.2779 9.2242 31.2952C9.18638 31.3124 9.15249 31.336 9.12542 31.3639C9.09835 31.3919 9.07891 31.4233 9.06875 31.4556C9.05859 31.4879 9.05802 31.5201 9.06708 31.5494C9.07614 31.5786 9.09457 31.6042 9.12079 31.6238C9.14701 31.6434 9.18024 31.6566 9.21766 31.6621C9.23624 31.687 9.26319 31.7066 9.29622 31.7192C9.32925 31.7318 9.36738 31.737 9.40735 31.7344C9.44733 31.7318 9.48796 31.7214 9.52578 31.7042C9.5636 31.6869 9.59749 31.6633 9.62456 31.6354C9.65163 31.6075 9.67107 31.576 9.68123 31.5437C9.69139 31.5114 9.69197 31.4793 9.6829 31.45C9.67384 31.4207 9.65542 31.3951 9.6292 31.3755C9.60297 31.3559 9.56974 31.3428 9.53232 31.3373Z" fill="#EDF5DF"/>
</g>
<g clip-path="url(#clip34_5_47)">
<path d="M5.44293 39.1993C5.42462 39.1747 5.398 39.1553 5.36533 39.1428C5.33267 39.1304 5.29494 39.1252 5.25535 39.1277C5.21576 39.1303 5.1755 39.1405 5.138 39.1575C5.10049 39.1746 5.06686 39.1979 5.03996 39.2255C5.01307 39.253 4.99371 39.2841 4.98354 39.316C4.97338 39.3479 4.9727 39.3797 4.98158 39.4086C4.99045 39.4376 5.00861 39.4628 5.03451 39.4822C5.0604 39.5016 5.09327 39.5146 5.1303 39.5201C5.14861 39.5448 5.17523 39.5642 5.20789 39.5766C5.24056 39.5891 5.27829 39.5943 5.31788 39.5917C5.35746 39.5891 5.39772 39.5789 5.43523 39.5619C5.47274 39.5449 5.50637 39.5216 5.53326 39.494C5.56016 39.4664 5.57951 39.4353 5.58968 39.4034C5.59985 39.3715 5.60052 39.3398 5.59165 39.3108C5.58277 39.2819 5.56461 39.2566 5.53872 39.2372C5.51282 39.2178 5.47996 39.2048 5.44293 39.1993Z" fill="#EDF5DF"/>
</g>
<g clip-path="url(#clip35_5_47)">
<path d="M6.70266 35.9658C6.68425 35.9409 6.65747 35.9213 6.62461 35.9087C6.59175 35.8961 6.55379 35.8908 6.51396 35.8934C6.47413 35.8959 6.43362 35.9061 6.39588 35.9232C6.35814 35.9403 6.32429 35.9637 6.29722 35.9915C6.27015 36.0193 6.25066 36.0505 6.24042 36.0827C6.23018 36.1148 6.22949 36.1468 6.23841 36.176C6.24733 36.2052 6.26559 36.2307 6.29164 36.2503C6.31768 36.2699 6.35074 36.283 6.388 36.2886C6.40641 36.3135 6.43319 36.3331 6.46605 36.3457C6.4989 36.3583 6.53687 36.3636 6.5767 36.3611C6.61653 36.3586 6.65704 36.3483 6.69478 36.3312C6.73252 36.3141 6.76637 36.2907 6.79344 36.2629C6.82051 36.2352 6.83999 36.2039 6.85023 36.1718C6.86047 36.1396 6.86116 36.1076 6.85225 36.0784C6.84333 36.0492 6.82507 36.0237 6.79902 36.0041C6.77297 35.9845 6.73991 35.9714 6.70266 35.9658Z" fill="#EDF5DF"/>
</g>
<g clip-path="url(#clip36_5_47)">
<path d="M11.806 34.6136C11.7876 34.5884 11.7606 34.5687 11.7276 34.5559C11.6945 34.5431 11.6562 34.5377 11.6161 34.5402C11.5759 34.5427 11.535 34.553 11.4969 34.5701C11.4587 34.5873 11.4245 34.6108 11.3971 34.6388C11.3697 34.6667 11.3499 34.6982 11.3394 34.7306C11.3289 34.763 11.3281 34.7952 11.337 34.8247C11.3458 34.8541 11.3641 34.8798 11.3903 34.8996C11.4165 34.9194 11.4497 34.9327 11.4873 34.9384C11.5057 34.9635 11.5327 34.9833 11.5657 34.996C11.5988 35.0088 11.6371 35.0142 11.6772 35.0117C11.7174 35.0092 11.7583 34.999 11.7964 34.9818C11.8346 34.9647 11.8688 34.9411 11.8962 34.9132C11.9236 34.8852 11.9434 34.8537 11.9539 34.8214C11.9644 34.789 11.9652 34.7567 11.9563 34.7273C11.9475 34.6978 11.9292 34.6721 11.903 34.6523C11.8768 34.6325 11.8435 34.6192 11.806 34.6136Z" fill="#EDF5DF"/>
</g>
<g clip-path="url(#clip37_5_47)">
<path d="M18.9676 34.4127C18.949 34.3871 18.9218 34.3669 18.8883 34.3538C18.8548 34.3408 18.816 34.3352 18.7753 34.3377C18.7345 34.3402 18.693 34.3506 18.6542 34.3681C18.6155 34.3856 18.5806 34.4096 18.5527 34.438C18.5248 34.4665 18.5045 34.4986 18.4938 34.5316C18.483 34.5646 18.482 34.5975 18.4908 34.6275C18.4997 34.6575 18.5181 34.6837 18.5446 34.704C18.571 34.7242 18.6047 34.7378 18.6428 34.7436C18.6614 34.7692 18.6886 34.7894 18.7221 34.8025C18.7556 34.8155 18.7943 34.821 18.8351 34.8185C18.8758 34.816 18.9174 34.8056 18.9561 34.7882C18.9949 34.7707 19.0297 34.7467 19.0577 34.7182C19.0856 34.6898 19.1058 34.6577 19.1166 34.6247C19.1274 34.5917 19.1284 34.5588 19.1195 34.5288C19.1107 34.4987 19.0922 34.4725 19.0658 34.4523C19.0393 34.4321 19.0056 34.4185 18.9676 34.4127Z" fill="#EDF5DF"/>
</g>
<g clip-path="url(#clip38_5_47)">
<path d="M30.9304 17.0201C30.9612 17.0131 30.99 16.9978 31.0145 16.9755C31.0389 16.9531 31.0582 16.9243 31.0708 16.8916C31.0834 16.859 31.0888 16.8233 31.0866 16.7877C31.0845 16.7521 31.0747 16.7177 31.0583 16.6873C31.0419 16.6569 31.0193 16.6315 30.9924 16.6132C30.9654 16.5949 30.935 16.5843 30.9037 16.5823C30.8724 16.5803 30.8411 16.5869 30.8125 16.6017C30.784 16.6164 30.759 16.6387 30.7396 16.6668C30.7089 16.6738 30.68 16.6891 30.6556 16.7114C30.6311 16.7338 30.6118 16.7625 30.5992 16.7952C30.5867 16.8279 30.5813 16.8636 30.5834 16.8992C30.5856 16.9348 30.5953 16.9692 30.6117 16.9996C30.6281 17.03 30.6508 17.0554 30.6777 17.0737C30.7046 17.092 30.735 17.1026 30.7664 17.1046C30.7977 17.1066 30.8289 17.0999 30.8575 17.0852C30.8861 17.0705 30.9111 17.0482 30.9304 17.0201Z" fill="#EDF5DF"/>
</g>
<g clip-path="url(#clip39_5_47)">
<path d="M26.8838 14.4351C26.9146 14.4281 26.9434 14.4128 26.9679 14.3904C26.9923 14.3681 27.0116 14.3394 27.0242 14.3068C27.0368 14.2742 27.0422 14.2387 27.04 14.2033C27.0378 14.1678 27.0281 14.1336 27.0117 14.1033C26.9953 14.0731 26.9727 14.0479 26.9457 14.0298C26.9188 14.0116 26.8884 14.0012 26.8571 13.9993C26.8258 13.9974 26.7945 14.0041 26.7659 14.0188C26.7374 14.0335 26.7123 14.0559 26.693 14.0839C26.6622 14.0909 26.6334 14.1062 26.609 14.1286C26.5845 14.1509 26.5652 14.1796 26.5526 14.2122C26.5401 14.2448 26.5346 14.2803 26.5368 14.3157C26.539 14.3512 26.5487 14.3855 26.5651 14.4157C26.5815 14.4459 26.6042 14.4711 26.6311 14.4892C26.658 14.5074 26.6884 14.5178 26.7197 14.5197C26.751 14.5217 26.7823 14.515 26.8109 14.5002C26.8395 14.4855 26.8645 14.4631 26.8838 14.4351Z" fill="#EDF5DF"/>
</g>
<g clip-path="url(#clip40_5_47)">
<path d="M22.3646 14.9369C22.3952 14.9298 22.4239 14.9143 22.4482 14.8918C22.4724 14.8692 22.4915 14.8404 22.5038 14.8076C22.5162 14.7749 22.5213 14.7393 22.5189 14.7038C22.5165 14.6682 22.5066 14.6339 22.49 14.6037C22.4734 14.5735 22.4506 14.5483 22.4236 14.5303C22.3966 14.5122 22.3662 14.5019 22.335 14.5001C22.3037 14.4983 22.2725 14.5052 22.2441 14.5201C22.2157 14.535 22.1908 14.5575 22.1717 14.5857C22.1411 14.5929 22.1124 14.6084 22.0881 14.6309C22.0639 14.6534 22.0448 14.6823 22.0325 14.715C22.0202 14.7477 22.015 14.7834 22.0174 14.8189C22.0198 14.8544 22.0297 14.8887 22.0463 14.919C22.0629 14.9492 22.0857 14.9744 22.1127 14.9924C22.1397 15.0105 22.1701 15.0208 22.2014 15.0226C22.2326 15.0243 22.2638 15.0175 22.2922 15.0026C22.3207 14.9876 22.3455 14.9651 22.3646 14.9369Z" fill="#EDF5DF"/>
</g>
<g clip-path="url(#clip41_5_47)">
<path d="M19.2913 20.9346C19.3222 20.9271 19.3511 20.9113 19.3755 20.8884C19.3999 20.8655 19.4191 20.8364 19.4314 20.8033C19.4438 20.7703 19.449 20.7344 19.4465 20.6988C19.444 20.6631 19.4339 20.6287 19.4172 20.5985C19.4004 20.5682 19.3774 20.5431 19.3502 20.5252C19.323 20.5074 19.2923 20.4973 19.2608 20.4958C19.2293 20.4943 19.1979 20.5015 19.1692 20.5168C19.1406 20.532 19.1156 20.5549 19.0964 20.5834C19.0655 20.5909 19.0367 20.6067 19.0123 20.6296C18.9879 20.6525 18.9687 20.6816 18.9563 20.7147C18.944 20.7477 18.9388 20.7836 18.9413 20.8192C18.9438 20.8549 18.9538 20.8893 18.9706 20.9195C18.9873 20.9498 19.0103 20.9749 19.0376 20.9928C19.0648 21.0106 19.0955 21.0207 19.127 21.0222C19.1585 21.0237 19.1899 21.0165 19.2185 21.0012C19.2471 20.986 19.2721 20.9631 19.2913 20.9346Z" fill="#EDF5DF"/>
</g>
<g clip-path="url(#clip42_5_47)">
<path d="M21.2943 37.2575C21.3253 37.2499 21.3542 37.2339 21.3785 37.2108C21.4029 37.1878 21.4221 37.1584 21.4343 37.1251C21.4466 37.0918 21.4516 37.0557 21.449 37.0198C21.4463 36.9839 21.4361 36.9493 21.4192 36.9189C21.4022 36.8885 21.3791 36.8632 21.3517 36.8453C21.3243 36.8273 21.2935 36.8172 21.2619 36.8158C21.2303 36.8143 21.1988 36.8216 21.1702 36.837C21.1415 36.8525 21.1166 36.8755 21.0974 36.9043C21.0665 36.9119 21.0376 36.9279 21.0132 36.9509C20.9888 36.974 20.9697 37.0034 20.9574 37.0367C20.9452 37.0699 20.9401 37.106 20.9428 37.142C20.9454 37.1779 20.9556 37.2125 20.9726 37.2429C20.9895 37.2733 21.0127 37.2985 21.0401 37.3165C21.0674 37.3344 21.0983 37.3445 21.1299 37.346C21.1615 37.3474 21.1929 37.3401 21.2216 37.3247C21.2502 37.3093 21.2752 37.2862 21.2943 37.2575Z" fill="#EDF5DF"/>
</g>
<g clip-path="url(#clip43_5_47)">
<path d="M24.4309 30.9778C24.4624 30.9704 24.4918 30.9544 24.5167 30.9313C24.5416 30.9082 24.5612 30.8786 24.5739 30.845C24.5866 30.8115 24.592 30.775 24.5896 30.7386C24.5872 30.7022 24.5771 30.6671 24.5602 30.6361C24.5432 30.6052 24.5199 30.5795 24.4923 30.5611C24.4647 30.5426 24.4335 30.5321 24.4015 30.5304C24.3694 30.5286 24.3375 30.5358 24.3083 30.5511C24.2792 30.5664 24.2537 30.5896 24.234 30.6185C24.2026 30.6259 24.1732 30.6419 24.1483 30.665C24.1234 30.6881 24.1037 30.7177 24.091 30.7513C24.0783 30.7848 24.073 30.8214 24.0754 30.8577C24.0778 30.8941 24.0879 30.9292 24.1048 30.9602C24.1217 30.9911 24.145 31.0168 24.1726 31.0352C24.2003 31.0537 24.2314 31.0642 24.2635 31.0659C24.2955 31.0677 24.3275 31.0606 24.3566 31.0452C24.3858 31.0299 24.4113 31.0067 24.4309 30.9778Z" fill="#EDF5DF"/>
</g>
<g clip-path="url(#clip44_5_47)">
<path d="M24.176 21.4613C24.207 21.4541 24.2361 21.4385 24.2606 21.4158C24.2852 21.393 24.3046 21.3639 24.3171 21.3308C24.3296 21.2977 24.3349 21.2617 24.3325 21.2258C24.3301 21.1899 24.32 21.1552 24.3033 21.1246C24.2865 21.0941 24.2635 21.0685 24.2362 21.0503C24.2089 21.032 24.1781 21.0215 24.1464 21.0197C24.1148 21.0179 24.0832 21.0248 24.0544 21.0398C24.0256 21.0549 24.0005 21.0776 23.9811 21.1061C23.95 21.1133 23.921 21.1289 23.8964 21.1516C23.8718 21.1744 23.8525 21.2035 23.84 21.2366C23.8275 21.2697 23.8222 21.3057 23.8246 21.3416C23.827 21.3775 23.837 21.4122 23.8538 21.4428C23.8705 21.4733 23.8935 21.4988 23.9209 21.5171C23.9482 21.5354 23.979 21.5459 24.0106 21.5477C24.0423 21.5495 24.0738 21.5426 24.1026 21.5276C24.1314 21.5125 24.1566 21.4898 24.176 21.4613Z" fill="#EDF5DF"/>
</g>
<g clip-path="url(#clip45_5_47)">
<path d="M29.9863 3.84944C30.0165 3.84258 30.0447 3.82755 30.0687 3.80562C30.0927 3.7837 30.1116 3.75553 30.124 3.72352C30.1363 3.69152 30.1416 3.65662 30.1395 3.62182C30.1374 3.58701 30.1279 3.55333 30.1119 3.52364C30.0958 3.49395 30.0736 3.46914 30.0473 3.45132C30.0209 3.4335 29.9911 3.4232 29.9604 3.42131C29.9297 3.41941 29.8991 3.42597 29.8711 3.44043C29.8431 3.45488 29.8185 3.47681 29.7996 3.50433C29.7694 3.51119 29.7411 3.52622 29.7172 3.54815C29.6932 3.57008 29.6742 3.59824 29.6619 3.63025C29.6496 3.66226 29.6442 3.69715 29.6463 3.73195C29.6485 3.76676 29.6579 3.80044 29.674 3.83013C29.6901 3.85982 29.7122 3.88463 29.7386 3.90245C29.765 3.92027 29.7948 3.93057 29.8255 3.93247C29.8561 3.93436 29.8868 3.9278 29.9148 3.91335C29.9428 3.89889 29.9674 3.87697 29.9863 3.84944Z" fill="#EDF5DF"/>
</g>
<g clip-path="url(#clip46_5_47)">
<path d="M29.6978 20.77C29.7287 20.763 29.7577 20.7475 29.7823 20.725C29.8069 20.7024 29.8264 20.6734 29.8391 20.6405C29.8518 20.6075 29.8574 20.5716 29.8553 20.5358C29.8532 20.5 29.8435 20.4653 29.8271 20.4348C29.8107 20.4042 29.788 20.3787 29.761 20.3603C29.734 20.342 29.7035 20.3313 29.672 20.3294C29.6406 20.3274 29.6091 20.3342 29.5804 20.349C29.5516 20.3639 29.5265 20.3864 29.507 20.4148C29.476 20.4218 29.447 20.4373 29.4224 20.4598C29.3978 20.4824 29.3783 20.5114 29.3656 20.5443C29.3529 20.5772 29.3473 20.6131 29.3494 20.649C29.3515 20.6848 29.3612 20.7194 29.3776 20.75C29.394 20.7806 29.4167 20.8061 29.4437 20.8245C29.4707 20.8428 29.5012 20.8534 29.5327 20.8554C29.5641 20.8574 29.5956 20.8506 29.6243 20.8358C29.6531 20.8209 29.6783 20.7983 29.6978 20.77Z" fill="#EDF5DF"/>
</g>
<g clip-path="url(#clip47_5_47)">
<path d="M31.0636 35.7666C31.0948 35.7595 31.124 35.7439 31.1488 35.7211C31.1735 35.6984 31.1931 35.6692 31.2057 35.636C31.2184 35.6028 31.2238 35.5667 31.2214 35.5306C31.2191 35.4945 31.2092 35.4597 31.1924 35.4289C31.1756 35.3982 31.1526 35.3725 31.1252 35.3541C31.0978 35.3357 31.0668 35.325 31.0351 35.3231C31.0033 35.3212 30.9715 35.328 30.9426 35.343C30.9136 35.3581 30.8883 35.3808 30.8687 35.4094C30.8375 35.4165 30.8083 35.4321 30.7835 35.4549C30.7588 35.4776 30.7393 35.5068 30.7266 35.54C30.714 35.5732 30.7086 35.6093 30.7109 35.6454C30.7132 35.6815 30.7232 35.7163 30.7399 35.7471C30.7567 35.7778 30.7798 35.8035 30.8072 35.8219C30.8346 35.8403 30.8655 35.851 30.8973 35.8529C30.9291 35.8548 30.9608 35.848 30.9898 35.833C31.0187 35.8179 31.0441 35.7952 31.0636 35.7666Z" fill="#EDF5DF"/>
</g>
</g>
<path d="M13.678 3.74929C13.5333 3.7778 13.3925 3.82323 13.2585 3.88463C7.8449 6.40193 7.56069 10.9899 5.3276 16.0651C3.09452 21.1403 1.86294 26.3644 4.33964 31.5072C6.36972 35.7027 11.5802 36.9208 15.9111 36.6366C21.3246 36.3524 24.8299 31.223 26.1021 26.7704C27.8344 20.6396 23.6525 -0.365007 13.678 3.74929Z" fill="#FFF4BC"/>
<path d="M22.2213 28.5715C21.8393 30.8089 20.5961 32.8075 18.7581 34.1391C16.9201 35.4708 14.6335 36.0294 12.3886 35.6952C11.2822 35.5657 10.2129 35.2163 9.24338 34.6677C8.27389 34.1191 7.42381 33.3823 6.74304 32.5006C6.06228 31.6189 5.56457 30.61 5.27914 29.5333C4.99371 28.4565 4.92632 27.3336 5.08092 26.2304C5.4709 23.9927 6.71783 21.995 8.55689 20.6618C10.3959 19.3286 12.6823 18.7647 14.9304 19.09C16.0369 19.2215 17.1059 19.5729 18.0747 20.1234C19.0435 20.674 19.8925 21.4126 20.5718 22.296C21.251 23.1793 21.7469 24.1895 22.0301 25.2672C22.3134 26.3449 22.3784 27.4684 22.2213 28.5715Z" fill="#5D5827"/>
<path d="M12.5818 14.0486C12.5703 14.1272 12.5431 14.2027 12.502 14.2707C12.4609 14.3387 12.4065 14.3978 12.3422 14.4444C12.2779 14.4911 12.2049 14.5244 12.1275 14.5424C12.0501 14.5605 11.9699 14.5628 11.8915 14.5493C11.8136 14.541 11.7381 14.5171 11.6697 14.4789C11.6012 14.4408 11.5412 14.3892 11.4932 14.3272C11.4451 14.2653 11.4101 14.1943 11.3902 14.1185C11.3703 14.0427 11.3659 13.9637 11.3772 13.8861C11.3887 13.8075 11.4158 13.732 11.457 13.664C11.4981 13.596 11.5525 13.5369 11.6168 13.4903C11.6811 13.4436 11.7541 13.4103 11.8315 13.3923C11.9089 13.3743 11.9892 13.3719 12.0675 13.3854C12.1454 13.3937 12.2209 13.4176 12.2893 13.4558C12.3578 13.4939 12.4178 13.5455 12.4658 13.6075C12.5139 13.6694 12.5489 13.7404 12.5688 13.8162C12.5887 13.892 12.5931 13.971 12.5818 14.0486Z" fill="#5D5827"/>
<path d="M18.3607 14.1298C18.331 14.2881 18.241 14.4287 18.1098 14.522C17.9786 14.6154 17.8163 14.6543 17.657 14.6305C17.5011 14.6103 17.3595 14.5292 17.2632 14.4049C17.1668 14.2807 17.1235 14.1234 17.1427 13.9674C17.1724 13.8091 17.2624 13.6685 17.3936 13.5751C17.5248 13.4817 17.6871 13.4428 17.8464 13.4666C18.0023 13.4869 18.1439 13.568 18.2403 13.6922C18.3366 13.8164 18.3799 13.9737 18.3607 14.1298Z" fill="#5D5827"/>
<path d="M15.6661 26.3642C15.7559 26.0813 15.7559 25.7776 15.6661 25.4946C15.9629 25.8394 16.1551 26.2617 16.2203 26.712C16.2854 27.1622 16.2208 27.6216 16.034 28.0364C15.7222 29.0002 15.2409 29.9006 14.6126 30.6953C14.1672 31.16 13.6925 31.5957 13.1912 31.9996C13.2383 32.2305 13.3305 32.4497 13.4625 32.6449C13.5945 32.84 13.7637 33.0072 13.9605 33.1367C15.2002 33.1248 16.3917 32.6542 17.3049 31.8157C18.5231 30.7512 19.2702 29.2477 19.383 27.6339C19.4958 26.0201 18.9651 24.4273 17.9069 23.2037C17.3492 22.5051 16.652 21.9303 15.8599 21.5159C15.0678 21.1015 14.1981 20.8567 13.3062 20.7969C12.4142 20.7371 11.5196 20.8637 10.6793 21.1687C9.83897 21.4737 9.07137 21.9503 8.42538 22.5682C6.30165 24.8926 5.69964 29.1067 8.77655 30.9294C11.5859 32.4846 14.9304 28.4712 15.6661 26.3642Z" fill="#7A6F41"/>
<path d="M11.675 15.6049C12.554 16.1108 13.5503 16.3771 14.5645 16.3771C15.5786 16.3771 16.575 16.1108 17.454 15.6049" fill="#5D5827"/>
<defs>
<clipPath id="clip0_5_47">
<rect width="0.586866" height="0.543028" fill="white" transform="matrix(-0.86987 0.49328 -0.269417 -0.963024 30.9202 1.78687)"/>
</clipPath>
<clipPath id="clip1_5_47">
<rect width="0.548487" height="0.525038" fill="white" transform="matrix(-0.896686 0.442668 -0.207504 -0.978234 26.7382 1.86807)"/>
</clipPath>
<clipPath id="clip2_5_47">
<rect width="0.551834" height="0.539887" fill="white" transform="matrix(-0.913812 0.406138 -0.167203 -0.985922 22.5156 6.61847)"/>
</clipPath>
<clipPath id="clip3_5_47">
<rect width="0.577135" height="0.567041" fill="white" transform="matrix(-0.916898 0.399121 -0.153707 -0.988116 21.3653 12.1403)"/>
</clipPath>
<clipPath id="clip4_5_47">
<rect width="0.625121" height="0.60254" fill="white" transform="matrix(-0.90129 0.433217 -0.191146 -0.981562 24.1668 13.4395)"/>
</clipPath>
<clipPath id="clip5_5_47">
<rect width="0.65215" height="0.606355" fill="white" transform="matrix(-0.873481 0.486858 -0.261814 -0.965118 27.9968 10.5433)"/>
</clipPath>
<clipPath id="clip6_5_47">
<rect width="0.669503" height="0.615711" fill="white" transform="matrix(-0.864789 0.502136 -0.278058 -0.960564 29.3502 8.229)"/>
</clipPath>
<clipPath id="clip7_5_47">
<rect width="0.727148" height="0.681758" fill="white" transform="matrix(-0.877568 0.479452 -0.251121 -0.967956 28.8765 15.1854)"/>
</clipPath>
<clipPath id="clip8_5_47">
<rect width="0.684906" height="0.655699" fill="white" transform="matrix(-0.895334 0.445395 -0.208881 -0.977941 27.9833 18.5689)"/>
</clipPath>
<clipPath id="clip9_5_47">
<rect width="0.639699" height="0.624834" fill="white" transform="matrix(-0.914812 0.40388 -0.164399 -0.986394 24.3156 19.6651)"/>
</clipPath>
<clipPath id="clip10_5_47">
<rect width="0.609868" height="0.603536" fill="white" transform="matrix(-0.92383 0.382803 -0.139255 -0.990257 21.7442 18.8937)"/>
</clipPath>
<clipPath id="clip11_5_47">
<rect width="0.644656" height="0.621467" fill="white" transform="matrix(-0.90295 0.429746 -0.190333 -0.981719 24.4645 16.3222)"/>
</clipPath>
<clipPath id="clip12_5_47">
<rect width="0.7232" height="0.673522" fill="white" transform="matrix(-0.873751 0.486374 -0.258813 -0.965927 31.4344 16.2275)"/>
</clipPath>
<clipPath id="clip13_5_47">
<rect width="0.60811" height="0.560553" fill="white" transform="matrix(-0.865076 0.501642 -0.277654 -0.960681 30.054 4.2771)"/>
</clipPath>
<clipPath id="clip14_5_47">
<rect width="0.579188" height="0.546656" fill="white" transform="matrix(-0.886776 0.462199 -0.22777 -0.973715 27.266 4.01996)"/>
</clipPath>
<clipPath id="clip15_5_47">
<rect width="0.584716" height="0.55272" fill="white" transform="matrix(-0.88904 0.457829 -0.225271 -0.974296 26.2104 6.69968)"/>
</clipPath>
<clipPath id="clip16_5_47">
<rect width="0.42341" height="0.453694" fill="white" transform="matrix(0.879649 0.475624 -0.693556 0.720403 30.8931 25.1193)"/>
</clipPath>
<clipPath id="clip17_5_47">
<rect width="0.42825" height="0.460846" fill="white" transform="matrix(0.879821 0.475305 -0.696008 0.718034 26.5893 28.6381)"/>
</clipPath>
<clipPath id="clip18_5_47">
<rect width="0.426346" height="0.459391" fill="white" transform="matrix(0.878671 0.477428 -0.698213 0.71589 14.7066 31.0606)"/>
</clipPath>
<clipPath id="clip19_5_47">
<rect width="0.426346" height="0.457975" fill="white" transform="matrix(0.878671 0.477428 -0.695938 0.718102 14.8149 36.4742)"/>
</clipPath>
<clipPath id="clip20_5_47">
<rect width="0.416864" height="0.450751" fill="white" transform="matrix(0.872683 0.488287 -0.702589 0.711596 30.8796 39.4381)"/>
</clipPath>
<clipPath id="clip21_5_47">
<rect width="0.420649" height="0.452198" fill="white" transform="matrix(0.875127 0.483894 -0.700341 0.713809 10.0645 38.3689)"/>
</clipPath>
<clipPath id="clip22_5_47">
<rect width="0.419605" height="0.453649" fill="white" transform="matrix(0.877303 0.479936 -0.6981 0.716 12.3517 40.4396)"/>
</clipPath>
<clipPath id="clip23_5_47">
<rect width="0.426538" height="0.462235" fill="white" transform="matrix(0.873198 0.487366 -0.702701 0.711485 28.6465 32.4276)"/>
</clipPath>
<clipPath id="clip24_5_47">
<rect width="0.421701" height="0.45505" fill="white" transform="matrix(0.872943 0.487821 -0.704873 0.709334 19.8901 41.0351)"/>
</clipPath>
<clipPath id="clip25_5_47">
<rect width="0.419454" height="0.447954" fill="white" transform="matrix(0.882781 0.469784 -0.69338 0.720572 31.1908 21.0049)"/>
</clipPath>
<clipPath id="clip26_5_47">
<rect width="0.422762" height="0.457921" fill="white" transform="matrix(0.870754 0.49172 -0.704887 0.70932 29.2555 35.9058)"/>
</clipPath>
<clipPath id="clip27_5_47">
<rect width="0.425713" height="0.460792" fill="white" transform="matrix(0.869804 0.493398 -0.704901 0.709306 23.4359 37.4622)"/>
</clipPath>
<clipPath id="clip28_5_47">
<rect width="0.431375" height="0.466552" fill="white" transform="matrix(0.873446 0.486921 -0.70055 0.713603 22.9352 30.8847)"/>
</clipPath>
<clipPath id="clip29_5_47">
<rect width="0.422545" height="0.455069" fill="white" transform="matrix(0.876324 0.481722 -0.700384 0.713767 25.669 23.5629)"/>
</clipPath>
<clipPath id="clip30_5_47">
<rect width="0.426346" height="0.459391" fill="white" transform="matrix(0.878671 0.477428 -0.698213 0.71589 24.4374 26.7433)"/>
</clipPath>
<clipPath id="clip31_5_47">
<rect width="0.426346" height="0.457975" fill="white" transform="matrix(0.878671 0.477428 -0.695938 0.718102 20.2013 25.3358)"/>
</clipPath>
<clipPath id="clip32_5_47">
<rect width="0.427384" height="0.459391" fill="white" transform="matrix(0.876537 0.481335 -0.698213 0.71589 18.6449 28.2321)"/>
</clipPath>
<clipPath id="clip33_5_47">
<rect width="0.421506" height="0.452234" fill="white" transform="matrix(0.878484 0.477772 -0.695795 0.71824 9.34717 31.2366)"/>
</clipPath>
<clipPath id="clip34_5_47">
<rect width="0.416667" height="0.447908" fill="white" transform="matrix(0.878293 0.478124 -0.697984 0.716113 5.25995 39.0997)"/>
</clipPath>
<clipPath id="clip35_5_47">
<rect width="0.419605" height="0.450778" fill="white" transform="matrix(0.877303 0.479936 -0.698042 0.716056 6.5186 35.8651)"/>
</clipPath>
<clipPath id="clip36_5_47">
<rect width="0.422545" height="0.455069" fill="white" transform="matrix(0.876324 0.481722 -0.700384 0.713767 11.6209 34.5118)"/>
</clipPath>
<clipPath id="clip37_5_47">
<rect width="0.42843" height="0.463681" fill="white" transform="matrix(0.874396 0.485214 -0.700509 0.713644 18.7803 34.3087)"/>
</clipPath>
<clipPath id="clip38_5_47">
<rect width="0.40429" height="0.401484" fill="white" transform="matrix(-0.819483 0.573103 -0.475305 -0.879821 31.0961 16.9042)"/>
</clipPath>
<clipPath id="clip39_5_47">
<rect width="0.40429" height="0.399699" fill="white" transform="matrix(-0.819483 0.573103 -0.477428 -0.878671 27.0495 14.3192)"/>
</clipPath>
<clipPath id="clip40_5_47">
<rect width="0.403768" height="0.400672" fill="white" transform="matrix(-0.81518 0.579207 -0.481335 -0.876537 22.5292 14.82)"/>
</clipPath>
<clipPath id="clip41_5_47">
<rect width="0.408048" height="0.401653" fill="white" transform="matrix(-0.811937 0.583745 -0.485214 -0.874396 19.457 20.8155)"/>
</clipPath>
<clipPath id="clip42_5_47">
<rect width="0.409316" height="0.404414" fill="white" transform="matrix(-0.809422 0.587228 -0.486921 -0.873446 21.46 37.1373)"/>
</clipPath>
<clipPath id="clip43_5_47">
<rect width="0.414591" height="0.409744" fill="white" transform="matrix(-0.814791 0.579755 -0.480587 -0.876947 24.5998 30.8576)"/>
</clipPath>
<clipPath id="clip44_5_47">
<rect width="0.408553" height="0.405208" fill="white" transform="matrix(-0.816233 0.577723 -0.480957 -0.876744 24.3427 21.3433)"/>
</clipPath>
<clipPath id="clip45_5_47">
<rect width="0.396485" height="0.39241" fill="white" transform="matrix(-0.819232 0.573462 -0.47595 -0.879472 30.1487 3.73575)"/>
</clipPath>
<clipPath id="clip46_5_47">
<rect width="0.407306" height="0.403271" fill="white" transform="matrix(-0.818732 0.574176 -0.473199 -0.880956 29.8645 20.6531)"/>
</clipPath>
<clipPath id="clip47_5_47">
<rect width="0.410323" height="0.406989" fill="white" transform="matrix(-0.81799 0.575232 -0.478852 -0.877896 31.2314 35.6486)"/>
</clipPath>
</defs>
</svg>
