<?xml version="1.0" encoding="UTF-8"?>
<svg id="_圖層_2" data-name="圖層 2" xmlns="http://www.w3.org/2000/svg" viewBox="0 0 31.77 42.27">
  <defs>
    <style>
      .avocado-1 {
        fill: #69936e;
      }

      .avocado-2 {
        fill: #517356;
      }
    </style>
  </defs>
  <g id="_圖層_5" data-name="圖層 5">
    <g>
      <path class="avocado-2" d="M1.51,15.66S-1.41-3.74,15,.64c5.07,1.35,6.63,8.14,11.79,12.85,3.51,3.2,11.13,19.01-4.43,26.82S-4.14,31.13,1.51,15.66Z"/>
      <path class="avocado-1" d="M27.63,25.62c-.35-4.28-1.89-8.81-5.55-11.46-.84-.61-2.11-.19-2.71,.57,.16,.15,.34,.28,.48,.44,.64,.7,1.25,1.47,1.69,2.3,.45,.86,.85,1.78,1.11,2.72,.26,.96,.39,1.96,.46,2.95,0,.06-.01,.11-.01,.17,.18,.8,.3,1.59,.35,2.3,.23,2.84-.49,5.93-3.23,7.43-2.34,1.28-.24,4.77,2.11,3.49,3.97-2.16,5.64-6.68,5.3-10.92Z"/>
    </g>
  </g>
</svg>