<?xml version="1.0" encoding="UTF-8"?>
<svg id="_圖層_2" data-name="圖層 2" xmlns="http://www.w3.org/2000/svg" xmlns:xlink="http://www.w3.org/1999/xlink" viewBox="0 0 49.22 33.73">
  <defs>
    <style>
      .cls-1 {
        opacity: .7;
      }

      .cls-2 {
        fill: #fff;
      }

      .cls-3 {
        fill: #ae2f23;
      }

      .cls-4 {
        opacity: .9;
      }

      .cls-5 {
        opacity: .6;
      }

      .cls-6 {
        fill: #4eb233;
      }

      .cls-7 {
        fill: #1386ae;
      }

      .cls-8 {
        fill: #e5e1e0;
      }

      .cls-9 {
        opacity: .8;
      }

      .cls-10 {
        fill: #4e714f;
      }

      .cls-11 {
        opacity: .4;
      }

      .cls-12 {
        clip-path: url(#clippath);
      }

      .cls-13 {
        fill: none;
      }

      .cls-14 {
        fill: #a2a2a2;
      }
    </style>
    <clipPath id="clippath">
      <path class="cls-13" d="M7.25,5.28s37.41,.47,38.03,.62,.46,21.57-3.11,23.59c-3.57,2.02-17.32,6.85-32.28,0,0,0-5.71-1.68-2.64-24.21Z"/>
    </clipPath>
  </defs>
  <g id="_圖層_3" data-name="圖層 3">
    <g>
      <path class="cls-10" d="M17.98,5.45c1.05,.03,2.1,.03,3.14,.09,1.06,.06,2.11,0,3.17,.01,1.01,.02,2.03,.06,3.04,.08,1.07-3.94-4.73-4.38-4.73-4.38,0,0-8.67-3.98-10.26,2.26-.16,.64-.26,1.26-.32,1.85l3.54,.1c.8-.08,1.6-.02,2.41,0Z"/>
      <g class="cls-12">
        <g class="cls-5">
          <path class="cls-3" d="M14.7,7.57c9.95,1.12,19.86-.58,29.82-.43V3.87c-10.85,.83-21.72,1.14-32.6,.93v3.27c10.77-.18,21.53-.35,32.3-.53v-3.27c-5.68,.74-11.36,.79-17.07,.72-2.54-.03-5.08-.08-7.62-.07-2.14,.01-6.7,1.09-8.65,.03l-.83,3.05c12.22-.08,24.43-.16,36.65-.24,2.1-.01,2.11-3.28,0-3.27-13.13,.04-26.25,.08-39.38,.12-2.11,0-2.11,3.26,0,3.27,12.4,.07,24.81,.13,37.21,.2v-3.27c-6.55,.13-13.12,.16-19.66,.46s-13.13,1.09-19.74,.5v3.27c13.79-.02,27.58-.04,41.37-.06,2.1,0,2.11-3.27,0-3.27-13.79,.02-27.58,.04-41.37,.06-2.14,0-2.07,3.09,0,3.27,6.61,.58,13.14-.19,19.74-.5s13.11-.33,19.66-.46c2.1-.04,2.11-3.26,0-3.27-12.4-.07-24.81-.13-37.21-.2v3.27c13.13-.04,26.25-.08,39.38-.12v-3.27c-12.22,.08-24.43,.16-36.65,.24-1.58,.01-2.28,2.26-.83,3.05,1.59,.86,2.78,.64,4.59,.57,3.49-.15,6.98-.16,10.47-.12,6.67,.08,13.3,.17,19.93-.69,2.02-.26,2.17-3.31,0-3.27-10.77,.18-21.53,.35-32.3,.53-2.11,.03-2.11,3.23,0,3.27,10.88,.22,21.75-.09,32.6-.93,2.08-.16,2.13-3.24,0-3.27-9.96-.15-19.87,1.55-29.82,.43-2.09-.24-2.07,3.04,0,3.27h0Z"/>
        </g>
        <g class="cls-5">
          <path class="cls-7" d="M5.06,12.18c14.17-.68,28.34-.6,42.5,.23l-1.41-2.46c-.91,1.43-6.19,.56-7.59,.55-2.58-.03-5.15-.06-7.73-.09-4.51-.05-9.01-.1-13.52-.15-3.71-.04-8.36-.84-12.02-.07-1.72,.36-2.55,.98-2.73,2.74-.09,.88,.82,1.63,1.64,1.64,7.69,.02,15.38,.03,23.08,.05,3.74,0,7.49,.1,11.23,.02,2.2-.05,5.97-1.24,8.03-.67l-.72-2.73c-1.15,1.34-8.32,.37-10.18,.38-3.66,.03-7.33,.05-10.99,.05-6.99,0-13.99-.08-20.98-.21-2.11-.04-2.11,3.23,0,3.27,8.66,.16,17.31,.24,25.97,.2,4-.02,7.99-.05,11.99-.11,2.15-.03,4.95,.54,6.5-1.27,.78-.91,.53-2.39-.72-2.73-2.43-.67-4.79,.36-7.28,.52-3.93,.25-7.95,.03-11.88,.02-8.01-.02-16.03-.04-24.04-.05l1.64,1.64c-.05,.49,24.58,.76,26.93,.78,3.98,.05,8.67,.76,12.57,.09,1.7-.29,2.7-.72,3.64-2.19,.7-1.11-.23-2.39-1.41-2.46-14.16-.83-28.33-.91-42.5-.23-2.1,.1-2.11,3.37,0,3.27h0Z"/>
        </g>
        <g class="cls-5">
          <path class="cls-6" d="M4.44,17.4c14.04-.78,28.08-.94,42.13-.46l-1.58-2.07c-.6,1.71-9.17,.92-10.64,.94-3.65,.05-7.29,.05-10.94,.04-6.75-.03-13.59,.15-20.32-.37v3.27c14.25,.11,28.51,.21,42.76,.32,2.11,.02,2.11-3.26,0-3.27-14.25-.11-28.51-.21-42.76-.32-2.13-.02-2.07,3.11,0,3.27,9.34,.73,18.91,.44,28.27,.37,4.26-.03,14.89,1.97,16.77-3.38,.37-1.04-.58-2.04-1.58-2.07-14.05-.48-28.1-.32-42.13,.46-2.09,.12-2.11,3.39,0,3.27h0Z"/>
        </g>
        <g class="cls-5">
          <path class="cls-7" d="M3.53,25.75c14.17-.68,28.34-.6,42.5,.23l-1.41-2.46c-.91,1.43-6.19,.56-7.59,.55-2.58-.03-5.15-.06-7.73-.09-4.51-.05-9.01-.1-13.52-.15-3.71-.04-8.36-.84-12.02-.07-1.72,.36-2.55,.98-2.73,2.74-.09,.88,.82,1.63,1.64,1.64,7.69,.02,15.38,.03,23.08,.05,3.74,0,7.49,.1,11.23,.02,2.2-.05,5.97-1.24,8.03-.67l-.72-2.73c-1.15,1.34-8.32,.37-10.18,.38-3.66,.03-7.33,.05-10.99,.05-6.99,0-13.99-.08-20.98-.21-2.11-.04-2.11,3.23,0,3.27,8.66,.16,17.31,.24,25.97,.2,4-.02,7.99-.05,11.99-.11,2.15-.03,4.95,.54,6.5-1.27,.78-.91,.53-2.39-.72-2.73-2.43-.67-4.79,.36-7.28,.52-3.93,.25-7.95,.03-11.88,.02-8.01-.02-16.03-.04-24.04-.05l1.64,1.64c-.05,.49,24.58,.76,26.93,.78,3.98,.05,8.67,.76,12.57,.09,1.7-.29,2.7-.72,3.64-2.19,.7-1.11-.23-2.39-1.41-2.46-14.16-.83-28.33-.91-42.5-.23-2.1,.1-2.11,3.37,0,3.27h0Z"/>
        </g>
        <g class="cls-5">
          <path class="cls-6" d="M2.91,31.67c14.04-.78,28.08-.94,42.13-.46l-1.58-2.07c-.6,1.71-9.17,.92-10.64,.94-3.65,.05-7.29,.05-10.94,.04-6.75-.03-13.59,.15-20.32-.37v3.27c14.25,.11,28.51,.21,42.76,.32,2.11,.02,2.11-3.26,0-3.27-14.25-.11-28.51-.21-42.76-.32-2.13-.02-2.07,3.11,0,3.27,9.34,.73,18.91,.44,28.27,.37,4.26-.03,14.89,1.97,16.77-3.38,.37-1.04-.58-2.04-1.58-2.07-14.05-.48-28.1-.32-42.13,.46-2.09,.12-2.11,3.39,0,3.27h0Z"/>
        </g>
        <g class="cls-5">
          <path class="cls-3" d="M3.82,21.87c14.24-.02,28.58,.43,42.79-.51l-1.16-2.79c-2.58,2.07-7.53,1.35-10.62,1.43-3.63,.1-7.26,.2-10.9,.3-6.43,.18-14.12,1.56-20.43,.17l-.43,3.21c7.63,.1,15.26,.15,22.89,.15,6.85,0,14.14,.65,20.85-.88,2.05-.47,1.18-3.62-.87-3.15-6.98,1.59-14.85,.76-21.97,.76s-13.93-.06-20.9-.15c-1.81-.02-2.26,2.81-.43,3.21,3.41,.75,6.94,.35,10.4,.25,4.95-.14,9.91-.27,14.86-.41,5.94-.16,14.86,1.44,19.87-2.58,1.1-.88,.19-2.88-1.16-2.79-14.22,.94-28.55,.49-42.79,.51-2.1,0-2.11,3.27,0,3.27h0Z"/>
        </g>
        <g class="cls-1">
          <path class="cls-2" d="M4.17,9.54c11.33-1.78,22.87-1,34.27-.56,3.21,.12,6.41,.25,9.62,.37,.19,0,.19-.29,0-.3-5.75-.22-11.5-.45-17.25-.66s-11.45-.37-17.18-.09c-3.19,.16-6.38,.46-9.54,.96-.19,.03-.11,.32,.08,.29h0Z"/>
        </g>
        <g class="cls-1">
          <path class="cls-2" d="M3.21,14.14c11.35-.07,22.71-.15,34.06-.22l9.7-.06c.19,0,.19-.3,0-.3-11.35,.07-22.71,.15-34.06,.22l-9.7,.06c-.19,0-.19,.3,0,.3h0Z"/>
        </g>
        <g class="cls-1">
          <path class="cls-2" d="M2.76,19.3c11.48-.91,23.01-1.27,34.52-1.05,3.23,.06,6.46,.17,9.69,.31,.19,0,.19-.29,0-.3-11.51-.53-23.04-.5-34.54,.1-3.23,.17-6.45,.38-9.67,.64-.19,.02-.19,.31,0,.3h0Z"/>
        </g>
        <g class="cls-1">
          <path class="cls-2" d="M2.43,23.79c11.45-.22,22.91-.21,34.36,.05,3.24,.07,6.47,.16,9.71,.27,.19,0,.19-.29,0-.3-11.45-.39-22.9-.54-34.36-.46-3.24,.02-6.47,.07-9.71,.13-.19,0-.19,.3,0,.3h0Z"/>
        </g>
        <g class="cls-1">
          <path class="cls-2" d="M2.25,28.72c11.4-1.24,22.89-1.07,34.33-.58,3.21,.14,6.43,.3,9.64,.46,.19,0,.19-.29,0-.3-11.44-.58-22.91-1.16-34.37-.63-3.21,.15-6.41,.39-9.61,.74-.19,.02-.19,.32,0,.3h0Z"/>
        </g>
      </g>
      <g class="cls-5">
        <path class="cls-14" d="M18.44,5.67c-.22,.02-.44,.02-.66,0-.06,0-.11-.01-.17-.02-.19,1.01-.29,2.04-.38,3.07-.13,1.46-.25,2.91-.38,4.37-.53,6.14-1.07,12.29-1.6,18.43,.05,.02,.1,.04,.15,.06,.15,.05,.29,.1,.44,.14,.3,.09,.61,.16,.91,.23,.13,.03,.26,.06,.38,.1,.17-.15,.3-.31,.32-.47,.47-5.46,.95-10.92,1.42-16.38,.23-2.68,.46-5.36,.7-8.04,.05-.54,.1-1.09,.17-1.64-.24,.03-.48,.04-.72,.04-.19,.06-.38,.09-.59,.12Z"/>
        <path class="cls-14" d="M34.27,5.93c-.17,0-.34,0-.51-.01,.53,2.85,.09,6.02-.13,8.77-.47,6-.93,12.01-1.4,18.01,.41-.09,.81-.18,1.21-.29,.29-.08,.57-.17,.85-.28,.02,0,.04-.02,.07-.03,.09-.1,.15-.21,.16-.31,.46-5.86,.91-11.73,1.37-17.59,.2-2.58,.64-5.58,.39-8.38-.67,.1-1.36,.12-2.01,.11Z"/>
      </g>
      <g class="cls-11">
        <path class="cls-3" d="M18.81,5.4c-.27-.02-.53-.05-.8-.08-.12,1.21,.16,2.43,.11,3.65-.05,1.38-.34,2.73-.54,4.09-.46,3.16-.59,6.37-.69,9.56-.1,3.12-.19,6.25-.28,9.37,.27,.04,.55,.1,.81,.18,.16-5.31,.16-10.65,.6-15.95,.11-1.3,.25-2.59,.46-3.88,.2-1.27,.45-2.54,.47-3.82,.01-1.04-.19-2.08-.14-3.11Z"/>
        <path class="cls-3" d="M34.74,5.81c0,.36-.01,.71-.02,1.07-.02,1.24,.02,2.48-.06,3.72-.09,1.34-.22,2.67-.34,4-.52,5.97-1.03,11.95-1.55,17.92,.27-.06,.54-.11,.82-.16,.5-5.76,.99-11.51,1.49-17.27,.12-1.43,.26-2.86,.37-4.29,.1-1.33,.06-2.65,.09-3.98,0-.34,.01-.69,.02-1.03-.27,.02-.54,.03-.82,.03Z"/>
      </g>
      <g class="cls-4">
        <path class="cls-8" d="M36.32,5.63c-.09-.05-.18-.09-.27-.14,0,0-.01,0-.02,0-.04-.01-.07-.03-.11-.04-.18-.06-.36-.1-.54-.14-.04,0-.08,0-.12-.01-.08,0-.16,0-.24,0-.16,0-.31,.01-.47,.03-.04,0-.17,.02-.19,.03-.1,.02-.19,.04-.29,.06-.11,.03-.23,.06-.34,.1-.88,3.89-4.07,6.81-7.65,8.3-2.13,.88-4.42,1.3-6.7,1.5-.65,.06-1.91,.4-2.35-.27-.54-.82-.43-2.03-.3-2.95,.34-2.37,1.7-4.49,3.34-6.17,.12-.12,.18-.24,.21-.35-.12-.08-.24-.16-.38-.23-.04-.02-.07-.04-.11-.05-.03,0-.06-.01-.07-.02-.05-.02-.09-.04-.14-.05-.14-.04-.28-.07-.42-.1-.02,0-.03,0-.05,0-.07,0-.14-.01-.22-.01-.45-.01-.91,.04-1.36,.09-1.66,1.75-2.99,3.84-3.48,6.24-.23,1.13-.32,2.46,.11,3.56,.52,1.33,1.83,1.9,3.17,2.03,1.35,.13,2.79-.08,4.13-.26,1.4-.19,2.79-.46,4.14-.86,2.52-.74,4.94-1.93,6.91-3.7,1.93-1.73,3.33-3.94,3.92-6.46-.05-.03-.09-.06-.14-.09Z"/>
      </g>
      <g class="cls-9">
        <path class="cls-3" d="M31.24,12.88c-.31-.17-.6-.39-.82-.67-.18-.23-.31-.44-.41-.71-.06-.16-.09-.32-.11-.49-.22,.09-.41,.25-.57,.5-1.15,1.88-3.66,2.42-5.66,2.88-1.15,.27-7.97,1.7-7.2-1.69-.73,0-1.44-.28-2.13-.48-.12-.03-.22-.09-.3-.16-2.14,8.76,14.23,5.4,17.35,.87-.05-.02-.1-.04-.14-.06Z"/>
      </g>
    </g>
  </g>
</svg>