<?xml version="1.0" encoding="UTF-8"?>
<svg id="_圖層_2" data-name="圖層 2" xmlns="http://www.w3.org/2000/svg" xmlns:xlink="http://www.w3.org/1999/xlink" viewBox="0 0 89.3 53.83">
  <defs>
    <style>
      .cls-1 {
        opacity: .7;
      }

      .cls-2 {
        fill: #fff;
      }

      .cls-3 {
        fill: #ae2f23;
      }

      .cls-4 {
        opacity: .9;
      }

      .cls-5 {
        opacity: .6;
      }

      .cls-6 {
        fill: #4eb233;
      }

      .cls-7 {
        fill: #1386ae;
      }

      .cls-8 {
        fill: #e5e1e0;
      }

      .cls-9 {
        opacity: .8;
      }

      .cls-10 {
        opacity: .4;
      }

      .cls-11 {
        clip-path: url(#clippath);
      }

      .cls-12 {
        fill: none;
      }

      .cls-13 {
        fill: #a2a2a2;
      }
    </style>
    <clipPath id="clippath">
      <path class="cls-12" d="M13.15,2.58s67.93,.85,69.04,1.13,.83,39.16-5.65,42.82-31.44,12.43-58.6,0c0,0-10.36-3.05-4.79-43.95Z"/>
    </clipPath>
  </defs>
  <g id="_圖層_2-2" data-name="圖層 2">
    <g>
      <g class="cls-11">
        <g class="cls-5">
          <path class="cls-3" d="M26.68,6.75c18.04,2.19,36.06-1.15,54.14-.78V.03C61.12,1.57,41.38,2.13,21.63,1.71V7.65c19.55-.32,39.09-.64,58.64-.96l-.79-5.83c-10.09,1.38-20.28,1.34-30.44,1.21-4.58-.06-9.15-.15-13.73-.12-2.61,.01-5.22,.06-7.83,.16-1.97,.08-6.03,1.12-7.75-.1l-1.5,5.53c22.18-.15,44.36-.29,66.54-.44,3.82-.03,3.83-5.95,0-5.94-23.83,.07-47.67,.15-71.5,.22-3.82,.01-3.83,5.92,0,5.94,22.52,.12,45.04,.24,67.56,.36V1.74c-12,.23-24.03,.28-36.02,.85s-23.66,2.05-35.53,.89v5.94c25.04-.04,50.07-.07,75.11-.11,3.82,0,3.83-5.95,0-5.94-25.04,.04-50.07,.07-75.11,.11-3.89,0-3.74,5.58,0,5.94,11.87,1.16,23.67-.34,35.53-.89s24.02-.61,36.02-.85c3.82-.07,3.83-5.92,0-5.94-22.52-.12-45.04-.24-67.56-.36V7.32c23.83-.07,47.67-.15,71.5-.22V1.16c-22.18,.15-44.36,.29-66.54,.44-3.12,.02-3.81,3.89-1.5,5.53,3.43,2.44,8.81,.96,12.71,.85,5.88-.17,11.76-.08,17.64,0,11.38,.16,22.69,.15,33.98-1.39,3.35-.46,2.49-5.89-.79-5.83-19.55,.32-39.09,.64-58.64,.96-3.82,.06-3.83,5.86,0,5.94,19.75,.42,39.49-.14,59.19-1.68,3.77-.29,3.87-5.86,0-5.94C62.74-.34,44.72,3,26.68,.81c-3.79-.46-3.75,5.48,0,5.94h0Z"/>
        </g>
        <g class="cls-5">
          <path class="cls-7" d="M9.19,15.12c25.72-1.26,51.47-1.13,77.17,.41l-2.56-4.47c-1.18,2.31-9.13,1.05-11.06,1.02-3.9-.04-7.79-.09-11.69-.13-7.79-.09-15.58-.18-23.38-.26s-15.58-.18-23.38-.26c-3.71-.04-9.9-.3-9.64,5.03,.08,1.61,1.3,2.97,2.97,2.97,13.19,.03,26.38,.06,39.57,.09,6.27,.01,12.53,.03,18.8,.04,3.07,0,6.16,.04,9.22-.22,2.38-.2,7.18-1.87,9.27-1.01l-1.77-4.36c-.12,.2-6.69-.05-7.69-.03-3.26,.05-6.51,.09-9.77,.12-6.51,.06-13.02,.1-19.53,.1-13.02,0-26.04-.13-39.06-.38-3.82-.07-3.82,5.87,0,5.94,14.97,.29,29.95,.42,44.92,.37,7.16-.02,14.32-.08,21.49-.18,4.35-.06,12.15,1.59,14.77-2.94,1.06-1.82-.03-3.64-1.77-4.36-1.89-.78-3.4-.49-5.35-.11-3.68,.72-7.23,1.08-10.99,1.12-6.85,.07-13.7-.02-20.55-.03-13.85-.03-27.7-.06-41.55-.09l2.97,2.97c.08,1.65,2.1,.89,3.7,.91,1.95,.02,3.9,.04,5.84,.07,3.9,.04,7.79,.09,11.69,.13,7.47,.08,14.94,.17,22.4,.25s14.94,.17,22.4,.25c4.45,.05,9.92,.62,12.29-4.01,1.06-2.07-.26-4.33-2.56-4.47-25.7-1.54-51.45-1.68-77.17-.41-3.8,.19-3.83,6.13,0,5.94h0Z"/>
        </g>
        <g class="cls-5">
          <path class="cls-6" d="M8.06,24.58c25.48-1.44,50.99-1.72,76.5-.84l-2.86-3.76c-.56,2.85-16.52,1.68-18.82,1.71-6.57,.09-13.13,.1-19.7,.07-12.44-.05-25.14,.42-37.55-.68v5.94c25.88,.19,51.76,.38,77.64,.58,3.82,.03,3.83-5.91,0-5.94-25.88-.19-51.76-.38-77.64-.58-3.88-.03-3.75,5.61,0,5.94,15.63,1.38,31.71,.74,47.4,.69,7.87-.03,15.76-.07,23.63-.38,4.3-.17,9.75-.66,10.76-5.77,.38-1.93-.83-3.69-2.86-3.76-25.5-.89-51.02-.61-76.5,.84-3.8,.22-3.83,6.16,0,5.94h0Z"/>
        </g>
        <g class="cls-5">
          <path class="cls-7" d="M6.4,39.75c25.72-1.26,51.47-1.13,77.17,.41l-2.56-4.47c-1.18,2.31-9.13,1.05-11.06,1.02-3.9-.04-7.79-.09-11.69-.13-7.79-.09-15.58-.18-23.38-.26s-15.58-.18-23.38-.26c-3.71-.04-9.9-.3-9.64,5.03,.08,1.61,1.3,2.97,2.97,2.97,13.19,.03,26.38,.06,39.57,.09,6.27,.01,12.53,.03,18.8,.04,3.07,0,6.16,.04,9.22-.22,2.38-.2,7.18-1.87,9.27-1.01l-1.77-4.36c-.12,.2-6.69-.05-7.69-.03-3.26,.05-6.51,.09-9.77,.12-6.51,.06-13.02,.1-19.53,.1-13.02,0-26.04-.13-39.06-.38-3.82-.07-3.82,5.87,0,5.94,14.97,.29,29.95,.42,44.92,.37,7.16-.02,14.32-.08,21.49-.18,4.35-.06,12.15,1.59,14.77-2.94,1.06-1.82-.03-3.64-1.77-4.36-1.89-.78-3.4-.49-5.35-.11-3.68,.72-7.23,1.08-10.99,1.12-6.85,.07-13.7-.02-20.55-.03-13.85-.03-27.7-.06-41.55-.09l2.97,2.97c.08,1.65,2.1,.89,3.7,.91,1.95,.02,3.9,.04,5.84,.07,3.9,.04,7.79,.09,11.69,.13,7.47,.08,14.94,.17,22.4,.25s14.94,.17,22.4,.25c4.45,.05,9.92,.62,12.29-4.01,1.06-2.07-.26-4.33-2.56-4.47-25.7-1.54-51.45-1.68-77.17-.41-3.8,.19-3.83,6.13,0,5.94h0Z"/>
        </g>
        <g class="cls-5">
          <path class="cls-6" d="M5.29,50.5c25.48-1.44,50.99-1.72,76.5-.84l-2.86-3.76c-.56,2.85-16.52,1.68-18.82,1.71-6.57,.09-13.13,.1-19.7,.07-12.44-.05-25.14,.42-37.55-.68v5.94c25.88,.19,51.76,.38,77.64,.58,3.82,.03,3.83-5.91,0-5.94-25.88-.19-51.76-.38-77.64-.58-3.88-.03-3.75,5.61,0,5.94,15.63,1.38,31.71,.74,47.4,.69,7.87-.03,15.76-.07,23.63-.38,4.3-.17,9.75-.66,10.76-5.77,.38-1.93-.83-3.69-2.86-3.76-25.5-.89-51.02-.61-76.5,.84-3.8,.22-3.83,6.16,0,5.94h0Z"/>
        </g>
        <g class="cls-5">
          <path class="cls-3" d="M6.93,32.71c25.84-.03,51.9,.86,77.7-.92l-2.1-5.07c-4.26,3.81-13.04,2.43-18.35,2.58-6.25,.17-12.49,.35-18.74,.52s-12.49,.35-18.74,.52-13.98,1.4-20.33-.16l-.79,5.83c13.8,.18,27.59,.27,41.39,.27,12.34,0,25.98,1.54,38.02-1.59,3.7-.96,2.13-6.69-1.58-5.73-6.1,1.58-12.45,1.28-18.7,1.32-6.57,.04-13.14,.06-19.71,.06-13.14,0-26.28-.1-39.42-.27-3.32-.04-4.07,5.03-.79,5.83,6.99,1.72,14.77,.57,21.91,.37,7.56-.21,15.12-.42,22.69-.63s15.12-.41,22.69-.63c5.4-.16,10.46-.34,14.66-4.1,1.86-1.67,.44-5.25-2.1-5.07-25.8,1.79-51.85,.89-77.7,.92-3.82,0-3.83,5.94,0,5.94h0Z"/>
        </g>
        <g class="cls-1">
          <path class="cls-2" d="M7.57,10.32c10.23-1.62,20.61-2.05,30.96-1.99s20.73,.56,31.09,.96c5.88,.23,11.75,.45,17.63,.68,.35,.01,.35-.53,0-.54-10.49-.4-20.98-.82-31.47-1.21s-20.79-.67-31.17-.15c-5.75,.29-11.49,.83-17.18,1.73-.34,.05-.2,.57,.14,.52h0Z"/>
        </g>
        <g class="cls-1">
          <path class="cls-2" d="M5.82,18.67c10.33-.07,20.65-.13,30.98-.2s20.65-.13,30.98-.2c5.83-.04,11.66-.08,17.49-.11,.35,0,.35-.54,0-.54-10.33,.07-20.65,.13-30.98,.2l-30.98,.2c-5.83,.04-11.66,.08-17.49,.11-.35,0-.35,.54,0,.54h0Z"/>
        </g>
        <g class="cls-1">
          <path class="cls-2" d="M5.01,28.04c10.41-.83,20.85-1.4,31.29-1.72s20.89-.38,31.34-.19c5.89,.11,11.77,.3,17.65,.57,.35,.02,.35-.52,0-.54-10.44-.48-20.88-.71-31.33-.68s-20.89,.31-31.32,.86c-5.88,.31-11.75,.69-17.62,1.16-.34,.03-.35,.57,0,.54h0Z"/>
        </g>
        <g class="cls-1">
          <path class="cls-2" d="M4.41,36.18c10.39-.2,20.77-.29,31.16-.28s20.86,.14,31.28,.37c5.86,.13,11.71,.3,17.57,.5,.35,.01,.35-.53,0-.54-10.38-.35-20.77-.6-31.15-.74s-20.86-.17-31.29-.09c-5.86,.04-11.72,.12-17.57,.24-.35,0-.35,.55,0,.54h0Z"/>
        </g>
        <g class="cls-1">
          <path class="cls-2" d="M4.08,45.14c10.32-1.13,20.71-1.62,31.09-1.71s20.8,.21,31.19,.66c5.86,.25,11.71,.55,17.56,.85,.35,.02,.35-.52,0-.54-10.39-.53-20.78-1.05-31.18-1.33s-20.78-.3-31.16,.19c-5.84,.27-11.68,.71-17.5,1.34-.34,.04-.35,.58,0,.54h0Z"/>
        </g>
      </g>
      <g class="cls-5">
        <path class="cls-13" d="M33.49,3.29c-.4,.05-.8,.04-1.2,0-.1-.01-.2-.03-.3-.04-.35,1.84-.52,3.71-.68,5.57-.23,2.64-.46,5.29-.69,7.93-.97,11.15-1.93,22.31-2.9,33.46,.09,.03,.18,.07,.27,.1,.27,.09,.53,.18,.81,.25,.55,.16,1.1,.29,1.65,.42,.23,.06,.46,.12,.69,.18,.31-.28,.55-.57,.58-.85,.86-9.91,1.72-19.82,2.58-29.73,.42-4.87,.84-9.73,1.27-14.6,.09-.98,.18-1.98,.31-2.97-.43,.06-.87,.07-1.31,.08-.34,.1-.69,.17-1.07,.21Z"/>
        <path class="cls-13" d="M62.21,3.76c-.3,0-.62-.01-.93-.02,.95,5.18,.16,10.93-.23,15.93-.85,10.9-1.69,21.8-2.54,32.7,.74-.16,1.48-.33,2.2-.53,.52-.15,1.04-.31,1.54-.5,.04-.02,.08-.03,.12-.05,.16-.19,.27-.38,.28-.56,.83-10.64,1.65-21.29,2.48-31.93,.36-4.68,1.17-10.13,.71-15.22-1.21,.19-2.47,.21-3.65,.2Z"/>
      </g>
      <g class="cls-10">
        <path class="cls-3" d="M34.16,2.79c-.48-.03-.97-.09-1.45-.15-.22,2.2,.28,4.42,.2,6.63-.09,2.5-.62,4.96-.98,7.42-.84,5.75-1.07,11.56-1.24,17.36-.17,5.67-.34,11.35-.51,17.02,.5,.07,.99,.18,1.47,.32,.29-9.64,.29-19.34,1.09-28.96,.2-2.36,.46-4.71,.83-7.05,.36-2.3,.82-4.6,.85-6.94,.03-1.89-.35-3.77-.25-5.65Z"/>
        <path class="cls-3" d="M63.08,3.54c0,.65-.02,1.29-.03,1.94-.04,2.25,.04,4.5-.11,6.75-.16,2.42-.4,4.85-.61,7.27-.94,10.85-1.87,21.69-2.81,32.54,.49-.11,.99-.21,1.48-.3,.9-10.45,1.8-20.9,2.7-31.35,.22-2.6,.47-5.2,.66-7.8,.18-2.42,.12-4.81,.16-7.23,.01-.62,.03-1.25,.03-1.87-.49,.04-.99,.06-1.49,.05Z"/>
      </g>
      <g class="cls-4">
        <path class="cls-8" d="M65.94,3.22c-.16-.09-.32-.17-.48-.25-.02,0-.03-.01-.04-.02-.06-.02-.13-.05-.2-.07-.32-.11-.65-.18-.98-.25-.07,0-.15-.01-.22-.02-.15-.01-.3-.02-.44-.02-.28,0-.57,.02-.85,.05-.08,.01-.3,.04-.35,.05-.18,.03-.35,.07-.52,.11-.21,.05-.41,.12-.62,.18-1.6,7.06-7.38,12.37-13.89,15.06-3.86,1.59-8.03,2.35-12.17,2.73-1.19,.11-3.47,.73-4.27-.49-.97-1.49-.78-3.69-.54-5.35,.61-4.29,3.08-8.15,6.06-11.2,.22-.22,.34-.44,.38-.64-.22-.15-.44-.3-.68-.42-.07-.03-.13-.07-.2-.1-.06,0-.1-.03-.12-.04-.09-.03-.17-.07-.25-.1-.25-.08-.5-.13-.76-.18-.03,0-.06,0-.09,0-.13-.01-.26-.02-.39-.02-.83-.03-1.65,.07-2.47,.17-3.02,3.18-5.42,6.98-6.31,11.32-.42,2.05-.59,4.47,.2,6.47,.95,2.41,3.32,3.45,5.76,3.68,2.45,.23,5.07-.15,7.5-.47,2.53-.34,5.07-.84,7.52-1.56,4.58-1.35,8.97-3.51,12.54-6.71,3.5-3.13,6.05-7.15,7.11-11.73-.08-.05-.17-.11-.25-.16Z"/>
      </g>
      <g class="cls-9">
        <path class="cls-3" d="M56.71,16.39c-.56-.3-1.1-.71-1.49-1.21-.33-.42-.55-.79-.75-1.29-.11-.29-.16-.58-.2-.89-.39,.17-.75,.46-1.03,.91-2.09,3.41-6.65,4.4-10.27,5.24-2.09,.48-14.48,3.08-13.06-3.06-1.32,0-2.61-.51-3.87-.88-.21-.06-.39-.16-.55-.28-3.89,15.9,25.83,9.81,31.49,1.59-.08-.04-.17-.07-.26-.12Z"/>
      </g>
    </g>
  </g>
</svg>