<svg width="48" height="48" viewBox="0 0 48 48" fill="none" xmlns="http://www.w3.org/2000/svg">
<mask id="path-1-inside-1_69_278" fill="white">
<path fill-rule="evenodd" clip-rule="evenodd" d="M48 24C48 37.2548 37.2548 48 24 48C10.7452 48 0 37.2548 0 24C0 10.7452 10.7452 0 24 0C37.2548 0 48 10.7452 48 24ZM26.24 25.28V38.24H21.12V25.28H16.8V20.16H21.12V16.48C21.12 12.16 23.84 9.75996 27.68 9.75996C28.8362 9.75996 29.9233 9.82901 30.6693 9.87639C31.0588 9.90113 31.3553 9.91996 31.52 9.91996V14.56H28.8C26.72 14.56 26.24 15.52 26.24 16.96V20.16H31.2L30.56 25.28H26.24Z"/>
</mask>
<path d="M26.24 38.24V40.24H28.24V38.24H26.24ZM26.24 25.28V23.28H24.24V25.28H26.24ZM21.12 38.24H19.12V40.24H21.12V38.24ZM21.12 25.28H23.12V23.28H21.12V25.28ZM16.8 25.28H14.8V27.28H16.8V25.28ZM16.8 20.16V18.16H14.8V20.16H16.8ZM21.12 20.16V22.16H23.12V20.16H21.12ZM30.6693 9.87639L30.5425 11.8724L30.5425 11.8724L30.6693 9.87639ZM31.52 9.91996H33.52V7.91996H31.52V9.91996ZM31.52 14.56V16.56H33.52V14.56H31.52ZM26.24 20.16H24.24V22.16H26.24V20.16ZM31.2 20.16L33.1845 20.408L33.4656 18.16H31.2V20.16ZM30.56 25.28V27.28H32.3256L32.5445 25.528L30.56 25.28ZM24 50C38.3594 50 50 38.3594 50 24H46C46 36.1503 36.1503 46 24 46V50ZM-2 24C-2 38.3594 9.6406 50 24 50V46C11.8497 46 2 36.1503 2 24H-2ZM24 -2C9.6406 -2 -2 9.6406 -2 24H2C2 11.8497 11.8497 2 24 2V-2ZM50 24C50 9.6406 38.3594 -2 24 -2V2C36.1503 2 46 11.8497 46 24H50ZM28.24 38.24V25.28H24.24V38.24H28.24ZM21.12 40.24H26.24V36.24H21.12V40.24ZM19.12 25.28V38.24H23.12V25.28H19.12ZM16.8 27.28H21.12V23.28H16.8V27.28ZM14.8 20.16V25.28H18.8V20.16H14.8ZM21.12 18.16H16.8V22.16H21.12V18.16ZM19.12 16.48V20.16H23.12V16.48H19.12ZM27.68 7.75996C25.3432 7.75996 23.1625 8.49681 21.5581 10.0735C19.9457 11.6581 19.12 13.8899 19.12 16.48H23.12C23.12 14.75 23.6542 13.6218 24.3619 12.9264C25.0775 12.2231 26.1768 11.76 27.68 11.76V7.75996ZM30.796 7.88041C30.0525 7.83318 28.9072 7.75996 27.68 7.75996V11.76C28.7652 11.76 29.7942 11.8248 30.5425 11.8724L30.796 7.88041ZM31.52 7.91996C31.4364 7.91996 31.2251 7.90766 30.796 7.88041L30.5425 11.8724C30.8925 11.8946 31.2742 11.92 31.52 11.92V7.91996ZM33.52 14.56V9.91996H29.52V14.56H33.52ZM28.8 16.56H31.52V12.56H28.8V16.56ZM28.24 16.96C28.24 16.6988 28.2632 16.5561 28.2808 16.4897C28.2948 16.4368 28.2904 16.4874 28.2231 16.5618C28.1514 16.641 28.0978 16.6489 28.1549 16.6298C28.2299 16.6048 28.423 16.56 28.8 16.56V12.56C27.5045 12.56 26.1833 12.8543 25.2569 13.8781C24.3656 14.8633 24.24 16.0979 24.24 16.96H28.24ZM28.24 20.16V16.96H24.24V20.16H28.24ZM31.2 18.16H26.24V22.16H31.2V18.16ZM32.5445 25.528L33.1845 20.408L29.2154 19.9119L28.5754 25.0319L32.5445 25.528ZM26.24 27.28H30.56V23.28H26.24V27.28Z" fill="currentColor" mask="url(#path-1-inside-1_69_278)"/>
</svg>
