<svg width="48" height="48" viewBox="0 0 48 48" fill="none" xmlns="http://www.w3.org/2000/svg">
<path d="M24.27 11C15.84 11 9 16.33 9 22.91C9.0377 25.5799 10.1137 28.1301 12 30.02L9.57 35.49C9.52737 35.5824 9.5128 35.6853 9.52807 35.7859C9.54335 35.8865 9.5878 35.9804 9.65594 36.056C9.72407 36.1316 9.81288 36.1855 9.91137 36.2111C10.0099 36.2367 10.1137 36.2329 10.21 36.2L17.95 33.76C19.9802 34.4745 22.1177 34.8364 24.27 34.83C32.71 34.83 39.55 29.49 39.55 22.91C39.55 16.33 32.68 11 24.27 11Z" stroke="currentColor" stroke-width="1.5" stroke-miterlimit="10"/>
<path d="M29.63 17.94C26.15 15.64 24.27 21.5 24.27 21.5C24.27 21.5 22.39 15.64 18.91 17.94C12.27 22.32 24.27 29.55 24.27 29.55C24.27 29.55 36.27 22.32 29.63 17.94Z" stroke="currentColor" stroke-width="1.5" stroke-miterlimit="10"/>
</svg>
