<svg width="48" height="48" viewBox="0 0 48 48" fill="none" xmlns="http://www.w3.org/2000/svg">
<path d="M24.0701 11.5C24.2764 11.4989 24.4809 11.5391 24.6715 11.6181C24.8621 11.6971 25.035 11.8133 25.1801 11.96L35.1801 21.96C35.3268 22.1051 35.4431 22.278 35.5221 22.4686C35.601 22.6592 35.6412 22.8637 35.6401 23.07V35.81C35.6401 35.8691 35.6285 35.9276 35.6059 35.9822C35.5833 36.0368 35.5501 36.0864 35.5083 36.1282C35.4665 36.17 35.4169 36.2031 35.3623 36.2258C35.3077 36.2484 35.2492 36.26 35.1901 36.26H12.9301C12.8108 36.26 12.6963 36.2126 12.6119 36.1282C12.5275 36.0438 12.4801 35.9294 12.4801 35.81V23.09C12.4791 22.8837 12.5192 22.6792 12.5982 22.4886C12.6772 22.298 12.7934 22.1251 12.9401 21.98L22.9401 11.98C23.0859 11.8273 23.2613 11.7059 23.4556 11.6234C23.6499 11.5408 23.859 11.4988 24.0701 11.5M24.0701 10C23.6669 9.99913 23.2675 10.0782 22.895 10.2327C22.5225 10.3872 22.1844 10.614 21.9001 10.9L11.9001 20.9C11.6118 21.1826 11.3835 21.5204 11.2289 21.8932C11.0742 22.2661 10.9964 22.6664 11.0001 23.07V35.81C11 36.3319 11.2038 36.8332 11.5681 37.2068C11.9325 37.5805 12.4284 37.797 12.9501 37.81H35.2101C35.7406 37.81 36.2493 37.5993 36.6243 37.2242C36.9994 36.8491 37.2101 36.3404 37.2101 35.81V23.09C37.2138 22.6864 37.136 22.2861 36.9814 21.9132C36.8267 21.5404 36.5984 21.2026 36.3101 20.92L26.3101 10.92C26.0259 10.634 25.6877 10.4072 25.3153 10.2527C24.9428 10.0982 24.5434 10.0191 24.1401 10.02L24.0701 10Z" fill="currentColor"/>
<path d="M18.9501 37V29.62C18.9501 28.2621 19.4896 26.9598 20.4497 25.9996C21.4099 25.0394 22.7122 24.5 24.0701 24.5V24.5C25.428 24.5 26.7303 25.0394 27.6905 25.9996C28.6507 26.9598 29.1901 28.2621 29.1901 29.62V37" stroke="currentColor" stroke-width="1.5" stroke-linecap="round" stroke-linejoin="round"/>
<path d="M25.9501 33.01C26.9221 33.01 27.7101 32.222 27.7101 31.25C27.7101 30.278 26.9221 29.49 25.9501 29.49C24.9781 29.49 24.1901 30.278 24.1901 31.25C24.1901 32.222 24.9781 33.01 25.9501 33.01Z" fill="currentColor"/>
</svg>
