<svg width="48" height="48" viewBox="0 0 48 48" fill="none" xmlns="http://www.w3.org/2000/svg">
<path d="M23.79 10.75C15.36 10.75 8.52002 16.08 8.52002 22.66C8.55772 25.3299 9.63376 27.8801 11.52 29.77L9.08002 35.24C9.03873 35.3315 9.02478 35.4329 9.03986 35.5321C9.05494 35.6313 9.0984 35.724 9.165 35.7991C9.2316 35.8742 9.31849 35.9283 9.4152 35.9551C9.51191 35.9819 9.61429 35.9801 9.71001 35.95L17.54 33.51C19.5607 34.2211 21.6878 34.583 23.83 34.58C32.27 34.58 39.11 29.24 39.11 22.66C39.11 16.08 32.23 10.75 23.79 10.75Z" stroke="currentColor" stroke-width="1.5" stroke-miterlimit="10"/>
<path d="M29.18 17.69C25.7 15.39 23.82 21.25 23.82 21.25C23.82 21.25 21.94 15.39 18.46 17.69C11.8 22.07 23.82 29.3 23.82 29.3C23.82 29.3 35.83 22.07 29.18 17.69Z" fill="currentColor"/>
</svg>
