<svg width="48" height="48" viewBox="0 0 48 48" fill="none" xmlns="http://www.w3.org/2000/svg">
<g clip-path="url(#clip0_5_918)">
<path d="M25.69 11.5C25.8963 11.4989 26.1008 11.5391 26.2914 11.6181C26.482 11.6971 26.6549 11.8133 26.8 11.96L36.8 21.96C36.9467 22.1051 37.0629 22.278 37.1419 22.4686C37.2209 22.6592 37.2611 22.8637 37.26 23.07V35.81C37.26 35.8691 37.2484 35.9276 37.2257 35.9822C37.2031 36.0368 37.17 36.0864 37.1282 36.1282C37.0864 36.17 37.0368 36.2031 36.9822 36.2257C36.9276 36.2484 36.8691 36.26 36.81 36.26H14.55C14.4307 36.26 14.3162 36.2126 14.2318 36.1282C14.1474 36.0438 14.1 35.9293 14.1 35.81V23.09C14.0989 22.8837 14.1391 22.6792 14.2181 22.4886C14.2971 22.298 14.4133 22.1251 14.56 21.98L24.56 11.98C24.7057 11.8273 24.8811 11.7059 25.0754 11.6233C25.2698 11.5408 25.4789 11.4988 25.69 11.5M25.69 10C25.2868 9.99912 24.8873 10.0782 24.5149 10.2327C24.1424 10.3872 23.8042 10.614 23.52 10.9L13.52 20.9C13.2317 21.1825 13.0034 21.5204 12.8488 21.8932C12.6941 22.2661 12.6163 22.6664 12.62 23.07V35.81C12.6198 36.3319 12.8237 36.8332 13.188 37.2068C13.5523 37.5805 14.0483 37.797 14.57 37.81H36.83C37.3604 37.81 37.8691 37.5993 38.2442 37.2242C38.6193 36.8491 38.83 36.3404 38.83 35.81V23.09C38.8337 22.6864 38.7559 22.2861 38.6012 21.9132C38.4466 21.5404 38.2183 21.2025 37.93 20.92L27.93 10.92C27.6457 10.634 27.3076 10.4072 26.9351 10.2527C26.5627 10.0982 26.1632 10.0191 25.76 10.02L25.69 10Z" fill="currentColor"/>
<path d="M20.57 37V29.62C20.57 28.2621 21.1094 26.9598 22.0696 25.9996C23.0298 25.0394 24.3321 24.5 25.69 24.5V24.5C27.0479 24.5 28.3502 25.0394 29.3104 25.9996C30.2706 26.9598 30.81 28.2621 30.81 29.62V37" stroke="currentColor" stroke-width="1.5" stroke-linecap="round" stroke-linejoin="round"/>
<path d="M20.23 37.76V29.93C20.2704 28.5312 19.7538 27.1735 18.7938 26.1554C17.8337 25.1372 16.5088 24.5418 15.11 24.5V24.5C13.713 24.5444 12.3906 25.141 11.4327 26.1588C10.4748 27.1767 9.95958 28.5329 10 29.93V37.76" fill="currentColor"/>
</g>
<defs>
<clipPath id="clip0_5_918">
<rect width="28.79" height="27.76" fill="#000000" transform="translate(10 10)"/>
</clipPath>
</defs>
</svg>
