<svg width="48" height="48" viewBox="0 0 48 48" fill="none" xmlns="http://www.w3.org/2000/svg">
<path d="M24.02 11.67C26.294 11.6626 28.4827 12.5348 30.1285 14.1041C31.7742 15.6734 32.7493 17.8183 32.85 20.09C32.8613 20.402 32.9697 20.7026 33.16 20.95C34.7252 22.9473 35.5739 25.4125 35.57 27.95C35.4816 30.9558 34.2254 33.8088 32.0681 35.9036C29.9107 37.9983 27.022 39.1701 24.015 39.1701C21.008 39.1701 18.1193 37.9983 15.9619 35.9036C13.8046 33.8088 12.5484 30.9558 12.46 27.95C12.4597 25.4115 13.3119 22.9464 14.88 20.95C15.0703 20.7026 15.1787 20.402 15.19 20.09C15.2882 17.8174 16.2626 15.6711 17.9089 14.1013C19.5551 12.5315 21.7453 11.6602 24.02 11.67ZM24.02 10.17C21.372 10.1749 18.8273 11.1984 16.9135 13.0285C14.9996 14.8585 13.8633 17.3549 13.74 20C11.9651 22.2623 11.0004 25.0546 11 27.93C11.0941 31.3299 12.5108 34.5589 14.9488 36.9304C17.3869 39.3019 20.6538 40.6287 24.055 40.6287C27.4562 40.6287 30.7231 39.3019 33.1612 36.9304C35.5992 34.5589 37.0159 31.3299 37.11 27.93C37.1133 25.0557 36.152 22.2633 34.38 20C34.2639 17.3426 33.1253 14.833 31.2021 12.9955C29.2789 11.158 26.7199 10.1349 24.06 10.14L24.02 10.17Z" fill="currentColor"/>
<path d="M27.69 22.9501H19.74V24.1001H27.69V22.9501Z" fill="currentColor"/>
<path d="M23.71 37.0601C26.2892 37.0601 28.38 34.9692 28.38 32.39C28.38 29.8109 26.2892 27.72 23.71 27.72C21.1308 27.72 19.04 29.8109 19.04 32.39C19.04 34.9692 21.1308 37.0601 23.71 37.0601Z" fill="currentColor"/>
<path d="M23.52 7.05005H24.52C24.7667 7.05005 25.0032 7.14804 25.1776 7.32245C25.352 7.49686 25.45 7.73339 25.45 7.98004V11.05H22.64V7.98004C22.6397 7.74181 22.7308 7.51255 22.8945 7.33951C23.0582 7.16647 23.2821 7.06286 23.52 7.05005Z" fill="currentColor"/>
<path d="M18.53 18.2101L20.94 19.3901L18.53 20.4601" stroke="currentColor" stroke-linejoin="round"/>
<path d="M28.89 18.2101L26.49 19.3901L28.89 20.4601" stroke="currentColor" stroke-linejoin="round"/>
</svg>
