<svg width="48" height="48" viewBox="0 0 48 48" fill="none" xmlns="http://www.w3.org/2000/svg">
<path d="M23.99 9.86C25.5627 9.85666 27.1055 10.2897 28.4467 11.1109C29.7879 11.9322 30.875 13.1094 31.5871 14.5117C32.2991 15.9139 32.6081 17.4863 32.4797 19.0537C32.3514 20.6212 31.7907 22.1222 30.86 23.39C30.8553 23.4097 30.8553 23.4303 30.86 23.45C29.7141 24.9364 28.7879 26.5799 28.11 28.33C27.77 29.1966 27.4894 30.0853 27.27 30.99H20.74C20.5085 30.0437 20.2111 29.1148 19.85 28.21C19.1868 26.5329 18.3131 24.9468 17.25 23.49L17.17 23.39C16.5221 22.5435 16.0372 21.5838 15.74 20.56C15.5566 19.8444 15.4625 19.1088 15.46 18.37C15.4627 16.1138 16.3601 13.9508 17.9555 12.3554C19.5508 10.7601 21.7138 9.86265 23.97 9.86M23.97 8.35999C22.1213 8.35754 20.3081 8.86762 18.7318 9.83357C17.1555 10.7995 15.8778 12.1836 15.0407 13.8319C14.2035 15.4802 13.8397 17.3284 13.9897 19.171C14.1396 21.0137 14.7974 22.7787 15.89 24.27C16.9156 25.6512 17.7561 27.1607 18.39 28.76C18.8665 29.965 19.2216 31.2145 19.45 32.49H28.45C28.6649 31.2537 28.9999 30.0413 29.45 28.87C30.0989 27.2213 30.9776 25.6727 32.06 24.27C33.1526 22.7787 33.8104 21.0137 33.9604 19.171C34.1103 17.3284 33.7465 15.4802 32.9094 13.8319C32.0723 12.1836 30.7946 10.7995 29.2183 9.83357C27.642 8.86762 25.8288 8.35754 23.98 8.35999H23.97Z" fill="currentColor"/>
<path d="M26.74 39.64H21.28C20.7708 39.5796 20.3042 39.326 19.9767 38.9314C19.6492 38.5369 19.4857 38.0316 19.52 37.52V31.05H28.52V37.52C28.554 38.0347 28.3877 38.5426 28.056 38.9377C27.7243 39.3328 27.2528 39.5844 26.74 39.64Z" stroke="currentColor" stroke-miterlimit="10"/>
<path d="M21.01 35.11C22.0863 35.3934 23.1975 35.5213 24.31 35.49C25.2087 35.4698 26.1017 35.3422 26.97 35.11" stroke="currentColor" stroke-width="0.5" stroke-miterlimit="10" stroke-linecap="round"/>
<path d="M21.01 36.46C22.0863 36.7434 23.1975 36.8714 24.31 36.84C25.2082 36.8149 26.1007 36.6874 26.97 36.46" stroke="currentColor" stroke-width="0.5" stroke-miterlimit="10" stroke-linecap="round"/>
<path d="M16.8 19.88C17.5595 20.135 18.3829 20.1255 19.1364 19.8532C19.8898 19.5808 20.529 19.0616 20.95 18.38C21.1702 18.065 21.3222 17.7075 21.3962 17.3304C21.4703 16.9533 21.4647 16.5649 21.38 16.19C21.3207 16.0708 21.2382 15.9647 21.1373 15.8778C21.0364 15.7909 20.9192 15.725 20.7925 15.684C20.6658 15.6431 20.5323 15.6278 20.3996 15.6391C20.2669 15.6504 20.1379 15.6882 20.02 15.75C18.71 16.37 19.16 18.75 20.08 19.48C20.3624 19.6892 20.6845 19.8387 21.0265 19.9194C21.3685 20.0001 21.7234 20.0104 22.0696 19.9496C22.4157 19.8888 22.7459 19.7582 23.0399 19.5657C23.334 19.3732 23.5858 19.1229 23.78 18.83C24.36 18.04 24.9 15.83 23.26 15.83C21.62 15.83 21.79 18.48 22.4 19.47C22.6097 19.7518 22.8792 19.9836 23.1891 20.1489C23.499 20.3142 23.8417 20.4088 24.1925 20.426C24.5433 20.4432 24.8936 20.3826 25.2182 20.2484C25.5428 20.1142 25.8337 19.9099 26.07 19.65C26.87 18.85 27.86 16.51 26.48 15.78C24.89 14.94 24.73 17.93 25.17 18.78C25.61 19.63 26.66 19.64 27.48 19.65C28.598 19.6509 29.7053 19.4335 30.74 19.01C31.03 18.89 30.91 18.41 30.61 18.53C29.6076 18.926 28.5377 19.123 27.46 19.11C26.9033 19.1685 26.342 19.0569 25.85 18.79C25.6745 18.6004 25.5459 18.3722 25.4747 18.1238C25.4035 17.8755 25.3916 17.6138 25.44 17.36C25.4406 17.131 25.4675 16.9029 25.52 16.68C25.62 16.33 25.86 16.06 26.28 16.22C26.7 16.38 26.62 16.9 26.61 17.16C26.5886 17.4206 26.5417 17.6785 26.47 17.93C26.3599 18.4522 26.0881 18.9265 25.6932 19.2855C25.2983 19.6446 24.8003 19.8701 24.27 19.93C22.99 19.93 22.45 18.83 22.42 17.69C22.42 17.1 22.8 15.89 23.64 16.46C24.08 16.76 23.83 17.62 23.64 17.98C23.4685 18.4283 23.1637 18.8133 22.7669 19.0833C22.37 19.3532 21.9 19.4952 21.42 19.49C20.8966 19.411 20.4258 19.1277 20.1109 18.7022C19.796 18.2767 19.6626 17.7437 19.74 17.22C19.7318 17.0298 19.7682 16.8402 19.8463 16.6666C19.9245 16.493 20.0421 16.34 20.19 16.22C20.7 15.9 21 16.5 20.93 16.98C20.8664 17.4219 20.7049 17.8441 20.4574 18.2157C20.2099 18.5872 19.8826 18.8989 19.4993 19.1279C19.1161 19.3569 18.6865 19.4975 18.242 19.5394C17.7975 19.5812 17.3493 19.5234 16.93 19.37C16.62 19.27 16.49 19.76 16.79 19.85L16.8 19.88Z" fill="currentColor"/>
</svg>
