<svg width="48" height="48" viewBox="0 0 48 48" fill="none" xmlns="http://www.w3.org/2000/svg">
<path d="M22.07 27.02L24.2 36.63C24.3073 37.1113 24.2191 37.6156 23.9546 38.0319C23.6902 38.4482 23.2713 38.7425 22.79 38.85L20.03 39.47C19.5474 39.5743 19.0432 39.4835 18.6274 39.2175C18.2115 38.9515 17.9177 38.5318 17.81 38.05L15.68 28.44" stroke="currentColor" stroke-miterlimit="10"/>
<path d="M12.4535 27.7957C10.9522 26.9025 9.8649 25.4523 9.42831 23.7612C9.10659 22.0477 9.47592 20.2763 10.456 18.8339C11.3479 17.5214 12.6794 16.5788 14.2016 16.1696L16.9822 28.6268C15.4272 28.8997 13.8195 28.6083 12.4535 27.7957Z" stroke="currentColor"/>
<path d="M16.74 15.75C23.523 15.252 29.9394 12.479 34.95 7.88L39.26 27.33C36.2917 26.2345 33.154 25.6692 29.99 25.66C26.3502 25.652 22.7539 26.4512 19.46 28L16.74 15.75Z" fill="currentColor"/>
<path d="M34.63 8.81998L38.57 26.56C35.7992 25.6401 32.8995 25.1675 29.98 25.16C28.2534 25.1571 26.531 25.3313 24.84 25.68C23.1231 26.046 21.4479 26.5854 19.84 27.29L18.73 22.29L17.34 16.19C23.7349 15.6051 29.7838 13.0232 34.63 8.80997M35.24 6.90997C30.0805 11.9083 23.2925 14.8799 16.12 15.28L19.12 28.72C21.0223 27.7741 23.0391 27.0783 25.12 26.65C26.7452 26.3144 28.4005 26.1469 30.06 26.15C33.4901 26.1754 36.884 26.8541 40.06 28.15C38.4867 21.0833 36.92 14.0133 35.36 6.93997L35.24 6.90997Z" fill="currentColor"/>
</svg>
