<svg width="48" height="48" viewBox="0 0 48 48" fill="none" xmlns="http://www.w3.org/2000/svg">
<path d="M10.89 22.72C15.0578 24.3817 19.5032 25.2368 23.99 25.24H24.35C28.7183 25.1863 33.0397 24.3322 37.1 22.72V31.83C37.1714 33.0301 36.7659 34.2098 35.9718 35.1125C35.1778 36.0152 34.0594 36.5678 32.86 36.65H15.13C13.9306 36.5678 12.8122 36.0152 12.0181 35.1125C11.2241 34.2098 10.8186 33.0301 10.89 31.83V22.72ZM10.53 21C10.3723 21.0077 10.2177 21.0464 10.0751 21.1139C9.93241 21.1814 9.80447 21.2764 9.69857 21.3935C9.59268 21.5105 9.51091 21.6473 9.45796 21.796C9.405 21.9447 9.38191 22.1024 9.38999 22.26V31.79C9.31656 33.3884 9.8793 34.9507 10.955 36.1352C12.0308 37.3196 13.5319 38.0297 15.13 38.11H32.86C34.458 38.0297 35.9592 37.3196 37.0349 36.1352C38.1107 34.9507 38.6734 33.3884 38.6 31.79V22.3C38.6122 22.1394 38.5923 21.978 38.5413 21.8253C38.4903 21.6725 38.4094 21.5315 38.3032 21.4104C38.1971 21.2893 38.0678 21.1907 37.923 21.1202C37.7782 21.0497 37.6208 21.0089 37.46 21C37.3192 20.9975 37.1795 21.0248 37.05 21.08C33.0218 22.7695 28.7076 23.6724 24.34 23.74H23.99C19.5073 23.7285 15.0703 22.8384 10.93 21.12C10.8036 21.0661 10.6674 21.0389 10.53 21.04V21Z" fill="currentColor"/>
<path d="M12.43 22C12.61 6.22 35.17 5.93 35.55 22" stroke="currentColor" stroke-miterlimit="10"/>
<path d="M19.74 12.63C22.52 11.25 25.74 10.75 28.35 12.44C28.6948 12.6402 29.105 12.6953 29.4904 12.5931C29.8758 12.4909 30.2048 12.2398 30.405 11.895C30.6052 11.5502 30.6603 11.14 30.5581 10.7546C30.4559 10.3692 30.2048 10.0402 29.86 9.84C26.25 7.55 21.86 8.23 18.22 10.04C18.0499 10.1398 17.9012 10.2721 17.7823 10.4294C17.6633 10.5867 17.5766 10.7659 17.5269 10.9567C17.4772 11.1475 17.4656 11.3463 17.4927 11.5416C17.5199 11.7369 17.5852 11.9249 17.685 12.095C17.7848 12.2651 17.9171 12.4138 18.0744 12.5327C18.2317 12.6516 18.4109 12.7384 18.6017 12.7881C18.7925 12.8378 18.9913 12.8494 19.1866 12.8223C19.3819 12.7951 19.5699 12.7298 19.74 12.63Z" fill="currentColor"/>
<path d="M19.27 24.83C19.4234 28.83 19.4034 32.83 19.21 36.83C19.21 37.15 19.69 37.15 19.71 36.83C19.8967 32.83 19.9167 28.83 19.77 24.83C19.77 24.51 19.26 24.51 19.27 24.83Z" fill="currentColor"/>
<path d="M28.1 25L27.96 36.72C27.96 36.7863 27.9864 36.8499 28.0332 36.8968C28.0801 36.9437 28.1437 36.97 28.21 36.97C28.2763 36.97 28.3399 36.9437 28.3868 36.8968C28.4337 36.8499 28.46 36.7863 28.46 36.72L28.6 25C28.6 24.9337 28.5737 24.8701 28.5268 24.8232C28.4799 24.7763 28.4163 24.75 28.35 24.75C28.2837 24.75 28.2201 24.7763 28.1732 24.8232C28.1264 24.8701 28.1 24.9337 28.1 25Z" fill="currentColor"/>
<path d="M11.61 26.82C19.9404 29.3487 28.8248 29.4112 37.19 27C37.2215 26.9908 37.2509 26.9755 37.2765 26.9549C37.3021 26.9344 37.3234 26.909 37.3392 26.8802C37.355 26.8514 37.3649 26.8198 37.3685 26.7872C37.3721 26.7545 37.3692 26.7215 37.36 26.69C37.3508 26.6585 37.3355 26.6291 37.3149 26.6035C37.2944 26.5779 37.269 26.5566 37.2402 26.5408C37.2114 26.525 37.1798 26.515 37.1472 26.5115C37.1145 26.5079 37.0815 26.5108 37.05 26.52C28.7733 28.9083 19.9818 28.8457 11.74 26.34C11.7085 26.3308 11.6754 26.3279 11.6428 26.3315C11.6102 26.335 11.5786 26.345 11.5498 26.3608C11.521 26.3766 11.4956 26.3979 11.475 26.4235C11.4545 26.4491 11.4392 26.4785 11.43 26.51C11.4208 26.5415 11.4179 26.5745 11.4215 26.6072C11.425 26.6398 11.435 26.6714 11.4508 26.7002C11.4666 26.729 11.4879 26.7544 11.5135 26.7749C11.5391 26.7955 11.5685 26.8108 11.6 26.82H11.61Z" fill="currentColor"/>
<path d="M10.46 31.55C19.0871 34.0539 28.2396 34.1162 36.9 31.73C36.9577 31.7077 37.0051 31.6649 37.033 31.6098C37.0609 31.5546 37.0674 31.4911 37.0513 31.4315C37.0351 31.3718 36.9974 31.3202 36.9455 31.2867C36.8935 31.2532 36.831 31.2401 36.77 31.25C28.1945 33.6113 19.1323 33.549 10.59 31.07C10.529 31.0601 10.4665 31.0732 10.4146 31.1067C10.3626 31.1402 10.325 31.1918 10.3088 31.2515C10.2926 31.3111 10.2992 31.3746 10.3271 31.4298C10.355 31.4849 10.4024 31.5277 10.46 31.55Z" fill="currentColor"/>
<path d="M32.42 21.34C32.08 19.51 29.6 18.09 27.29 18.55C26.6857 18.6506 26.1133 18.891 25.6185 19.2522C25.1236 19.6133 24.7201 20.0852 24.44 20.63C23.268 19.8532 21.9134 19.3957 20.5104 19.3028C19.1073 19.2098 17.7043 19.4846 16.44 20.1C15.15 20.8 14.44 22.2 15.37 23.32C15.8742 23.8793 16.5436 24.2633 17.2809 24.4162C18.0182 24.569 18.7851 24.4828 19.47 24.17L19.8 24H20.1H20.26H20.35C20.42 24.06 20.51 24.12 20.58 24.19C21.1976 24.6343 21.9392 24.8734 22.7 24.8734C23.4608 24.8734 24.2024 24.6343 24.82 24.19C25.0304 24.0042 25.2123 23.7886 25.36 23.55C25.714 23.8037 26.1152 23.9839 26.54 24.08C27.1201 24.2046 27.72 24.2046 28.3 24.08C28.9423 24.305 29.634 24.3499 30.3 24.21C31.0047 24.0705 31.6381 23.6883 32.09 23.13L32.39 22.57C32.545 22.1764 32.5557 21.7407 32.42 21.34Z" fill="currentColor"/>
</svg>
