<svg width="48" height="48" viewBox="0 0 48 48" fill="none" xmlns="http://www.w3.org/2000/svg">
<path d="M38.7768 24.3988C38.1863 24.3703 37.5945 24.3842 37.006 24.4402L23.5653 14.8456C23.2211 14.5763 22.8203 14.3886 22.3931 14.2965C21.9659 14.2045 21.5234 14.2106 21.0988 14.3143C20.6743 14.418 20.2788 14.6166 19.9421 14.8953C19.6054 15.1739 19.3363 15.5252 19.155 15.9229L11.8501 30.688C9.06116 31.534 7.87586 34.0985 8.10626 34.9996C8.58085 36.9424 16.6327 36.5712 26.0729 34.2137C35.5132 31.8562 42.7742 28.3738 42.2923 26.443C42.1188 25.7751 40.5272 24.5271 38.7768 24.3988Z" stroke="currentColor" stroke-width="1.5" stroke-miterlimit="10"/>
<path d="M12.5615 31.451C16.95 31.5832 21.3345 31.0808 25.5793 29.9593C29.4472 28.9346 33.1652 27.4105 36.6393 25.4253" stroke="currentColor" stroke-miterlimit="10" stroke-linecap="round"/>
<path d="M21.1925 14.9928L24.7753 29.2807" stroke="currentColor" stroke-width="0.5" stroke-miterlimit="10" stroke-linecap="round"/>
<path d="M21.1925 14.9928L19.4351 30.0911" stroke="currentColor" stroke-width="0.5" stroke-miterlimit="10" stroke-linecap="round"/>
<path d="M21.1925 14.9928L29.7254 27.5054" stroke="currentColor" stroke-width="0.5" stroke-miterlimit="10" stroke-linecap="round"/>
<path d="M21.1925 14.9928L15.0133 30.1521" stroke="currentColor" stroke-width="0.5" stroke-miterlimit="10" stroke-linecap="round"/>
<path d="M21.1925 14.9928L33.6776 25.4797" stroke="currentColor" stroke-width="0.5" stroke-miterlimit="10" stroke-linecap="round"/>
</svg>
