<svg width="48" height="48" viewBox="0 0 48 48" fill="none" xmlns="http://www.w3.org/2000/svg">
<path d="M24.0212 9.50006C25.5924 9.50037 27.1328 9.93564 28.4718 10.7576C29.8108 11.5797 30.8961 12.7563 31.6074 14.1572C32.3188 15.5582 32.6284 17.1287 32.502 18.6948C32.3756 20.2609 31.8181 21.7614 30.8912 23.0301C30.8912 23.0301 30.8912 23.03 30.8412 23.08C29.1287 25.3234 27.9087 27.903 27.2612 30.6501H20.7112C20.4831 29.704 20.1891 28.7751 19.8312 27.8701C19.1684 26.1907 18.2912 24.6042 17.2212 23.1501C17.2013 23.1145 17.1779 23.081 17.1512 23.0501C16.5281 22.1982 16.0671 21.2389 15.7912 20.2201C15.6023 19.5055 15.5082 18.7692 15.5112 18.0301C15.5099 16.9112 15.729 15.803 16.156 14.7688C16.5829 13.7346 17.2094 12.7947 17.9996 12.0026C18.7898 11.2105 19.7283 10.5818 20.7615 10.1524C21.7947 9.72304 22.9024 9.50138 24.0212 9.50006ZM24.0212 8.00006C22.4854 7.99679 20.9695 8.34733 19.591 9.02448C18.2125 9.70163 17.0085 10.6872 16.0724 11.9048C15.1362 13.1223 14.4931 14.5391 14.1929 16.0453C13.8927 17.5515 13.9434 19.1066 14.3412 20.5901C14.669 21.7845 15.2111 22.9095 15.9412 23.9101C16.9706 25.2888 17.8113 26.7988 18.4412 28.4001C18.925 29.6034 19.2836 30.8533 19.5112 32.1301H28.5112C28.7166 30.8916 29.0518 29.6783 29.5112 28.5101C30.1601 26.8614 31.0388 25.3127 32.1212 23.9101C33.2149 22.4174 33.8729 20.6505 34.022 18.8061C34.1712 16.9617 33.8056 15.112 32.9661 13.463C32.1266 11.814 30.8459 10.4302 29.2667 9.46576C27.6875 8.50128 25.8717 7.99389 24.0212 8.00006Z" fill="currentColor"/>
<path d="M21.3112 38.7801C20.926 38.7349 20.5742 38.5392 20.3326 38.2358C20.0909 37.9323 19.979 37.5457 20.0212 37.1601L19.9712 31.1601H27.9712V37.1601C28.0114 37.5406 27.9026 37.9219 27.6676 38.2239C27.4327 38.526 27.0899 38.7253 26.7112 38.7801H21.3112Z" fill="currentColor"/>
<path d="M27.4912 31.6501V37.1201C27.4912 37.7201 27.1312 38.2401 26.7312 38.2401H21.3112C20.9012 38.2401 20.5512 37.7201 20.5512 37.1101V31.6501H27.5512M28.5512 30.6501H19.5512L19.6012 37.1201C19.5669 37.6317 19.7304 38.1369 20.0579 38.5315C20.3855 38.926 20.852 39.1797 21.3612 39.2401H26.7812C27.2904 39.1797 27.757 38.926 28.0845 38.5315C28.4121 38.1369 28.5756 37.6317 28.5412 37.1201V30.6501H28.5512Z" fill="currentColor"/>
<path d="M21.0212 34.7501C22.0974 35.0341 23.2087 35.1621 24.3212 35.1301C25.2333 35.113 26.1399 34.9854 27.0212 34.7501" stroke="white" stroke-width="0.5" stroke-miterlimit="10" stroke-linecap="round"/>
<path d="M21.0212 36.1001C22.0974 36.3841 23.2087 36.5121 24.3212 36.4801C25.2195 36.4549 26.1119 36.3274 26.9812 36.1001" stroke="white" stroke-width="0.5" stroke-miterlimit="10" stroke-linecap="round"/>
</svg>
