<svg width="48" height="48" viewBox="0 0 48 48" fill="none" xmlns="http://www.w3.org/2000/svg">
<path d="M14.59 26.79H21.14V36.63C21.14 37.1233 20.944 37.5964 20.5952 37.9452C20.2464 38.294 19.7733 38.49 19.28 38.49H16.45C15.9567 38.49 15.4836 38.294 15.1348 37.9452C14.786 37.5964 14.59 37.1233 14.59 36.63V26.79Z" fill="currentColor"/>
<path d="M9 20.87C9 24.67 12.47 27.75 16.75 27.75V13.98C12.47 13.98 9 17.07 9 20.87Z" fill="currentColor"/>
<path d="M37.59 30.36C33.4863 27.8313 28.7794 26.45 23.96 26.36H23.61C21.8491 26.3638 20.0933 26.5481 18.37 26.91V14.91C19.7525 15.0932 21.1454 15.1867 22.54 15.19C27.8033 15.1839 32.9798 13.8493 37.59 11.31V30.36Z" fill="none"/>
<path d="M36.84 12.55V29.06C32.9019 26.8581 28.4811 25.6627 23.97 25.58H23.67C22.1616 25.5803 20.656 25.7108 19.17 25.97V15.75C20.3054 15.8784 21.4473 15.9419 22.59 15.94C24.6919 15.9388 26.7887 15.7311 28.85 15.32C31.6287 14.7592 34.3195 13.8275 36.85 12.55M38.35 10C35.3201 11.8483 31.9897 13.1513 28.51 13.85C26.5341 14.2427 24.5245 14.4403 22.51 14.44C20.8618 14.4409 19.2164 14.3072 17.59 14.04V27.81C19.5527 27.3215 21.5674 27.0731 23.59 27.07H23.92C29.0664 27.19 34.0665 28.8057 38.31 31.72V10H38.35Z" fill="currentColor"/>
</svg>
