<svg width="85" height="30" viewBox="0 0 85 30" fill="none" xmlns="http://www.w3.org/2000/svg">
<g clip-path="url(#clip0_122_3750)">
<path d="M63.98 1.91C63.98 2.41922 63.7777 2.9076 63.4177 3.26767C63.0576 3.62774 62.5692 3.82998 62.06 3.82998V3.82998C61.5508 3.82998 61.0624 3.62774 60.7024 3.26767C60.3423 2.9076 60.14 2.41922 60.14 1.91C60.14 1.65833 60.1898 1.40917 60.2864 1.17678C60.383 0.944398 60.5246 0.733365 60.703 0.555873C60.8814 0.378382 61.0931 0.237879 61.326 0.142482C61.5589 0.0470859 61.8083 -0.00129143 62.06 2.62086e-05C62.3117 -0.00129143 62.5611 0.0470859 62.794 0.142482C63.0269 0.237879 63.2386 0.378382 63.4171 0.555873C63.5955 0.733365 63.7371 0.944398 63.8337 1.17678C63.9303 1.40917 63.98 1.65833 63.98 1.91V1.91Z" fill="currentColor"/>
<path d="M81.3701 1.91C81.3714 2.16166 81.3229 2.41112 81.2275 2.64401C81.1321 2.8769 80.9917 3.08863 80.8142 3.26706C80.6367 3.44548 80.4257 3.58707 80.1933 3.68368C79.9609 3.78029 79.7117 3.82999 79.4601 3.82998V3.82998C78.9508 3.82998 78.4625 3.62774 78.1024 3.26767C77.7423 2.9076 77.54 2.41922 77.54 1.91C77.54 1.65833 77.5898 1.40917 77.6864 1.17678C77.783 0.944398 77.9246 0.733365 78.103 0.555874C78.2814 0.378382 78.4932 0.237879 78.726 0.142483C78.9589 0.0470861 79.2084 -0.00129115 79.4601 2.64845e-05V2.64845e-05C79.7112 -0.00129911 79.9602 0.0471486 80.1925 0.142666C80.4249 0.238183 80.6359 0.378859 80.8136 0.556484C80.9912 0.734108 81.1318 0.945186 81.2274 1.17752C81.3229 1.40985 81.3714 1.6588 81.3701 1.91V1.91Z" fill="currentColor"/>
<path d="M13.64 2.66992H6.60999V28.2599" stroke="currentColor" stroke-width="3" stroke-miterlimit="10"/>
<path d="M6.60999 12.3203H13.64" stroke="currentColor" stroke-width="3" stroke-miterlimit="10"/>
<path d="M6.60999 17.8496H13.64" stroke="currentColor" stroke-width="3" stroke-miterlimit="10"/>
<path d="M0 23.9199H17.02" stroke="currentColor" stroke-width="3" stroke-miterlimit="10"/>
<path d="M17.5 9.39047V2.23047H24.81V7.11047H28.93" stroke="currentColor" stroke-width="3" stroke-miterlimit="10"/>
<path d="M18.3199 12.3105H25.25C25.4937 12.3132 25.7327 12.3789 25.9435 12.5015C26.1542 12.624 26.3296 12.7991 26.4525 13.0096C26.5754 13.2202 26.6416 13.459 26.6447 13.7028C26.6478 13.9465 26.5875 14.1869 26.47 14.4005L19.2 27.2805" stroke="currentColor" stroke-width="3" stroke-miterlimit="10"/>
<path d="M19.63 13.0605L28.06 27.3405" stroke="currentColor" stroke-width="3" stroke-miterlimit="10"/>
<path d="M34.21 5.81055H53.56" stroke="currentColor" stroke-width="3" stroke-miterlimit="10"/>
<path d="M34.21 14.9707H53.56" stroke="currentColor" stroke-width="3" stroke-miterlimit="10"/>
<path d="M31.28 23.9199H56.6" stroke="currentColor" stroke-width="3" stroke-miterlimit="10"/>
<path d="M43.88 8.03125V21.7012" stroke="currentColor" stroke-width="3" stroke-miterlimit="10"/>
<path d="M77.08 3.66992L59.11 10.3699" stroke="currentColor" stroke-width="3" stroke-miterlimit="10"/>
<path d="M64.54 3.66992L82.52 10.3699" stroke="currentColor" stroke-width="3" stroke-miterlimit="10"/>
<path d="M63.0699 12.1602V22.7002" stroke="currentColor" stroke-width="3" stroke-miterlimit="10"/>
<path d="M61.5699 12.1602H79.6299" stroke="currentColor" stroke-width="3" stroke-miterlimit="10"/>
<path d="M69.22 13.3203V28.2803" stroke="currentColor" stroke-width="3" stroke-miterlimit="10"/>
<path d="M59.11 23.291H68.47" stroke="currentColor" stroke-width="3" stroke-miterlimit="10"/>
<path d="M64.54 18.0098H68.47" stroke="currentColor" stroke-width="4" stroke-miterlimit="10"/>
<path d="M83.4312 20.484C83.3464 19.3611 83.0708 18.259 82.6164 17.2263C82.551 17.0878 82.4699 16.9572 82.3747 16.8373C82.3232 16.6595 82.2599 16.4769 82.2067 16.2821C81.4315 13.7623 79.0951 11.7019 76.247 11.9802C72.8965 12.3092 72.0378 15.523 71.574 18.2851C69.7789 22.9117 71.2702 29.1144 77.1871 29.3594C80.0801 29.4763 82.8926 27.707 83.5894 24.964C83.881 23.4825 83.8268 21.9488 83.4312 20.484V20.484Z" fill="#ACD384"/>
<mask id="mask0_122_3750" style="mask-type:alpha" maskUnits="userSpaceOnUse" x="70" y="12" width="14" height="18">
<path d="M83.4199 20.6705C83.3351 19.5452 83.063 18.4388 82.6154 17.3987C82.5496 17.2595 82.4683 17.1282 82.373 17.0076C82.3209 16.829 82.2626 16.6453 82.2087 16.4497C81.4274 13.9425 79.1198 11.8469 76.2878 12.0962C72.9553 12.3828 72.0958 15.6033 71.6372 18.3658C69.8751 22.9854 71.3235 29.2225 77.1834 29.5308C80.0645 29.7006 82.8818 27.9594 83.5532 25.1957C83.8554 23.7049 83.8098 22.1552 83.4199 20.6705V20.6705Z" fill="white"/>
</mask>
<g mask="url(#mask0_122_3750)">
<g clip-path="url(#clip1_122_3750)">
<path d="M82.6905 12.2267C82.7079 12.2209 82.7245 12.2106 82.7391 12.1965C82.7537 12.1824 82.7659 12.1649 82.7747 12.1455C82.7835 12.1261 82.7886 12.1052 82.7896 12.0846C82.7907 12.064 82.7877 12.0442 82.7808 12.0268C82.7739 12.0094 82.7634 11.9948 82.75 11.9843C82.7367 11.9737 82.7209 11.9675 82.7039 11.9661C82.6869 11.9647 82.6692 11.9681 82.6521 11.9761C82.6351 11.9842 82.6193 11.9965 82.6058 12.0123C82.5873 12.034 82.5742 12.0612 82.5685 12.0898C82.5629 12.1184 82.565 12.1469 82.5745 12.171C82.584 12.1951 82.6004 12.2135 82.6213 12.2236C82.6422 12.2336 82.6665 12.2347 82.6905 12.2267V12.2267Z" fill="#599F34" fill-opacity="0.6"/>
</g>
<g clip-path="url(#clip2_122_3750)">
<path d="M80.9571 12.4125C80.9736 12.4082 80.9897 12.3995 81.0041 12.387C81.0184 12.3746 81.0307 12.3587 81.0398 12.3407C81.049 12.3227 81.0548 12.3031 81.0568 12.2834C81.0588 12.2637 81.0569 12.2445 81.0513 12.2272C81.0458 12.21 81.0366 12.1953 81.0246 12.1842C81.0127 12.1731 80.9982 12.1659 80.9824 12.1633C80.9665 12.1607 80.9498 12.1627 80.9335 12.1691C80.9172 12.1756 80.9018 12.1863 80.8884 12.2004C80.87 12.2199 80.8564 12.2451 80.8497 12.2721C80.843 12.2991 80.8436 12.3266 80.8513 12.3504C80.859 12.3743 80.8735 12.3932 80.8925 12.4043C80.9116 12.4155 80.9342 12.4184 80.9571 12.4125V12.4125Z" fill="#599F34" fill-opacity="0.6"/>
</g>
<g clip-path="url(#clip3_122_3750)">
<path d="M79.3845 14.5538C79.4013 14.5503 79.4178 14.5422 79.4327 14.5303C79.4476 14.5183 79.4605 14.5027 79.4704 14.4848C79.4802 14.4668 79.4868 14.4471 79.4895 14.427C79.4922 14.4069 79.491 14.3871 79.486 14.3692C79.481 14.3513 79.4723 14.3357 79.4606 14.3237C79.4489 14.3117 79.4346 14.3036 79.4187 14.3001C79.4029 14.2966 79.3859 14.2977 79.3693 14.3035C79.3526 14.3092 79.3367 14.3193 79.3227 14.3331C79.3035 14.3521 79.2889 14.3771 79.2812 14.4044C79.2735 14.4317 79.2731 14.4599 79.2801 14.4847C79.287 14.5095 79.3009 14.5296 79.3197 14.5421C79.3385 14.5545 79.3612 14.5586 79.3845 14.5538V14.5538Z" fill="#599F34" fill-opacity="0.6"/>
</g>
<g clip-path="url(#clip4_122_3750)">
<path d="M79.1176 16.8976C79.1352 16.8942 79.1525 16.8859 79.1682 16.8734C79.1839 16.861 79.1975 16.8448 79.208 16.8261C79.2186 16.8073 79.2256 16.7866 79.2287 16.7655C79.2318 16.7445 79.2307 16.7237 79.2257 16.7048C79.2207 16.6859 79.2118 16.6694 79.1998 16.6566C79.1878 16.6439 79.1729 16.6352 79.1564 16.6314C79.1399 16.6275 79.1222 16.6285 79.1048 16.6344C79.0873 16.6402 79.0706 16.6507 79.0559 16.665C79.0355 16.6847 79.02 16.7108 79.0117 16.7395C79.0033 16.7681 79.0026 16.7977 79.0095 16.8238C79.0164 16.85 79.0307 16.8713 79.0502 16.8846C79.0696 16.8979 79.0933 16.9025 79.1176 16.8976V16.8976Z" fill="#599F34" fill-opacity="0.6"/>
</g>
<g clip-path="url(#clip5_122_3750)">
<path d="M80.3276 17.3412C80.3465 17.3365 80.3649 17.3268 80.3814 17.3128C80.3979 17.2987 80.4121 17.2807 80.4228 17.2603C80.4335 17.2398 80.4404 17.2173 80.443 17.1948C80.4456 17.1722 80.4437 17.1501 80.4377 17.1302C80.4316 17.1103 80.4214 17.0932 80.408 17.0803C80.3945 17.0673 80.3782 17.0589 80.3602 17.0556C80.3423 17.0523 80.3232 17.0543 80.3046 17.0614C80.2859 17.0685 80.2682 17.0806 80.2528 17.0965C80.2315 17.1186 80.2157 17.1472 80.2077 17.1782C80.1997 17.2091 80.1999 17.2406 80.2083 17.2681C80.2167 17.2956 80.2328 17.3175 80.2543 17.3307C80.2758 17.3439 80.3015 17.3475 80.3276 17.3412V17.3412Z" fill="#599F34" fill-opacity="0.6"/>
</g>
<g clip-path="url(#clip6_122_3750)">
<path d="M81.8064 15.9912C81.8258 15.985 81.8444 15.9736 81.8607 15.958C81.8771 15.9425 81.8907 15.9231 81.9006 15.9016C81.9105 15.88 81.9163 15.8568 81.9176 15.8338C81.919 15.8109 81.9157 15.7887 81.9082 15.7692C81.9007 15.7497 81.8891 15.7333 81.8743 15.7214C81.8595 15.7095 81.842 15.7024 81.8231 15.7006C81.8042 15.6989 81.7845 15.7025 81.7655 15.7113C81.7465 15.72 81.7288 15.7336 81.7138 15.751C81.693 15.7751 81.6782 15.8053 81.6717 15.8371C81.6653 15.869 81.6674 15.9007 81.6778 15.9277C81.6882 15.9547 81.7063 15.9755 81.7295 15.9869C81.7527 15.9984 81.7797 15.9999 81.8064 15.9912V15.9912Z" fill="#599F34" fill-opacity="0.6"/>
</g>
<g clip-path="url(#clip7_122_3750)">
<path d="M82.2768 14.9771C82.2966 14.9702 82.3154 14.9582 82.332 14.942C82.3485 14.9257 82.3622 14.9057 82.372 14.8835C82.3819 14.8613 82.3875 14.8376 82.3886 14.8142C82.3896 14.7907 82.386 14.7683 82.378 14.7486C82.37 14.7289 82.3579 14.7125 82.3426 14.7008C82.3273 14.689 82.3093 14.6822 82.2899 14.6808C82.2706 14.6795 82.2504 14.6837 82.2311 14.693C82.2118 14.7024 82.1939 14.7167 82.1787 14.7348C82.1577 14.7598 82.1431 14.7909 82.1369 14.8235C82.1307 14.8561 82.1333 14.8884 82.1443 14.9156C82.1553 14.9428 82.1742 14.9635 82.1981 14.9746C82.2219 14.9857 82.2496 14.9865 82.2768 14.9771V14.9771Z" fill="#599F34" fill-opacity="0.6"/>
</g>
<g clip-path="url(#clip8_122_3750)">
<path d="M82.3408 17.8934C82.3624 17.8867 82.3832 17.8742 82.4016 17.857C82.42 17.8397 82.4354 17.8182 82.4466 17.7942C82.4578 17.7701 82.4645 17.7441 82.4662 17.7184C82.4679 17.6926 82.4644 17.6677 82.4562 17.6456C82.448 17.6236 82.4352 17.605 82.4188 17.5914C82.4024 17.5778 82.3829 17.5696 82.3619 17.5673C82.3409 17.565 82.3188 17.5688 82.2976 17.5784C82.2763 17.5879 82.2565 17.6029 82.2395 17.6222C82.2161 17.6489 82.1994 17.6826 82.1919 17.7183C82.1844 17.7539 82.1865 17.7897 82.1979 17.8201C82.2093 17.8506 82.2293 17.8742 82.2551 17.8874C82.2808 17.9006 82.3109 17.9027 82.3408 17.8934V17.8934Z" fill="#599F34" fill-opacity="0.6"/>
</g>
<g clip-path="url(#clip9_122_3750)">
<path d="M82.1068 19.33C82.1274 19.3246 82.1474 19.3136 82.1653 19.298C82.1832 19.2824 82.1985 19.2626 82.2099 19.2401C82.2212 19.2175 82.2284 19.193 82.2309 19.1684C82.2334 19.1437 82.231 19.1197 82.224 19.0982C82.217 19.0767 82.2056 19.0583 82.1906 19.0445C82.1756 19.0307 82.1576 19.0218 82.1378 19.0186C82.1181 19.0154 82.0972 19.0179 82.0768 19.026C82.0565 19.0341 82.0373 19.0476 82.0207 19.0652C81.9977 19.0897 81.9808 19.1212 81.9725 19.155C81.9643 19.1888 81.965 19.2231 81.9747 19.2528C81.9844 19.2826 82.0024 19.3061 82.0263 19.32C82.0501 19.3339 82.0783 19.3374 82.1068 19.33V19.33Z" fill="#599F34" fill-opacity="0.6"/>
</g>
<g clip-path="url(#clip10_122_3750)">
<path d="M80.6295 19.9199C80.6489 19.9159 80.6681 19.9066 80.6854 19.8928C80.7028 19.8789 80.7178 19.8609 80.7293 19.8402C80.7407 19.8195 80.7484 19.7966 80.7516 19.7734C80.7548 19.7501 80.7535 19.7272 80.7478 19.7064C80.742 19.6857 80.732 19.6676 80.7185 19.6537C80.705 19.6398 80.6884 19.6304 80.6701 19.6263C80.6517 19.6222 80.6321 19.6235 80.6128 19.6301C80.5934 19.6367 80.5749 19.6484 80.5587 19.6643C80.5363 19.6862 80.5194 19.7151 80.5103 19.7468C80.5013 19.7784 80.5008 19.811 80.5087 19.8397C80.5167 19.8684 80.5327 19.8917 80.5545 19.9062C80.5762 19.9207 80.6025 19.9255 80.6295 19.9199V19.9199Z" fill="#599F34" fill-opacity="0.6"/>
</g>
<g clip-path="url(#clip11_122_3750)">
<path d="M79.533 19.6941C79.5517 19.6908 79.5702 19.6823 79.5871 19.6695C79.604 19.6566 79.6187 19.6397 79.6302 19.62C79.6416 19.6004 79.6494 19.5786 79.653 19.5563C79.6566 19.5341 79.6558 19.512 79.6508 19.4919C79.6458 19.4718 79.6366 19.4541 79.624 19.4404C79.6115 19.4267 79.5958 19.4172 79.5784 19.4128C79.5609 19.4084 79.5421 19.4092 79.5235 19.415C79.5049 19.4209 79.4869 19.4316 79.4711 19.4465C79.4492 19.467 79.4324 19.4944 79.4231 19.5246C79.4137 19.5547 79.4125 19.5861 79.4194 19.6139C79.4264 19.6417 79.4412 19.6646 79.4616 19.679C79.4821 19.6935 79.5071 19.6988 79.533 19.6941V19.6941Z" fill="#599F34" fill-opacity="0.6"/>
</g>
<g clip-path="url(#clip12_122_3750)">
<path d="M80.561 18.5248C80.5805 18.5201 80.5995 18.5102 80.6166 18.4957C80.6337 18.4813 80.6484 18.4629 80.6594 18.4418C80.6705 18.4207 80.6777 18.3976 80.6804 18.3743C80.6831 18.3511 80.6812 18.3283 80.6749 18.3078C80.6687 18.2873 80.6582 18.2696 80.6443 18.2562C80.6305 18.2428 80.6136 18.2341 80.5951 18.2306C80.5765 18.2272 80.5568 18.2292 80.5376 18.2364C80.5183 18.2437 80.5 18.256 80.4841 18.2724C80.4621 18.2951 80.4457 18.3245 80.4374 18.3564C80.429 18.3882 80.4292 18.4207 80.4379 18.4491C80.4465 18.4774 80.4632 18.5001 80.4854 18.5138C80.5075 18.5274 80.5341 18.5313 80.561 18.5248V18.5248Z" fill="#599F34" fill-opacity="0.6"/>
</g>
<g clip-path="url(#clip13_122_3750)">
<path d="M83.4474 18.2282C83.4688 18.2213 83.4894 18.2087 83.5076 18.1914C83.5257 18.1742 83.5409 18.1527 83.5519 18.1288C83.5629 18.1049 83.5694 18.0791 83.5709 18.0536C83.5724 18.028 83.5689 18.0034 83.5606 17.9817C83.5523 17.96 83.5395 17.9418 83.5231 17.9286C83.5068 17.9153 83.4874 17.9073 83.4665 17.9053C83.4456 17.9033 83.4237 17.9073 83.4027 17.917C83.3816 17.9267 83.362 17.9418 83.3453 17.9611C83.3222 17.9878 83.3058 18.0213 83.2985 18.0567C83.2913 18.0921 83.2936 18.1274 83.305 18.1574C83.3165 18.1874 83.3366 18.2105 83.3622 18.2233C83.3878 18.236 83.4177 18.2377 83.4474 18.2282V18.2282Z" fill="#599F34" fill-opacity="0.6"/>
</g>
<g clip-path="url(#clip14_122_3750)">
<path d="M83.8833 16.9392C83.9048 16.9312 83.9251 16.9177 83.9428 16.8996C83.9606 16.8815 83.9751 16.8594 83.9853 16.835C83.9956 16.8106 84.0012 16.7847 84.0018 16.7592C84.0024 16.7337 83.9979 16.7094 83.9887 16.6882C83.9795 16.667 83.9658 16.6495 83.9488 16.6372C83.9318 16.6248 83.9118 16.6178 83.8906 16.6169C83.8694 16.616 83.8474 16.621 83.8265 16.6317C83.8056 16.6424 83.7863 16.6584 83.7701 16.6785C83.7478 16.7062 83.7324 16.7404 83.7264 16.776C83.7204 16.8115 83.724 16.8466 83.7367 16.8758C83.7495 16.9051 83.7706 16.9271 83.797 16.9385C83.8234 16.9499 83.8537 16.9502 83.8833 16.9392V16.9392Z" fill="#599F34" fill-opacity="0.6"/>
</g>
<g clip-path="url(#clip15_122_3750)">
<path d="M82.425 13.2997C82.443 13.2935 82.4601 13.2826 82.4751 13.2678C82.4901 13.2531 82.5026 13.2349 82.5115 13.2147C82.5205 13.1945 82.5256 13.1729 82.5265 13.1516C82.5275 13.1303 82.5242 13.1099 82.5169 13.0919C82.5097 13.074 82.4986 13.0591 82.4847 13.0483C82.4708 13.0376 82.4545 13.0314 82.4369 13.0301C82.4193 13.0289 82.401 13.0326 82.3834 13.0411C82.3659 13.0496 82.3496 13.0626 82.3358 13.079C82.3167 13.1018 82.3034 13.13 82.2978 13.1597C82.2922 13.1893 82.2945 13.2187 82.3046 13.2435C82.3146 13.2683 82.3317 13.2871 82.3534 13.2973C82.3752 13.3074 82.4003 13.3082 82.425 13.2997V13.2997Z" fill="#599F34" fill-opacity="0.6"/>
</g>
<g clip-path="url(#clip16_122_3750)">
<path d="M81.257 13.2928C81.2743 13.2879 81.2911 13.2783 81.306 13.2648C81.3209 13.2514 81.3335 13.2344 81.3428 13.2154C81.3521 13.1963 81.3579 13.1756 81.3596 13.155C81.3614 13.1344 81.3591 13.1143 81.3529 13.0965C81.3468 13.0787 81.3369 13.0636 81.3241 13.0524C81.3113 13.0412 81.2959 13.0341 81.2792 13.0319C81.2625 13.0297 81.2449 13.0323 81.2279 13.0395C81.2108 13.0467 81.1948 13.0584 81.181 13.0735C81.1619 13.0945 81.1481 13.1212 81.1415 13.1496C81.1349 13.178 81.136 13.2067 81.1445 13.2313C81.1531 13.256 81.1686 13.2753 81.1889 13.2864C81.2091 13.2974 81.233 13.2997 81.257 13.2928V13.2928Z" fill="#599F34" fill-opacity="0.6"/>
</g>
<g clip-path="url(#clip17_122_3750)">
<path d="M80.922 14.4511C80.9395 14.4462 80.9565 14.4366 80.9716 14.4231C80.9867 14.4096 80.9995 14.3926 81.009 14.3734C81.0185 14.3541 81.0243 14.3333 81.0262 14.3125C81.028 14.2916 81.0257 14.2714 81.0195 14.2534C81.0133 14.2353 81.0034 14.22 80.9905 14.2086C80.9776 14.1972 80.962 14.19 80.9452 14.1877C80.9283 14.1853 80.9105 14.1879 80.8932 14.1951C80.876 14.2023 80.8597 14.214 80.8457 14.2292C80.8264 14.2503 80.8123 14.2771 80.8056 14.3058C80.7989 14.3345 80.7999 14.3635 80.8085 14.3884C80.8171 14.4133 80.8327 14.4329 80.8532 14.4442C80.8736 14.4555 80.8978 14.4579 80.922 14.4511V14.4511Z" fill="#599F34" fill-opacity="0.6"/>
</g>
<g clip-path="url(#clip18_122_3750)">
<path d="M83.5869 15.472C83.6074 15.4638 83.6267 15.4502 83.6434 15.4324C83.6601 15.4147 83.6736 15.3931 83.683 15.3695C83.6923 15.3459 83.6972 15.3209 83.6972 15.2965C83.6973 15.2722 83.6925 15.2491 83.6832 15.2291C83.6739 15.2091 83.6604 15.1928 83.6438 15.1814C83.6271 15.1701 83.6078 15.164 83.5874 15.1637C83.5669 15.1634 83.5459 15.1689 83.526 15.1797C83.5061 15.1905 83.4878 15.2064 83.4726 15.226C83.4517 15.2531 83.4376 15.2862 83.4325 15.3204C83.4275 15.3546 83.4317 15.388 83.4445 15.4156C83.4574 15.4433 83.4781 15.4637 83.5038 15.4738C83.5294 15.484 83.5586 15.4833 83.5869 15.472V15.472Z" fill="#599F34" fill-opacity="0.6"/>
</g>
<g clip-path="url(#clip19_122_3750)">
<path d="M83.1956 14.1355C83.2148 14.1279 83.2329 14.1154 83.2486 14.0989C83.2642 14.0823 83.277 14.0623 83.2858 14.0404C83.2946 14.0184 83.2993 13.9951 83.2994 13.9724C83.2995 13.9497 83.2951 13.9282 83.2865 13.9095C83.2779 13.8908 83.2654 13.8756 83.2498 13.865C83.2343 13.8543 83.2163 13.8486 83.1972 13.8483C83.178 13.8479 83.1584 13.853 83.1397 13.863C83.121 13.873 83.1039 13.8877 83.0897 13.9059C83.07 13.9311 83.0567 13.962 83.0518 13.9938C83.047 14.0256 83.0508 14.0567 83.0627 14.0825C83.0746 14.1083 83.0939 14.1274 83.1179 14.137C83.1418 14.1465 83.1691 14.146 83.1956 14.1355V14.1355Z" fill="#599F34" fill-opacity="0.6"/>
</g>
<g clip-path="url(#clip20_122_3750)">
<path d="M83.7797 21.8985C83.7707 21.8887 83.7585 21.8815 83.7441 21.8774C83.7297 21.8733 83.7135 21.8724 83.6969 21.8749C83.6803 21.8774 83.6638 21.8831 83.6488 21.8916C83.6338 21.9001 83.6208 21.9111 83.6108 21.9237C83.6008 21.9363 83.5942 21.9501 83.5914 21.9639C83.5887 21.9777 83.59 21.9911 83.5952 22.003C83.6004 22.0148 83.6093 22.0248 83.6212 22.0321C83.6331 22.0394 83.6476 22.0437 83.6635 22.0447C83.6725 22.0544 83.6847 22.0617 83.6991 22.0658C83.7135 22.0699 83.7297 22.0707 83.7463 22.0683C83.7629 22.0658 83.7794 22.06 83.7944 22.0515C83.8094 22.0431 83.8225 22.032 83.8325 22.0195C83.8425 22.0069 83.8491 21.9931 83.8518 21.9793C83.8545 21.9655 83.8532 21.9521 83.848 21.9402C83.8429 21.9283 83.8339 21.9183 83.822 21.911C83.8101 21.9038 83.7956 21.8995 83.7797 21.8985V21.8985Z" fill="#EDF5DF"/>
</g>
<g clip-path="url(#clip21_122_3750)">
<path d="M82.1286 23.526C82.1195 23.5161 82.1072 23.5088 82.0926 23.5047C82.078 23.5005 82.0616 23.4997 82.0448 23.5022C82.0279 23.5047 82.0112 23.5105 81.9959 23.5191C81.9807 23.5278 81.9674 23.5389 81.9572 23.5517C81.947 23.5644 81.9402 23.5784 81.9374 23.5923C81.9346 23.6063 81.9358 23.6199 81.941 23.6319C81.9462 23.6439 81.9552 23.6541 81.9672 23.6614C81.9792 23.6688 81.9939 23.6731 82.0101 23.6741C82.0191 23.684 82.0314 23.6913 82.046 23.6954C82.0606 23.6996 82.077 23.7004 82.0939 23.6979C82.1107 23.6954 82.1275 23.6896 82.1427 23.681C82.1579 23.6723 82.1712 23.6612 82.1814 23.6484C82.1916 23.6357 82.1984 23.6218 82.2012 23.6078C82.2041 23.5938 82.2028 23.5802 82.1976 23.5682C82.1924 23.5562 82.1834 23.546 82.1714 23.5387C82.1594 23.5313 82.1447 23.527 82.1286 23.526V23.526Z" fill="#EDF5DF"/>
</g>
<g clip-path="url(#clip22_122_3750)">
<path d="M77.2804 25.0026C77.2715 24.9927 77.2592 24.9854 77.2447 24.9813C77.2301 24.9771 77.2138 24.9762 77.197 24.9787C77.1802 24.9812 77.1635 24.9869 77.1483 24.9955C77.1331 25.004 77.1198 25.0151 77.1096 25.0278C77.0994 25.0404 77.0926 25.0543 77.0897 25.0682C77.0869 25.0822 77.088 25.0957 77.0932 25.1077C77.0983 25.1197 77.1072 25.1298 77.1192 25.1371C77.1311 25.1445 77.1458 25.1488 77.1618 25.1499C77.1708 25.1597 77.183 25.167 77.1976 25.1712C77.2121 25.1753 77.2284 25.1762 77.2452 25.1737C77.262 25.1713 77.2787 25.1655 77.2939 25.157C77.3092 25.1484 77.3224 25.1373 77.3326 25.1247C77.3428 25.112 77.3497 25.0981 77.3525 25.0842C77.3554 25.0703 77.3542 25.0568 77.3491 25.0448C77.3439 25.0328 77.335 25.0227 77.3231 25.0153C77.3111 25.008 77.2965 25.0036 77.2804 25.0026V25.0026Z" fill="#EDF5DF"/>
</g>
<g clip-path="url(#clip23_122_3750)">
<path d="M77.5379 27.2506C77.5289 27.2408 77.5166 27.2335 77.5021 27.2293C77.4876 27.2252 77.4713 27.2243 77.4545 27.2267C77.4378 27.2292 77.4212 27.235 77.406 27.2435C77.3908 27.252 77.3776 27.2631 77.3675 27.2758C77.3574 27.2884 77.3506 27.3023 77.3478 27.3162C77.345 27.3301 77.3463 27.3437 77.3514 27.3557C77.3566 27.3676 77.3656 27.3777 77.3775 27.3851C77.3895 27.3924 77.4041 27.3968 77.4201 27.3978C77.4291 27.4077 77.4414 27.415 77.4559 27.4191C77.4704 27.4233 77.4867 27.4242 77.5035 27.4217C77.5202 27.4192 77.5369 27.4135 77.552 27.4049C77.5672 27.3964 77.5804 27.3853 77.5905 27.3727C77.6007 27.36 77.6074 27.3461 77.6102 27.3322C77.613 27.3183 77.6118 27.3048 77.6066 27.2928C77.6014 27.2808 77.5925 27.2707 77.5805 27.2634C77.5685 27.256 77.5539 27.2516 77.5379 27.2506V27.2506Z" fill="#EDF5DF"/>
</g>
<g clip-path="url(#clip24_122_3750)">
<path d="M75.635 28.2253C75.6262 28.2155 75.6141 28.2082 75.5998 28.204C75.5855 28.1998 75.5694 28.1988 75.5529 28.2012C75.5364 28.2035 75.5199 28.2091 75.5049 28.2174C75.4899 28.2257 75.4768 28.2366 75.4667 28.249C75.4566 28.2615 75.4499 28.2751 75.447 28.2888C75.4441 28.3026 75.4453 28.3159 75.4503 28.3278C75.4553 28.3397 75.4641 28.3497 75.4758 28.3571C75.4876 28.3644 75.502 28.3688 75.5178 28.3699C75.5266 28.3797 75.5386 28.387 75.5529 28.3912C75.5672 28.3954 75.5833 28.3964 75.5999 28.3941C75.6164 28.3917 75.6329 28.3862 75.6479 28.3778C75.6629 28.3695 75.676 28.3587 75.6861 28.3462C75.6961 28.3338 75.7029 28.3201 75.7057 28.3064C75.7086 28.2927 75.7075 28.2793 75.7025 28.2674C75.6974 28.2555 75.6887 28.2455 75.6769 28.2382C75.6652 28.2308 75.6508 28.2264 75.635 28.2253V28.2253Z" fill="#EDF5DF"/>
</g>
<g clip-path="url(#clip25_122_3750)">
<path d="M76.6676 28.9942C76.6588 28.9845 76.6468 28.9773 76.6325 28.9731C76.6182 28.969 76.6021 28.9681 76.5856 28.9706C76.5691 28.973 76.5526 28.9787 76.5376 28.9871C76.5226 28.9955 76.5095 29.0065 76.4994 29.019C76.4894 29.0315 76.4826 29.0452 76.4798 29.059C76.4769 29.0727 76.4781 29.0861 76.4831 29.098C76.4881 29.1098 76.4968 29.1198 76.5086 29.1271C76.5203 29.1343 76.5347 29.1387 76.5505 29.1397C76.5593 29.1495 76.5714 29.1567 76.5857 29.1608C76.5999 29.1649 76.616 29.1658 76.6325 29.1634C76.6491 29.161 76.6655 29.1553 76.6805 29.1469C76.6955 29.1384 76.7086 29.1275 76.7187 29.115C76.7288 29.1025 76.7355 29.0887 76.7384 29.075C76.7412 29.0612 76.7401 29.0479 76.7351 29.036C76.73 29.0241 76.7213 29.0142 76.7095 29.0069C76.6978 28.9996 76.6834 28.9953 76.6676 28.9942V28.9942Z" fill="#EDF5DF"/>
</g>
<g clip-path="url(#clip26_122_3750)">
<path d="M83.1323 25.0234C83.1234 25.0134 83.1113 25.0059 83.0968 25.0016C83.0823 24.9973 83.0659 24.9963 83.0491 24.9987C83.0323 25.001 83.0155 25.0067 83.0002 25.0152C82.9849 25.0236 82.9715 25.0347 82.9611 25.0474C82.9508 25.0601 82.9438 25.074 82.9408 25.088C82.9378 25.102 82.9388 25.1156 82.9438 25.1278C82.9488 25.1399 82.9576 25.1501 82.9695 25.1576C82.9814 25.1651 82.996 25.1697 83.012 25.1708C83.0209 25.1808 83.0331 25.1883 83.0476 25.1926C83.062 25.1969 83.0784 25.1979 83.0952 25.1956C83.112 25.1932 83.1288 25.1875 83.1441 25.179C83.1595 25.1706 83.1729 25.1595 83.1832 25.1468C83.1935 25.1341 83.2005 25.1202 83.2035 25.1062C83.2066 25.0922 83.2055 25.0786 83.2005 25.0664C83.1955 25.0543 83.1867 25.0441 83.1748 25.0366C83.1629 25.0291 83.1484 25.0246 83.1323 25.0234V25.0234Z" fill="#EDF5DF"/>
</g>
<g clip-path="url(#clip27_122_3750)">
<path d="M79.8271 28.9486C79.8183 28.9387 79.8063 28.9313 79.792 28.9271C79.7777 28.9228 79.7615 28.9217 79.7449 28.924C79.7283 28.9263 79.7117 28.9318 79.6965 28.9401C79.6814 28.9484 79.6682 28.9593 79.6579 28.9717C79.6477 28.9842 79.6408 28.9979 79.6378 29.0117C79.6349 29.0254 79.6359 29.0389 79.6408 29.0508C79.6458 29.0627 79.6545 29.0729 79.6662 29.0803C79.678 29.0877 79.6924 29.0922 79.7083 29.0933C79.717 29.1032 79.7291 29.1106 79.7434 29.1149C79.7577 29.1191 79.7738 29.1202 79.7905 29.1179C79.8071 29.1156 79.8237 29.1101 79.8388 29.1018C79.854 29.0935 79.8672 29.0826 79.8774 29.0702C79.8877 29.0577 79.8946 29.044 79.8975 29.0303C79.9005 29.0165 79.8995 29.0031 79.8945 28.9911C79.8896 28.9792 79.8809 28.9691 79.8691 28.9617C79.8574 28.9543 79.843 28.9498 79.8271 28.9486V28.9486Z" fill="#EDF5DF"/>
</g>
<g clip-path="url(#clip28_122_3750)">
<path d="M83.7412 20.1687C83.7322 20.1592 83.7201 20.1521 83.7058 20.1481C83.6915 20.1441 83.6754 20.1433 83.659 20.1458C83.6425 20.1483 83.6262 20.1541 83.6113 20.1625C83.5965 20.1709 83.5836 20.1818 83.5737 20.1942C83.5639 20.2066 83.5573 20.2202 83.5547 20.2338C83.5521 20.2474 83.5534 20.2606 83.5586 20.2723C83.5638 20.284 83.5726 20.2938 83.5845 20.3009C83.5963 20.308 83.6107 20.3122 83.6265 20.3131C83.6354 20.3227 83.6476 20.3298 83.6619 20.3337C83.6762 20.3377 83.6922 20.3385 83.7087 20.336C83.7251 20.3335 83.7415 20.3278 83.7563 20.3194C83.7712 20.3109 83.7841 20.3001 83.7939 20.2876C83.8038 20.2752 83.8103 20.2616 83.813 20.248C83.8156 20.2344 83.8143 20.2212 83.8091 20.2095C83.8039 20.1979 83.795 20.188 83.7832 20.1809C83.7714 20.1738 83.7569 20.1696 83.7412 20.1687V20.1687Z" fill="#EDF5DF"/>
</g>
<g clip-path="url(#clip29_122_3750)">
<path d="M83.5215 26.4492C83.5127 26.4393 83.5007 26.4318 83.4864 26.4275C83.472 26.4231 83.4558 26.422 83.4392 26.4243C83.4225 26.4266 83.4059 26.4321 83.3907 26.4404C83.3755 26.4488 83.3622 26.4597 83.3519 26.4722C83.3416 26.4848 83.3346 26.4986 83.3316 26.5124C83.3286 26.5263 83.3295 26.5398 83.3345 26.5519C83.3394 26.5639 83.3481 26.5741 83.3598 26.5816C83.3716 26.5891 83.386 26.5937 83.4019 26.5949C83.4106 26.6049 83.4227 26.6123 83.437 26.6167C83.4513 26.621 83.4675 26.6221 83.4842 26.6198C83.5009 26.6176 83.5175 26.612 83.5327 26.6037C83.5479 26.5953 83.5612 26.5844 83.5715 26.5719C83.5818 26.5593 83.5887 26.5456 83.5918 26.5317C83.5948 26.5178 83.5938 26.5043 83.5889 26.4922C83.584 26.4802 83.5753 26.47 83.5636 26.4625C83.5518 26.455 83.5374 26.4504 83.5215 26.4492V26.4492Z" fill="#EDF5DF"/>
</g>
<g clip-path="url(#clip30_122_3750)">
<path d="M81.1623 27.3248C81.1535 27.3148 81.1414 27.3072 81.1269 27.3028C81.1125 27.2984 81.0962 27.2973 81.0795 27.2996C81.0627 27.3018 81.046 27.3074 81.0307 27.3158C81.0154 27.3241 81.002 27.3351 80.9916 27.3477C80.9813 27.3603 80.9743 27.3742 80.9712 27.3882C80.9681 27.4022 80.9691 27.4158 80.9741 27.4279C80.979 27.4401 80.9878 27.4504 80.9996 27.458C81.0114 27.4655 81.0259 27.4701 81.0419 27.4714C81.0507 27.4814 81.0628 27.489 81.0773 27.4934C81.0917 27.4978 81.108 27.4989 81.1247 27.4966C81.1415 27.4944 81.1582 27.4888 81.1735 27.4804C81.1888 27.4721 81.2022 27.4611 81.2126 27.4485C81.2229 27.4359 81.2299 27.422 81.233 27.408C81.236 27.3941 81.2351 27.3804 81.2301 27.3683C81.2252 27.3561 81.2164 27.3458 81.2046 27.3382C81.1928 27.3307 81.1783 27.3261 81.1623 27.3248V27.3248Z" fill="#EDF5DF"/>
</g>
<g clip-path="url(#clip31_122_3750)">
<path d="M80.6968 24.6079C80.6878 24.5978 80.6755 24.5903 80.6608 24.5859C80.6462 24.5816 80.6297 24.5806 80.6127 24.583C80.5957 24.5854 80.5788 24.5911 80.5634 24.5997C80.5479 24.6083 80.5344 24.6195 80.524 24.6323C80.5136 24.6451 80.5066 24.6592 80.5036 24.6734C80.5006 24.6875 80.5017 24.7013 80.5068 24.7136C80.5119 24.7259 80.5208 24.7362 80.5329 24.7438C80.5449 24.7514 80.5596 24.756 80.5759 24.7571C80.5848 24.7672 80.5972 24.7748 80.6118 24.7791C80.6265 24.7835 80.643 24.7845 80.66 24.7821C80.6769 24.7797 80.6939 24.774 80.7093 24.7654C80.7247 24.7568 80.7382 24.7456 80.7486 24.7328C80.7591 24.7199 80.766 24.7058 80.769 24.6917C80.772 24.6775 80.7709 24.6637 80.7658 24.6514C80.7608 24.6392 80.7518 24.6288 80.7398 24.6212C80.7278 24.6137 80.713 24.6091 80.6968 24.6079V24.6079Z" fill="#EDF5DF"/>
</g>
<g clip-path="url(#clip32_122_3750)">
<path d="M81.5448 21.4518C81.536 21.442 81.5239 21.4347 81.5095 21.4305C81.4951 21.4264 81.4789 21.4254 81.4623 21.4278C81.4457 21.4302 81.4291 21.4358 81.414 21.4442C81.3989 21.4526 81.3857 21.4635 81.3756 21.4761C81.3654 21.4886 81.3586 21.5023 81.3558 21.5161C81.3529 21.5299 81.354 21.5433 81.3591 21.5552C81.3641 21.5672 81.3729 21.5772 81.3847 21.5845C81.3965 21.5919 81.411 21.5963 81.4269 21.5974C81.4358 21.6072 81.4479 21.6145 81.4623 21.6187C81.4766 21.6229 81.4928 21.6238 81.5094 21.6214C81.5261 21.6191 81.5426 21.6134 81.5577 21.605C81.5728 21.5966 81.586 21.5857 81.5962 21.5732C81.6063 21.5606 81.6131 21.5469 81.616 21.5331C81.6189 21.5193 81.6177 21.5059 81.6127 21.494C81.6077 21.4821 81.5989 21.472 81.587 21.4647C81.5752 21.4573 81.5607 21.4529 81.5448 21.4518V21.4518Z" fill="#EDF5DF"/>
</g>
<g clip-path="url(#clip33_122_3750)">
<path d="M81.1582 22.8209C81.1493 22.8111 81.137 22.8038 81.1225 22.7996C81.108 22.7955 81.0916 22.7946 81.0748 22.7971C81.058 22.7995 81.0413 22.8053 81.0261 22.8138C81.0109 22.8224 80.9976 22.8335 80.9874 22.8461C80.9772 22.8588 80.9704 22.8727 80.9675 22.8866C80.9647 22.9005 80.9659 22.914 80.971 22.926C80.9761 22.938 80.985 22.9481 80.997 22.9555C81.0089 22.9628 81.0236 22.9672 81.0396 22.9682C81.0486 22.9781 81.0609 22.9854 81.0754 22.9895C81.0899 22.9937 81.1062 22.9946 81.123 22.9921C81.1398 22.9896 81.1565 22.9839 81.1717 22.9753C81.187 22.9668 81.2002 22.9557 81.2104 22.943C81.2206 22.9304 81.2275 22.9165 81.2303 22.9026C81.2332 22.8886 81.232 22.8751 81.2269 22.8631C81.2217 22.8511 81.2128 22.841 81.2009 22.8337C81.1889 22.8263 81.1743 22.822 81.1582 22.8209V22.8209Z" fill="#EDF5DF"/>
</g>
<g clip-path="url(#clip34_122_3750)">
<path d="M79.3409 22.4049C79.3319 22.3951 79.3196 22.3878 79.3051 22.3836C79.2906 22.3794 79.2743 22.3786 79.2575 22.381C79.2408 22.3835 79.2241 22.3893 79.209 22.3978C79.1938 22.4063 79.1806 22.4174 79.1705 22.4301C79.1604 22.4427 79.1536 22.4566 79.1508 22.4705C79.148 22.4844 79.1492 22.498 79.1544 22.51C79.1596 22.5219 79.1685 22.532 79.1805 22.5394C79.1925 22.5467 79.2071 22.5511 79.2231 22.5521C79.2321 22.562 79.2444 22.5693 79.2589 22.5734C79.2734 22.5776 79.2897 22.5785 79.3065 22.576C79.3232 22.5735 79.3399 22.5678 79.355 22.5592C79.3702 22.5507 79.3834 22.5396 79.3935 22.527C79.4036 22.5143 79.4104 22.5004 79.4132 22.4865C79.416 22.4726 79.4147 22.4591 79.4096 22.4471C79.4044 22.4351 79.3954 22.425 79.3835 22.4177C79.3715 22.4103 79.3569 22.4059 79.3409 22.4049V22.4049Z" fill="#EDF5DF"/>
</g>
<g clip-path="url(#clip35_122_3750)">
<path d="M78.8073 23.6712C78.7984 23.6612 78.7861 23.6539 78.7716 23.6496C78.757 23.6454 78.7407 23.6444 78.7239 23.6469C78.7071 23.6493 78.6904 23.655 78.6752 23.6635C78.6599 23.672 78.6467 23.6831 78.6365 23.6957C78.6263 23.7084 78.6194 23.7223 78.6166 23.7363C78.6137 23.7502 78.6149 23.7638 78.6201 23.7758C78.6252 23.7879 78.6341 23.7981 78.6461 23.8055C78.658 23.8129 78.6727 23.8173 78.6888 23.8184C78.6977 23.8284 78.71 23.8357 78.7245 23.84C78.739 23.8442 78.7554 23.8451 78.7722 23.8427C78.789 23.8403 78.8057 23.8346 78.8209 23.8261C78.8361 23.8176 78.8494 23.8065 78.8596 23.7939C78.8698 23.7812 78.8766 23.7673 78.8795 23.7533C78.8824 23.7394 78.8812 23.7258 78.876 23.7138C78.8709 23.7017 78.862 23.6915 78.85 23.6841C78.838 23.6767 78.8234 23.6722 78.8073 23.6712V23.6712Z" fill="#EDF5DF"/>
</g>
<g clip-path="url(#clip36_122_3750)">
<path d="M75.0567 25.2872C75.0478 25.2774 75.0357 25.2702 75.0213 25.2661C75.007 25.262 74.9908 25.2611 74.9743 25.2635C74.9578 25.2659 74.9413 25.2716 74.9263 25.28C74.9114 25.2885 74.8983 25.2994 74.8883 25.3119C74.8783 25.3244 74.8717 25.3381 74.8689 25.3519C74.8662 25.3656 74.8674 25.379 74.8725 25.3908C74.8776 25.4027 74.8865 25.4127 74.8983 25.4199C74.9101 25.4272 74.9246 25.4315 74.9404 25.4326C74.9493 25.4423 74.9615 25.4495 74.9758 25.4536C74.9901 25.4577 75.0063 25.4586 75.0228 25.4562C75.0393 25.4538 75.0558 25.4481 75.0708 25.4397C75.0857 25.4312 75.0988 25.4203 75.1088 25.4078C75.1188 25.3953 75.1254 25.3816 75.1282 25.3678C75.131 25.3541 75.1297 25.3407 75.1246 25.3289C75.1195 25.317 75.1106 25.307 75.0988 25.2998C75.087 25.2925 75.0725 25.2882 75.0567 25.2872V25.2872Z" fill="#EDF5DF"/>
</g>
<g clip-path="url(#clip37_122_3750)">
<path d="M73.6647 28.7163C73.6559 28.7067 73.6439 28.6995 73.6297 28.6954C73.6156 28.6914 73.5996 28.6905 73.5832 28.6929C73.5668 28.6953 73.5505 28.7009 73.5357 28.7092C73.5208 28.7175 73.5079 28.7283 73.4979 28.7407C73.488 28.753 73.4813 28.7666 73.4786 28.7802C73.4758 28.7937 73.477 28.8069 73.482 28.8187C73.487 28.8304 73.4958 28.8402 73.5074 28.8474C73.5191 28.8546 73.5334 28.8589 73.5491 28.8599C73.5579 28.8695 73.5698 28.8767 73.584 28.8808C73.5982 28.8849 73.6142 28.8857 73.6305 28.8833C73.6469 28.8809 73.6632 28.8753 73.6781 28.867C73.6929 28.8587 73.7059 28.8479 73.7158 28.8355C73.7258 28.8232 73.7324 28.8096 73.7352 28.7961C73.738 28.7825 73.7368 28.7693 73.7318 28.7575C73.7267 28.7458 73.718 28.736 73.7063 28.7288C73.6946 28.7216 73.6803 28.7173 73.6647 28.7163V28.7163Z" fill="#EDF5DF"/>
</g>
<g clip-path="url(#clip38_122_3750)">
<path d="M74.0616 27.3223C74.0527 27.3126 74.0407 27.3054 74.0264 27.3013C74.0121 27.2971 73.9961 27.2962 73.9796 27.2986C73.9631 27.301 73.9467 27.3066 73.9318 27.315C73.9168 27.3233 73.9038 27.3342 73.8938 27.3466C73.8838 27.3591 73.8771 27.3727 73.8743 27.3864C73.8715 27.4001 73.8727 27.4134 73.8777 27.4252C73.8828 27.437 73.8916 27.447 73.9033 27.4542C73.9151 27.4615 73.9294 27.4658 73.9452 27.4669C73.954 27.4766 73.9661 27.4838 73.9804 27.488C73.9946 27.4921 74.0107 27.493 74.0272 27.4906C74.0437 27.4882 74.0601 27.4826 74.075 27.4743C74.09 27.4659 74.103 27.455 74.113 27.4426C74.123 27.4302 74.1297 27.4165 74.1325 27.4029C74.1353 27.3892 74.1341 27.3759 74.1291 27.364C74.124 27.3522 74.1152 27.3423 74.1035 27.335C74.0917 27.3277 74.0773 27.3234 74.0616 27.3223V27.3223Z" fill="#EDF5DF"/>
</g>
<g clip-path="url(#clip39_122_3750)">
<path d="M76.1311 26.5573C76.1223 26.5475 76.1102 26.5402 76.0958 26.536C76.0814 26.5318 76.0653 26.5309 76.0486 26.5333C76.032 26.5356 76.0154 26.5413 76.0003 26.5497C75.9852 26.5581 75.972 26.569 75.9619 26.5815C75.9517 26.594 75.9449 26.6078 75.9421 26.6216C75.9392 26.6354 75.9403 26.6488 75.9454 26.6607C75.9504 26.6726 75.9592 26.6827 75.971 26.69C75.9828 26.6974 75.9973 26.7018 76.0132 26.7028C76.0221 26.7126 76.0342 26.72 76.0486 26.7241C76.0629 26.7283 76.0791 26.7293 76.0957 26.7269C76.1124 26.7245 76.1289 26.7189 76.144 26.7105C76.1592 26.7021 76.1723 26.6912 76.1825 26.6786C76.1926 26.6661 76.1994 26.6524 76.2023 26.6386C76.2052 26.6248 76.204 26.6114 76.199 26.5995C76.194 26.5875 76.1852 26.5775 76.1733 26.5701C76.1615 26.5628 76.147 26.5584 76.1311 26.5573V26.5573Z" fill="#EDF5DF"/>
</g>
<g clip-path="url(#clip40_122_3750)">
<path d="M79.1025 26.1952C79.0936 26.1852 79.0813 26.1778 79.0668 26.1735C79.0522 26.1692 79.0358 26.1682 79.0189 26.1706C79.0021 26.173 78.9852 26.1787 78.9699 26.1873C78.9545 26.1958 78.9411 26.2069 78.9308 26.2197C78.9204 26.2325 78.9135 26.2465 78.9105 26.2605C78.9075 26.2746 78.9086 26.2883 78.9137 26.3004C78.9188 26.3126 78.9277 26.3229 78.9396 26.3304C78.9516 26.3379 78.9662 26.3424 78.9823 26.3435C78.9913 26.3535 79.0035 26.361 79.0181 26.3653C79.0326 26.3696 79.0491 26.3706 79.0659 26.3682C79.0828 26.3658 79.0996 26.36 79.115 26.3515C79.1303 26.3429 79.1437 26.3318 79.1541 26.319C79.1644 26.3063 79.1714 26.2923 79.1743 26.2782C79.1773 26.2642 79.1762 26.2505 79.1712 26.2383C79.1661 26.2262 79.1572 26.2159 79.1452 26.2084C79.1333 26.2009 79.1186 26.1964 79.1025 26.1952V26.1952Z" fill="#EDF5DF"/>
</g>
<g clip-path="url(#clip41_122_3750)">
<path d="M83.3974 18.488C83.4099 18.484 83.4211 18.4767 83.4302 18.4665C83.4394 18.4564 83.4461 18.4437 83.4498 18.4296C83.4535 18.4156 83.4542 18.4005 83.4516 18.3858C83.4491 18.371 83.4435 18.357 83.4354 18.3449C83.4272 18.3328 83.4166 18.3229 83.4047 18.3162C83.3927 18.3095 83.3796 18.3062 83.3665 18.3064C83.3534 18.3066 83.3408 18.3105 83.3296 18.3176C83.3184 18.3247 83.3091 18.3349 83.3023 18.3473C83.2899 18.3512 83.2786 18.3586 83.2695 18.3687C83.2604 18.3789 83.2537 18.3916 83.25 18.4056C83.2462 18.4197 83.2456 18.4347 83.2481 18.4495C83.2506 18.4643 83.2562 18.4783 83.2644 18.4904C83.2726 18.5025 83.2831 18.5123 83.2951 18.519C83.3071 18.5257 83.3202 18.5291 83.3332 18.5289C83.3463 18.5286 83.359 18.5248 83.3702 18.5177C83.3813 18.5106 83.3907 18.5004 83.3974 18.488V18.488Z" fill="#EDF5DF"/>
</g>
<g clip-path="url(#clip42_122_3750)">
<path d="M81.6124 17.572C81.6248 17.568 81.6361 17.5607 81.6452 17.5505C81.6543 17.5404 81.661 17.5277 81.6648 17.5137C81.6685 17.4997 81.6691 17.4847 81.6666 17.47C81.6641 17.4553 81.6585 17.4413 81.6504 17.4293C81.6422 17.4173 81.6317 17.4075 81.6197 17.4009C81.6077 17.3942 81.5946 17.3909 81.5816 17.3912C81.5685 17.3915 81.5558 17.3953 81.5447 17.4025C81.5335 17.4096 81.5241 17.4198 81.5174 17.4321C81.505 17.4361 81.4937 17.4435 81.4846 17.4536C81.4755 17.4638 81.4687 17.4764 81.465 17.4904C81.4613 17.5044 81.4606 17.5194 81.4632 17.5341C81.4657 17.5488 81.4712 17.5628 81.4794 17.5748C81.4876 17.5869 81.4981 17.5966 81.5101 17.6032C81.5221 17.6099 81.5352 17.6132 81.5482 17.6129C81.5613 17.6126 81.5739 17.6088 81.5851 17.6017C81.5963 17.5945 81.6057 17.5844 81.6124 17.572V17.572Z" fill="#EDF5DF"/>
</g>
<g clip-path="url(#clip43_122_3750)">
<path d="M79.7522 17.9593C79.7646 17.9552 79.7758 17.9478 79.7848 17.9376C79.7938 17.9274 79.8004 17.9147 79.8041 17.9006C79.8077 17.8865 79.8082 17.8715 79.8056 17.8568C79.803 17.8421 79.7973 17.8281 79.7891 17.8161C79.7808 17.804 79.7703 17.7943 79.7582 17.7877C79.7462 17.7811 79.7331 17.7778 79.7201 17.7782C79.7071 17.7785 79.6945 17.7824 79.6834 17.7896C79.6722 17.7968 79.663 17.807 79.6563 17.8195C79.644 17.8235 79.6328 17.8309 79.6237 17.8412C79.6147 17.8514 79.6081 17.8641 79.6045 17.8781C79.6009 17.8922 79.6003 17.9072 79.6029 17.922C79.6055 17.9367 79.6112 17.9506 79.6195 17.9627C79.6277 17.9747 79.6383 17.9844 79.6503 17.991C79.6623 17.9976 79.6754 18.0009 79.6884 18.0006C79.7015 18.0002 79.7141 17.9963 79.7252 17.9891C79.7363 17.9819 79.7456 17.9717 79.7522 17.9593V17.9593Z" fill="#EDF5DF"/>
</g>
<g clip-path="url(#clip44_122_3750)">
<path d="M78.7095 20.5758C78.7219 20.5716 78.7332 20.564 78.7423 20.5536C78.7513 20.5433 78.758 20.5304 78.7616 20.5162C78.7652 20.5021 78.7657 20.4869 78.7631 20.4721C78.7604 20.4573 78.7547 20.4433 78.7464 20.4313C78.7381 20.4193 78.7274 20.4096 78.7153 20.4031C78.7032 20.3966 78.69 20.3934 78.6769 20.3939C78.6638 20.3943 78.6511 20.3984 78.6399 20.4057C78.6287 20.4131 78.6194 20.4235 78.6127 20.436C78.6003 20.4402 78.589 20.4478 78.58 20.4582C78.5709 20.4685 78.5642 20.4813 78.5606 20.4955C78.557 20.5097 78.5565 20.5249 78.5591 20.5397C78.5618 20.5544 78.5675 20.5684 78.5758 20.5805C78.5841 20.5925 78.5948 20.6022 78.6069 20.6087C78.619 20.6152 78.6322 20.6184 78.6453 20.6179C78.6584 20.6175 78.6711 20.6134 78.6823 20.606C78.6935 20.5987 78.7028 20.5883 78.7095 20.5758V20.5758Z" fill="#EDF5DF"/>
</g>
<g clip-path="url(#clip45_122_3750)">
<path d="M80.1842 27.2814C80.1967 27.2772 80.208 27.2695 80.217 27.2591C80.2261 27.2486 80.2327 27.2357 80.2363 27.2214C80.2398 27.2072 80.2403 27.1919 80.2376 27.177C80.2348 27.1622 80.229 27.1481 80.2206 27.136C80.2122 27.1239 80.2015 27.1142 80.1893 27.1076C80.1771 27.1011 80.1639 27.0979 80.1507 27.0984C80.1376 27.0989 80.1249 27.103 80.1137 27.1104C80.1025 27.1178 80.0932 27.1283 80.0866 27.1409C80.0741 27.1451 80.0628 27.1528 80.0538 27.1632C80.0447 27.1737 80.0381 27.1866 80.0345 27.2009C80.031 27.2152 80.0305 27.2304 80.0332 27.2453C80.036 27.2602 80.0418 27.2742 80.0502 27.2863C80.0586 27.2984 80.0693 27.3082 80.0815 27.3147C80.0937 27.3213 80.1069 27.3244 80.1201 27.3239C80.1332 27.3235 80.146 27.3193 80.1571 27.3119C80.1683 27.3045 80.1776 27.2941 80.1842 27.2814V27.2814Z" fill="#EDF5DF"/>
</g>
<g clip-path="url(#clip46_122_3750)">
<path d="M81.2423 24.551C81.255 24.5469 81.2665 24.5392 81.2758 24.5287C81.2851 24.5182 81.2919 24.5052 81.2956 24.4908C81.2993 24.4764 81.2999 24.4609 81.2973 24.4459C81.2946 24.4308 81.2888 24.4165 81.2804 24.4042C81.272 24.3919 81.2612 24.3819 81.2489 24.3752C81.2366 24.3684 81.2232 24.3651 81.2098 24.3655C81.1965 24.3659 81.1836 24.3699 81.1722 24.3773C81.1608 24.3847 81.1513 24.3952 81.1444 24.408C81.1317 24.4121 81.1203 24.4198 81.111 24.4303C81.1017 24.4408 81.0949 24.4538 81.0912 24.4682C81.0874 24.4826 81.0869 24.4981 81.0895 24.5131C81.0922 24.5282 81.0979 24.5425 81.1064 24.5548C81.1148 24.5671 81.1256 24.5771 81.1379 24.5838C81.1502 24.5906 81.1636 24.5939 81.1769 24.5935C81.1903 24.5931 81.2032 24.5891 81.2146 24.5817C81.226 24.5743 81.2355 24.5638 81.2423 24.551V24.551Z" fill="#EDF5DF"/>
</g>
<g clip-path="url(#clip47_122_3750)">
<path d="M80.7621 20.6006C80.7747 20.5965 80.786 20.589 80.7952 20.5787C80.8043 20.5683 80.811 20.5555 80.8147 20.5413C80.8184 20.5271 80.8189 20.5119 80.8163 20.497C80.8137 20.4821 80.808 20.468 80.7996 20.4558C80.7913 20.4436 80.7806 20.4338 80.7685 20.4271C80.7563 20.4204 80.7431 20.4171 80.7299 20.4174C80.7167 20.4178 80.7039 20.4217 80.6926 20.429C80.6814 20.4362 80.672 20.4466 80.6652 20.4591C80.6527 20.4632 80.6414 20.4707 80.6322 20.481C80.6231 20.4913 80.6164 20.5041 80.6127 20.5184C80.609 20.5326 80.6084 20.5478 80.6111 20.5627C80.6137 20.5776 80.6194 20.5917 80.6277 20.6039C80.6361 20.616 80.6468 20.6259 80.6589 20.6326C80.6711 20.6392 80.6843 20.6426 80.6975 20.6422C80.7107 20.6419 80.7235 20.6379 80.7347 20.6307C80.746 20.6234 80.7554 20.6131 80.7621 20.6006V20.6006Z" fill="#EDF5DF"/>
</g>
<g clip-path="url(#clip48_122_3750)">
<path d="M82.4871 13.0492C82.4993 13.0453 82.5103 13.0381 82.5192 13.0281C82.5282 13.0182 82.5348 13.0058 82.5384 12.992C82.5421 12.9783 82.5427 12.9635 82.5403 12.9491C82.5378 12.9346 82.5324 12.9209 82.5243 12.9091C82.5163 12.8973 82.506 12.8877 82.4943 12.8812C82.4826 12.8746 82.4697 12.8714 82.4569 12.8716C82.4441 12.8719 82.4317 12.8757 82.4208 12.8826C82.4098 12.8896 82.4006 12.8996 82.394 12.9117C82.3818 12.9156 82.3708 12.9229 82.3619 12.9328C82.3529 12.9428 82.3463 12.9552 82.3427 12.969C82.339 12.9827 82.3384 12.9975 82.3408 13.0119C82.3433 13.0263 82.3487 13.0401 82.3568 13.0519C82.3648 13.0637 82.3751 13.0733 82.3868 13.0798C82.3985 13.0864 82.4114 13.0896 82.4242 13.0894C82.437 13.0891 82.4494 13.0853 82.4603 13.0783C82.4713 13.0713 82.4805 13.0614 82.4871 13.0492V13.0492Z" fill="#EDF5DF"/>
</g>
<g clip-path="url(#clip49_122_3750)">
<path d="M83.8142 16.3428C83.8265 16.3389 83.8377 16.3316 83.8467 16.3216C83.8558 16.3115 83.8625 16.2989 83.8663 16.285C83.87 16.271 83.8707 16.2561 83.8683 16.2414C83.8659 16.2267 83.8605 16.2128 83.8525 16.2007C83.8444 16.1887 83.8341 16.1789 83.8222 16.1722C83.8104 16.1655 83.7975 16.1621 83.7846 16.1624C83.7716 16.1626 83.7591 16.1663 83.748 16.1734C83.7369 16.1804 83.7276 16.1905 83.7209 16.2028C83.7085 16.2067 83.6974 16.214 83.6883 16.2241C83.6792 16.2342 83.6725 16.2467 83.6688 16.2607C83.665 16.2746 83.6643 16.2896 83.6667 16.3043C83.6691 16.3189 83.6745 16.3329 83.6826 16.3449C83.6906 16.357 83.701 16.3668 83.7128 16.3734C83.7246 16.3801 83.7375 16.3835 83.7505 16.3833C83.7634 16.3831 83.7759 16.3793 83.787 16.3723C83.7981 16.3652 83.8074 16.3551 83.8142 16.3428V16.3428Z" fill="#EDF5DF"/>
</g>
<g clip-path="url(#clip50_122_3750)">
<path d="M83.0319 20.098C83.0444 20.094 83.0557 20.0866 83.0649 20.0763C83.0741 20.0661 83.0809 20.0533 83.0846 20.0391C83.0884 20.025 83.0891 20.0098 83.0866 19.995C83.0841 19.9801 83.0785 19.966 83.0703 19.9538C83.0621 19.9416 83.0516 19.9317 83.0396 19.925C83.0275 19.9183 83.0144 19.9149 83.0013 19.9152C82.9881 19.9154 82.9754 19.9193 82.9642 19.9265C82.9529 19.9337 82.9435 19.9439 82.9367 19.9564C82.9242 19.9604 82.9129 19.9679 82.9037 19.9781C82.8945 19.9884 82.8878 20.0011 82.884 20.0153C82.8802 20.0294 82.8795 20.0446 82.882 20.0595C82.8845 20.0743 82.8901 20.0885 82.8983 20.1006C82.9065 20.1128 82.917 20.1227 82.9291 20.1294C82.9411 20.1361 82.9542 20.1395 82.9673 20.1393C82.9805 20.139 82.9932 20.1351 83.0044 20.1279C83.0157 20.1207 83.0251 20.1105 83.0319 20.098V20.098Z" fill="#EDF5DF"/>
</g>
<g clip-path="url(#clip51_122_3750)">
<path d="M83.4824 29.6109C83.4949 29.6067 83.5061 29.5991 83.5152 29.5888C83.5243 29.5784 83.5309 29.5656 83.5345 29.5514C83.5382 29.5372 83.5387 29.5221 83.536 29.5073C83.5334 29.4925 83.5277 29.4785 83.5193 29.4665C83.511 29.4545 83.5003 29.4448 83.4882 29.4383C83.4761 29.4317 83.463 29.4286 83.4498 29.429C83.4367 29.4295 83.424 29.4336 83.4129 29.4409C83.4017 29.4482 83.3924 29.4586 83.3857 29.4712C83.3732 29.4754 83.362 29.483 83.3529 29.4933C83.3438 29.5037 83.3372 29.5165 83.3336 29.5307C83.3299 29.5449 83.3294 29.56 83.3321 29.5748C83.3347 29.5896 83.3404 29.6036 83.3488 29.6156C83.3571 29.6276 83.3678 29.6373 83.3799 29.6438C83.392 29.6504 83.4051 29.6535 83.4183 29.6531C83.4314 29.6526 83.4441 29.6485 83.4553 29.6412C83.4664 29.6339 83.4757 29.6235 83.4824 29.6109V29.6109Z" fill="#EDF5DF"/>
</g>
</g>
<path d="M75.6649 13.6159C75.6064 13.6332 75.5501 13.6574 75.4973 13.688C73.3673 14.9396 73.4406 16.866 72.7296 19.0681C72.0187 21.2701 71.7274 23.4972 72.9634 25.5531C73.9757 27.23 76.1772 27.5457 77.9531 27.2666C80.176 26.9475 81.4098 24.6758 81.75 22.7693C82.2103 20.145 79.6113 11.5285 75.6649 13.6159Z" fill="#FFF4BC"/>
<path d="M80.1341 23.4816C80.0681 24.4475 79.6298 25.3443 78.9131 25.9799C78.1963 26.6155 77.2582 26.9393 76.2997 26.8818C75.8289 26.8684 75.3643 26.7602 74.9332 26.5635C74.5022 26.3667 74.1135 26.0854 73.7898 25.7361C73.4661 25.3868 73.214 24.9766 73.0484 24.5294C72.8827 24.0823 72.8068 23.6073 72.8252 23.1323C72.8944 22.166 73.3344 21.2695 74.0515 20.6331C74.7686 19.9968 75.7065 19.6708 76.6658 19.7244C77.1369 19.7386 77.6014 19.8477 78.0322 20.0453C78.4631 20.2429 78.8514 20.525 79.1746 20.875C79.4977 21.2251 79.749 21.636 79.9138 22.0836C80.0786 22.5312 80.1535 23.0065 80.1341 23.4816V23.4816Z" fill="#5D5827"/>
<path d="M75.616 17.8142C75.6145 17.8475 75.6065 17.8801 75.5923 17.9101C75.5781 17.9401 75.5581 17.9668 75.5334 17.9887C75.5087 18.0106 75.4799 18.0272 75.4486 18.0376C75.4174 18.048 75.3843 18.052 75.3513 18.0493C75.3187 18.0487 75.2865 18.0415 75.2566 18.0281C75.2267 18.0146 75.1997 17.9953 75.1772 17.9712C75.1548 17.947 75.1374 17.9186 75.126 17.8877C75.1146 17.8567 75.1094 17.8238 75.1109 17.791C75.1124 17.7576 75.1205 17.725 75.1347 17.6951C75.1488 17.6651 75.1689 17.6384 75.1935 17.6165C75.2182 17.5946 75.247 17.5779 75.2783 17.5675C75.3096 17.5571 75.3427 17.5532 75.3756 17.5559C75.4082 17.5565 75.4404 17.5637 75.4703 17.5771C75.5002 17.5905 75.5272 17.6099 75.5497 17.634C75.5721 17.6581 75.5896 17.6865 75.601 17.7175C75.6124 17.7485 75.6175 17.7814 75.616 17.8142V17.8142Z" fill="#5D5827"/>
<path d="M78.0236 17.6216C78.0179 17.6889 77.9865 17.7511 77.9361 17.795C77.8857 17.8389 77.8201 17.8612 77.7532 17.8572C77.6879 17.8545 77.626 17.8258 77.5809 17.7774C77.5359 17.729 77.5114 17.6649 77.5128 17.5989C77.5186 17.5316 77.5499 17.4694 77.6003 17.4255C77.6507 17.3816 77.7163 17.3593 77.7832 17.3633C77.8485 17.366 77.9105 17.3947 77.9555 17.4431C78.0005 17.4915 78.025 17.5556 78.0236 17.6216V17.6216Z" fill="#5D5827"/>
<path d="M77.283 22.7935C77.3088 22.6698 77.296 22.5406 77.2462 22.4237C77.3856 22.5591 77.4844 22.7315 77.5309 22.9205C77.5773 23.1095 77.5696 23.3073 77.5086 23.4908C77.4182 23.9124 77.2539 24.3135 77.0233 24.6751C76.8556 24.8895 76.6743 25.0927 76.4806 25.2834C76.5102 25.3798 76.5582 25.4695 76.622 25.5476C76.6858 25.6256 76.7641 25.6903 76.8523 25.7379C77.3733 25.6861 77.8545 25.441 78.2032 25.05C78.6705 24.5514 78.9211 23.8838 78.9002 23.1933C78.8794 22.5028 78.5887 21.8454 78.0918 21.3649C77.8276 21.0889 77.51 20.8707 77.1593 20.7244C76.8086 20.578 76.4324 20.5067 76.0546 20.5149C75.6769 20.5231 75.306 20.6107 74.9654 20.7721C74.6249 20.9334 74.3222 21.1651 74.0766 21.4522C73.2817 22.5208 73.2069 24.3356 74.5783 24.9947C75.8259 25.5501 77.0628 23.7173 77.283 22.7935Z" fill="#7A6F41"/>
<path d="M75.3014 18.4902C75.6879 18.6729 76.1132 18.7488 76.5347 18.7105C76.9563 18.6721 77.3593 18.5207 77.7034 18.2715" fill="#5D5827"/>
</g>
<defs>
<clipPath id="clip0_122_3750">
<rect width="85" height="30" fill="white"/>
</clipPath>
<clipPath id="clip1_122_3750">
<rect width="0.244381" height="0.228778" fill="white" transform="matrix(-0.809027 0.565571 -0.370012 -0.937385 82.7936 12.1543)"/>
</clipPath>
<clipPath id="clip2_122_3750">
<rect width="0.227845" height="0.221561" fill="white" transform="matrix(-0.841305 0.518135 -0.309927 -0.957159 81.0573 12.3516)"/>
</clipPath>
<clipPath id="clip3_122_3750">
<rect width="0.228807" height="0.228089" fill="white" transform="matrix(-0.862488 0.483608 -0.270705 -0.967805 79.4873 14.4961)"/>
</clipPath>
<clipPath id="clip4_122_3750">
<rect width="0.239197" height="0.239647" fill="white" transform="matrix(-0.866341 0.476986 -0.257585 -0.970982 79.2256 16.8379)"/>
</clipPath>
<clipPath id="clip5_122_3750">
<rect width="0.259541" height="0.254373" fill="white" transform="matrix(-0.846928 0.509262 -0.294046 -0.96168 80.4421 17.2715)"/>
</clipPath>
<clipPath id="clip6_122_3750">
<rect width="0.271486" height="0.255506" fill="white" transform="matrix(-0.813322 0.559575 -0.362641 -0.940044 81.9215 15.9121)"/>
</clipPath>
<clipPath id="clip7_122_3750">
<rect width="0.278901" height="0.259341" fill="white" transform="matrix(-0.802997 0.573841 -0.378395 -0.934279 82.3937 14.8945)"/>
</clipPath>
<clipPath id="clip8_122_3750">
<rect width="0.302586" height="0.287348" fill="white" transform="matrix(-0.818191 0.552667 -0.352278 -0.943671 82.47 17.8066)"/>
</clipPath>
<clipPath id="clip9_122_3750">
<rect width="0.284541" height="0.276681" fill="white" transform="matrix(-0.839646 0.520717 -0.311273 -0.956763 82.2313 19.252)"/>
</clipPath>
<clipPath id="clip10_122_3750">
<rect width="0.265219" height="0.264006" fill="white" transform="matrix(-0.863744 0.481462 -0.267979 -0.968481 80.7488 19.8535)"/>
</clipPath>
<clipPath id="clip11_122_3750">
<rect width="0.253398" height="0.25421" fill="white" transform="matrix(-0.87513 0.461446 -0.243484 -0.974186 79.6487 19.6328)"/>
</clipPath>
<clipPath id="clip12_122_3750">
<rect width="0.267619" height="0.262379" fill="white" transform="matrix(-0.848986 0.505963 -0.293241 -0.961901 80.6793 18.4551)"/>
</clipPath>
<clipPath id="clip13_122_3750">
<rect width="0.301048" height="0.283825" fill="white" transform="matrix(-0.813632 0.559138 -0.359745 -0.941071 83.5751 18.1406)"/>
</clipPath>
<clipPath id="clip14_122_3750">
<rect width="0.305096" height="0.281785" fill="white" transform="matrix(-0.791311 0.589397 -0.401765 -0.925155 84.0093 16.8457)"/>
</clipPath>
<clipPath id="clip15_122_3750">
<rect width="0.253314" height="0.236106" fill="white" transform="matrix(-0.803335 0.573383 -0.377999 -0.934428 82.5311 13.2246)"/>
</clipPath>
<clipPath id="clip16_122_3750">
<rect width="0.240831" height="0.230557" fill="white" transform="matrix(-0.829256 0.536509 -0.329637 -0.951145 81.3612 13.2246)"/>
</clipPath>
<clipPath id="clip17_122_3750">
<rect width="0.243087" height="0.233135" fill="white" transform="matrix(-0.832007 0.532388 -0.327196 -0.951914 81.0276 14.3828)"/>
</clipPath>
<clipPath id="clip18_122_3750">
<rect width="0.294303" height="0.268762" fill="white" transform="matrix(-0.777184 0.607425 -0.425133 -0.915328 83.7062 15.3789)"/>
</clipPath>
<clipPath id="clip19_122_3750">
<rect width="0.274855" height="0.250562" fill="white" transform="matrix(-0.780518 0.603244 -0.422818 -0.916333 83.3075 14.0488)"/>
</clipPath>
<clipPath id="clip20_122_3750">
<rect width="0.17692" height="0.189574" fill="white" transform="matrix(0.929529 0.401591 -0.612699 0.771354 83.6975 21.8633)"/>
</clipPath>
<clipPath id="clip21_122_3750">
<rect width="0.178942" height="0.192563" fill="white" transform="matrix(0.929656 0.401283 -0.615381 0.769212 82.0453 23.4902)"/>
</clipPath>
<clipPath id="clip22_122_3750">
<rect width="0.178147" height="0.191954" fill="white" transform="matrix(0.928733 0.403514 -0.617781 0.767282 77.1976 24.9668)"/>
</clipPath>
<clipPath id="clip23_122_3750">
<rect width="0.178147" height="0.191363" fill="white" transform="matrix(0.928741 0.403493 -0.615293 0.769282 77.4552 27.2148)"/>
</clipPath>
<clipPath id="clip24_122_3750">
<rect width="0.175766" height="0.188949" fill="white" transform="matrix(0.925896 0.410272 -0.620074 0.765428 75.5536 28.1895)"/>
</clipPath>
<clipPath id="clip25_122_3750">
<rect width="0.17533" height="0.189555" fill="white" transform="matrix(0.927641 0.406132 -0.617638 0.767397 76.5863 28.959)"/>
</clipPath>
<clipPath id="clip26_122_3750">
<rect width="0.178227" height="0.193143" fill="white" transform="matrix(0.924339 0.413923 -0.622632 0.763346 83.0499 24.9863)"/>
</clipPath>
<clipPath id="clip27_122_3750">
<rect width="0.176206" height="0.190141" fill="white" transform="matrix(0.924129 0.414412 -0.625016 0.761395 79.7457 28.9121)"/>
</clipPath>
<clipPath id="clip28_122_3750">
<rect width="0.175267" height="0.187175" fill="white" transform="matrix(0.932017 0.395503 -0.612547 0.771475 83.6595 20.1348)"/>
</clipPath>
<clipPath id="clip29_122_3750">
<rect width="0.176649" height="0.19134" fill="white" transform="matrix(0.922367 0.418487 -0.625004 0.761405 83.4401 26.4121)"/>
</clipPath>
<clipPath id="clip30_122_3750">
<rect width="0.177882" height="0.19254" fill="white" transform="matrix(0.921603 0.420239 -0.625009 0.7614 81.0803 27.2871)"/>
</clipPath>
<clipPath id="clip31_122_3750">
<rect width="0.180248" height="0.194947" fill="white" transform="matrix(0.924547 0.413439 -0.620279 0.765262 80.6135 24.5703)"/>
</clipPath>
<clipPath id="clip32_122_3750">
<rect width="0.176559" height="0.190148" fill="white" transform="matrix(0.926853 0.408009 -0.620133 0.76538 81.463 21.416)"/>
</clipPath>
<clipPath id="clip33_122_3750">
<rect width="0.178147" height="0.191954" fill="white" transform="matrix(0.928733 0.403514 -0.617781 0.767282 81.0756 22.7852)"/>
</clipPath>
<clipPath id="clip34_122_3750">
<rect width="0.178147" height="0.191363" fill="white" transform="matrix(0.928741 0.403493 -0.615293 0.769282 79.2582 22.3691)"/>
</clipPath>
<clipPath id="clip35_122_3750">
<rect width="0.17858" height="0.191954" fill="white" transform="matrix(0.927031 0.407586 -0.617759 0.767299 78.7246 23.6348)"/>
</clipPath>
<clipPath id="clip36_122_3750">
<rect width="0.176125" height="0.188964" fill="white" transform="matrix(0.928593 0.403849 -0.615135 0.769408 74.9749 25.252)"/>
</clipPath>
<clipPath id="clip37_122_3750">
<rect width="0.174103" height="0.187156" fill="white" transform="matrix(0.928433 0.404235 -0.617528 0.767486 73.5837 28.6816)"/>
</clipPath>
<clipPath id="clip38_122_3750">
<rect width="0.17533" height="0.188356" fill="white" transform="matrix(0.927644 0.406125 -0.617581 0.767443 73.9802 27.2871)"/>
</clipPath>
<clipPath id="clip39_122_3750">
<rect width="0.176559" height="0.190148" fill="white" transform="matrix(0.926853 0.408009 -0.620133 0.76538 76.0493 26.5215)"/>
</clipPath>
<clipPath id="clip40_122_3750">
<rect width="0.179018" height="0.193747" fill="white" transform="matrix(0.925308 0.411658 -0.620244 0.76529 79.0197 26.1582)"/>
</clipPath>
<clipPath id="clip41_122_3750">
<rect width="0.168931" height="0.167758" fill="white" transform="matrix(-0.750756 0.639095 -0.566904 -0.838935 83.4608 18.4336)"/>
</clipPath>
<clipPath id="clip42_122_3750">
<rect width="0.168931" height="0.167012" fill="white" transform="matrix(-0.750772 0.639077 -0.568911 -0.837623 81.6759 17.5176)"/>
</clipPath>
<clipPath id="clip43_122_3750">
<rect width="0.168713" height="0.167419" fill="white" transform="matrix(-0.745831 0.644724 -0.572636 -0.83517 79.8151 17.9043)"/>
</clipPath>
<clipPath id="clip44_122_3750">
<rect width="0.170501" height="0.167829" fill="white" transform="matrix(-0.74213 0.648901 -0.576334 -0.83271 78.7727 20.5195)"/>
</clipPath>
<clipPath id="clip45_122_3750">
<rect width="0.171031" height="0.168983" fill="white" transform="matrix(-0.739249 0.652121 -0.577964 -0.831617 80.2474 27.2266)"/>
</clipPath>
<clipPath id="clip46_122_3750">
<rect width="0.173235" height="0.17121" fill="white" transform="matrix(-0.745383 0.645232 -0.571939 -0.835631 81.3069 24.4961)"/>
</clipPath>
<clipPath id="clip47_122_3750">
<rect width="0.170712" height="0.169314" fill="white" transform="matrix(-0.747041 0.643348 -0.572269 -0.835413 80.8259 20.5449)"/>
</clipPath>
<clipPath id="clip48_122_3750">
<rect width="0.165669" height="0.163967" fill="white" transform="matrix(-0.750473 0.639421 -0.567518 -0.838535 82.5492 12.9961)"/>
</clipPath>
<clipPath id="clip49_122_3750">
<rect width="0.167671" height="0.166209" fill="white" transform="matrix(-0.751606 0.638116 -0.561445 -0.842467 83.8772 16.2891)"/>
</clipPath>
<clipPath id="clip50_122_3750">
<rect width="0.170191" height="0.168505" fill="white" transform="matrix(-0.749881 0.640101 -0.564927 -0.84022 83.0957 20.043)"/>
</clipPath>
<clipPath id="clip51_122_3750">
<rect width="0.170501" height="0.167829" fill="white" transform="matrix(-0.74213 0.648901 -0.576334 -0.83271 83.5457 29.5547)"/>
</clipPath>
</defs>
</svg>
