<svg width="48" height="48" viewBox="0 0 48 48" fill="none" xmlns="http://www.w3.org/2000/svg">
<path d="M38.31 27.9914C37.7432 27.8236 37.165 27.6966 36.58 27.6114L25.8 15.1014C25.5296 14.7581 25.1848 14.4806 24.7916 14.2899C24.3984 14.0991 23.9671 14 23.53 14C23.093 14 22.6617 14.0991 22.2685 14.2899C21.8753 14.4806 21.5305 14.7581 21.26 15.1014L10.66 27.7114C7.75004 27.8714 5.99004 30.0814 6.00004 31.0114C6.00004 33.0114 13.91 34.5614 23.64 34.5114C33.37 34.4614 41.25 32.8014 41.24 30.8114C41.23 30.1214 39.98 28.5314 38.31 27.9914Z" stroke="currentColor" stroke-width="1.5" stroke-miterlimit="10"/>
<path d="M11.17 28.6214C15.4018 29.7912 19.7803 30.3435 24.17 30.2614C28.1706 30.1838 32.144 29.5854 35.99 28.4814" stroke="currentColor" stroke-miterlimit="10" stroke-linecap="round"/>
<path d="M23.46 14.6814L23.55 29.4114" stroke="currentColor" stroke-width="0.5" stroke-miterlimit="10" stroke-linecap="round"/>
<path d="M23.46 14.6814L18.17 28.9314" stroke="currentColor" stroke-width="0.5" stroke-miterlimit="10" stroke-linecap="round"/>
<path d="M23.46 14.6814L28.78 28.8614" stroke="currentColor" stroke-width="0.5" stroke-miterlimit="10" stroke-linecap="round"/>
<path d="M23.46 14.6814L13.86 27.9414" stroke="currentColor" stroke-width="0.5" stroke-miterlimit="10" stroke-linecap="round"/>
<path d="M23.46 14.6814L33.1 27.8314" stroke="currentColor" stroke-width="0.5" stroke-miterlimit="10" stroke-linecap="round"/>
</svg>
