<svg width="48" height="48" viewBox="0 0 48 48" fill="none" xmlns="http://www.w3.org/2000/svg">
<path d="M10.5043 23.3349C14.6721 24.9966 19.1175 25.8518 23.6043 25.8549H23.9643C28.3294 25.8023 32.6478 24.9481 36.7043 23.3349V32.4449C36.7043 35.1049 34.8043 37.2649 32.4743 37.2649H14.7343C12.4043 37.2649 10.5043 35.1049 10.5043 32.4449V23.3349ZM10.1443 21.6149C9.98303 21.6224 9.82494 21.6624 9.67949 21.7324C9.53403 21.8024 9.4042 21.9011 9.29777 22.0224C9.19133 22.1438 9.11048 22.2854 9.06005 22.4388C9.00963 22.5921 8.99066 22.7541 9.00428 22.9149V32.4449C9.00428 35.9349 11.5643 38.7649 14.7343 38.7649H32.4743C35.6443 38.7649 38.2043 35.9349 38.2043 32.4449V22.9149C38.2179 22.7541 38.1989 22.5921 38.1485 22.4388C38.0981 22.2854 38.0172 22.1438 37.9108 22.0224C37.8044 21.9011 37.6745 21.8024 37.5291 21.7324C37.3836 21.6624 37.2255 21.6224 37.0643 21.6149C36.9269 21.6138 36.7907 21.6411 36.6643 21.6949C32.6299 23.3706 28.3125 24.2598 23.9443 24.3149H23.6043C19.1215 24.3044 14.6843 23.4143 10.5443 21.6949C10.4179 21.6411 10.2817 21.6138 10.1443 21.6149Z" fill="currentColor"/>
<path d="M12.0443 22.6149C12.2243 6.83493 34.7843 6.54493 35.1643 22.6149" stroke="currentColor" stroke-miterlimit="10"/>
<path d="M19.2943 13.2449C22.0843 11.8649 25.2943 11.3649 27.9143 13.0549C28.2591 13.2552 28.6693 13.3102 29.0546 13.208C29.44 13.1058 29.769 12.8547 29.9693 12.5099C30.1695 12.1652 30.2246 11.7549 30.1224 11.3696C30.0202 10.9842 29.7691 10.6552 29.4243 10.4549C25.8143 8.16493 21.4243 8.84493 17.7843 10.6549C17.443 10.8572 17.1951 11.1856 17.094 11.5692C16.993 11.9528 17.047 12.3608 17.2443 12.7049C17.4501 13.0423 17.7785 13.2869 18.1606 13.3875C18.5427 13.4882 18.949 13.4371 19.2943 13.2449Z" fill="currentColor"/>
<path d="M18.8843 25.4449C19.0309 29.4449 19.0076 33.4449 18.8143 37.4449C18.8143 37.7649 19.3043 37.7649 19.3143 37.4449C19.5143 33.4449 19.5376 29.4449 19.3843 25.4449C19.3843 25.1249 18.8643 25.1249 18.8843 25.4449Z" fill="currentColor"/>
<path d="M27.7143 25.6149L27.6043 37.2849C27.6043 37.3512 27.6306 37.4148 27.6775 37.4617C27.7244 37.5086 27.788 37.5349 27.8543 37.5349C27.9206 37.5349 27.9842 37.5086 28.0311 37.4617C28.0779 37.4148 28.1043 37.3512 28.1043 37.2849L28.2143 25.6149C28.2143 25.5486 28.1879 25.485 28.1411 25.4382C28.0942 25.3913 28.0306 25.3649 27.9643 25.3649C27.898 25.3649 27.8344 25.3913 27.7875 25.4382C27.7406 25.485 27.7143 25.5486 27.7143 25.6149Z" fill="currentColor"/>
<path d="M11.2243 27.4349C19.5509 29.9662 28.4329 30.0288 36.7943 27.6149C36.8519 27.5927 36.8993 27.5498 36.9272 27.4947C36.9552 27.4396 36.9617 27.376 36.9455 27.3164C36.9294 27.2567 36.8917 27.2052 36.8397 27.1716C36.7878 27.1381 36.7253 27.1251 36.6643 27.1349C28.3902 29.5307 19.5994 29.4786 11.3543 26.9849C11.2933 26.9751 11.2308 26.9881 11.1788 27.0216C11.1269 27.0552 11.0892 27.1067 11.0731 27.1664C11.0569 27.226 11.0634 27.2895 11.0913 27.3447C11.1193 27.3998 11.1666 27.4427 11.2243 27.4649V27.4349Z" fill="currentColor"/>
<path d="M10.0743 32.1649C18.7014 34.6689 27.8539 34.7312 36.5143 32.3449C36.5719 32.3227 36.6193 32.2798 36.6472 32.2247C36.6751 32.1696 36.6817 32.106 36.6655 32.0464C36.6493 31.9867 36.6117 31.9352 36.5597 31.9017C36.5078 31.8682 36.4453 31.8551 36.3843 31.8649C27.8088 34.2262 18.7465 34.1639 10.2043 31.6849C10.1433 31.6751 10.0808 31.6882 10.0288 31.7217C9.97689 31.7552 9.9392 31.8067 9.92305 31.8664C9.90689 31.926 9.9134 31.9896 9.94133 32.0447C9.96926 32.0998 10.0166 32.1427 10.0743 32.1649Z" fill="currentColor"/>
</svg>
