<svg width="48" height="48" viewBox="0 0 48 48" fill="none" xmlns="http://www.w3.org/2000/svg">
<path d="M24.06 11.62C26.334 11.6126 28.5227 12.4848 30.1685 14.0541C31.8142 15.6234 32.7894 17.7682 32.89 20.04C32.9013 20.3519 33.0097 20.6526 33.2 20.9C34.7681 22.8963 35.6203 25.3614 35.62 27.9C35.62 30.9659 34.4021 33.9062 32.2342 36.0741C30.0662 38.2421 27.1259 39.46 24.06 39.46C20.9941 39.46 18.0538 38.2421 15.8858 36.0741C13.7179 33.9062 12.5 30.9659 12.5 27.9C12.4997 25.3614 13.3519 22.8963 14.92 20.9C15.1103 20.6526 15.2187 20.3519 15.23 20.04C15.3307 17.7682 16.3058 15.6234 17.9515 14.0541C19.5972 12.4848 21.786 11.6126 24.06 11.62ZM24.06 10.12C21.4001 10.1149 18.8411 11.138 16.9179 12.9755C14.9947 14.8129 13.8561 17.3226 13.74 19.98C11.9651 22.2423 11.0004 25.0345 11 27.91C11 31.3737 12.376 34.6956 14.8252 37.1448C17.2744 39.594 20.5963 40.97 24.06 40.97C27.5237 40.97 30.8456 39.594 33.2948 37.1448C35.744 34.6956 37.12 31.3737 37.12 27.91C37.1196 25.0345 36.1549 22.2423 34.38 19.98C34.2714 17.3173 33.1361 14.8001 31.2121 12.9563C29.2881 11.1124 26.7249 10.0852 24.06 10.09V10.12Z" fill="currentColor"/>
<path d="M19.78 20.47C20.4372 20.47 20.97 19.9372 20.97 19.28C20.97 18.6227 20.4372 18.09 19.78 18.09C19.1228 18.09 18.59 18.6227 18.59 19.28C18.59 19.9372 19.1228 20.47 19.78 20.47Z" stroke="currentColor" stroke-miterlimit="10"/>
<path d="M27.73 20.47C28.3872 20.47 28.92 19.9372 28.92 19.28C28.92 18.6227 28.3872 18.09 27.73 18.09C27.0728 18.09 26.54 18.6227 26.54 19.28C26.54 19.9372 27.0728 20.47 27.73 20.47Z" stroke="currentColor" stroke-miterlimit="10"/>
<path d="M27.73 22.9H19.78V24.05H27.73V22.9Z" fill="currentColor"/>
<path d="M23.75 37.01C26.3292 37.01 28.42 34.9192 28.42 32.34C28.42 29.7608 26.3292 27.67 23.75 27.67C21.1708 27.67 19.08 29.7608 19.08 32.34C19.08 34.9192 21.1708 37.01 23.75 37.01Z" fill="currentColor"/>
<path d="M23.61 7H24.52C24.7666 7 25.0032 7.09799 25.1776 7.2724C25.352 7.44681 25.45 7.68334 25.45 7.92999V11H22.68V7.92999C22.68 7.68334 22.778 7.44681 22.9524 7.2724C23.1268 7.09799 23.3633 7 23.61 7Z" fill="currentColor"/>
</svg>
